<svg xmlns="http://www.w3.org/2000/svg" xmlns:xlink="http://www.w3.org/1999/xlink" contentStyleType="text/css" height="216px" preserveAspectRatio="none" style="width:1793px;height:216px;background:#FFFFFF;" version="1.1" viewBox="0 0 1793 216" width="1793px" zoomAndPan="magnify"><defs/><g><!--cluster Tocador de M?sica--><g id="cluster_Tocador de M&#250;sica"><rect fill="none" height="103" rx="2.5" ry="2.5" style="stroke:#181818;stroke-width:1.0;" width="1780" x="7" y="107.5"/><text fill="#000000" font-family="sans-serif" font-size="14" font-weight="bold" lengthAdjust="spacing" textLength="126.8066" x="833.5967" y="124.6074">Tocador de M&#250;sica</text></g><g id="elem_U1"><ellipse cx="334.1187" cy="169.4918" fill="#F1F1F1" rx="68.6187" ry="16.4918" style="stroke:#181818;stroke-width:0.5;"/><text fill="#000000" font-family="sans-serif" font-size="14" lengthAdjust="spacing" textLength="78.5654" x="291.836" y="174.2955">Criar Playlist</text></g><g id="elem_U2"><ellipse cx="127.1659" cy="169.6332" fill="#F1F1F1" rx="103.6659" ry="23.1332" style="stroke:#181818;stroke-width:0.5;"/><text fill="#000000" font-family="sans-serif" font-size="14" lengthAdjust="spacing" textLength="166.5098" x="43.8372" y="173.4583">Adicionar M&#250;sica &#224; Playlist</text></g><g id="elem_U3"><ellipse cx="508.9626" cy="169.6925" fill="#F1F1F1" rx="71.4626" ry="16.6925" style="stroke:#181818;stroke-width:0.5;"/><text fill="#000000" font-family="sans-serif" font-size="14" lengthAdjust="spacing" textLength="84.0205" x="463.9524" y="174.4962">Tocar M&#250;sica</text></g><g id="elem_U4"><ellipse cx="692.8151" cy="169.263" fill="#F1F1F1" rx="76.8151" ry="17.763" style="stroke:#181818;stroke-width:0.5;"/><text fill="#000000" font-family="sans-serif" font-size="14" lengthAdjust="spacing" textLength="99.5928" x="640.0187" y="174.0667">Avan&#231;ar M&#250;sica</text></g><g id="elem_U5"><ellipse cx="907.1231" cy="169.7246" fill="#F1F1F1" rx="101.6231" ry="22.7246" style="stroke:#181818;stroke-width:0.5;"/><text fill="#000000" font-family="sans-serif" font-size="14" lengthAdjust="spacing" textLength="161.8682" x="825.5523" y="173.7593">Receber Recomenda&#231;&#245;es</text></g><g id="elem_U6"><ellipse cx="1413.8955" cy="169.3791" fill="#F1F1F1" rx="112.3955" ry="24.8791" style="stroke:#181818;stroke-width:0.5;"/><text fill="#000000" font-family="sans-serif" font-size="14" lengthAdjust="spacing" textLength="185.9922" x="1320.8994" y="173.176">Adicionar M&#250;sica ao Cat&#225;logo</text></g><g id="elem_U7"><ellipse cx="1155.1847" cy="169.7369" fill="#F1F1F1" rx="111.6847" ry="24.7369" style="stroke:#181818;stroke-width:0.5;"/><text fill="#000000" font-family="sans-serif" font-size="14" lengthAdjust="spacing" textLength="184.4199" x="1062.9747" y="173.5338">Remover M&#250;sica do Cat&#225;logo</text></g><g id="elem_U8"><ellipse cx="1666.2097" cy="169.3419" fill="#F1F1F1" rx="104.7097" ry="23.3419" style="stroke:#181818;stroke-width:0.5;"/><text fill="#000000" font-family="sans-serif" font-size="14" lengthAdjust="spacing" textLength="168.8613" x="1581.779" y="173.1388">Listar M&#250;sicas do Cat&#225;logo</text></g><!--entity Free--><g id="elem_Free"><ellipse cx="333.9585" cy="14" fill="#F1F1F1" rx="8" ry="8" style="stroke:#181818;stroke-width:0.5;"/><path d="M333.9585,22 L333.9585,49 M320.9585,30 L346.9585,30 M333.9585,49 L320.9585,64 M333.9585,49 L346.9585,64 " fill="none" style="stroke:#181818;stroke-width:0.5;"/><text fill="#000000" font-family="sans-serif" font-size="14" lengthAdjust="spacing" textLength="80.917" x="293.5" y="80.6074">Usu&#225;rio Free</text></g><!--entity Premium--><g id="elem_Premium"><ellipse cx="509.0688" cy="14" fill="#F1F1F1" rx="8" ry="8" style="stroke:#181818;stroke-width:0.5;"/><path d="M509.0688,22 L509.0688,49 M496.0688,30 L522.0688,30 M509.0688,49 L496.0688,64 M509.0688,49 L522.0688,64 " fill="none" style="stroke:#181818;stroke-width:0.5;"/><text fill="#000000" font-family="sans-serif" font-size="14" lengthAdjust="spacing" textLength="108.1377" x="455" y="80.6074">Usu&#225;rio Premium</text></g><!--entity Admin--><g id="elem_Admin"><ellipse cx="1414.1826" cy="14" fill="#F1F1F1" rx="8" ry="8" style="stroke:#181818;stroke-width:0.5;"/><path d="M1414.1826,22 L1414.1826,49 M1401.1826,30 L1427.1826,30 M1414.1826,49 L1401.1826,64 M1414.1826,49 L1427.1826,64 " fill="none" style="stroke:#181818;stroke-width:0.5;"/><text fill="#000000" font-family="sans-serif" font-size="14" lengthAdjust="spacing" textLength="86.3652" x="1371" y="80.6074">Administrador</text></g><!--link Free to U1--><g id="link_Free_U1"><path d="M334,84.76 C334,107.75 334,135.65 334,152.74 " fill="none" id="Free-U1" style="stroke:#181818;stroke-width:1.0;"/></g><!--link Free to U2--><g id="link_Free_U2"><path d="M293.1,70.2 C254.81,92.86 198.2,126.36 161.96,147.81 " fill="none" id="Free-U2" style="stroke:#181818;stroke-width:1.0;"/></g><!--link Free to U3--><g id="link_Free_U3"><path d="M374.81,70.2 C389.29,79.1 405.57,89.46 420,99.5 C445.19,117.03 472.96,139.01 490.67,153.39 " fill="none" id="Free-U3" style="stroke:#181818;stroke-width:1.0;"/></g><!--link Premium to U1--><g id="link_Premium_U1"><path d="M454.61,77.11 C443,84.18 430.94,91.87 420,99.5 C395.19,116.79 368.24,139.02 351.25,153.51 " fill="none" id="Premium-U1" style="stroke:#181818;stroke-width:1.0;"/></g><!--link Premium to U2--><g id="link_Premium_U2"><path d="M454.91,66.48 C435.34,73.17 412.91,80.02 392,84.5 C329.08,97.97 309.26,79.81 248,99.5 C214.39,110.3 179.76,131.23 156.2,147.21 " fill="none" id="Premium-U2" style="stroke:#181818;stroke-width:1.0;"/></g><!--link Premium to U3--><g id="link_Premium_U3"><path d="M509,84.76 C509,107.75 509,135.65 509,152.74 " fill="none" id="Premium-U3" style="stroke:#181818;stroke-width:1.0;"/></g><!--link Premium to U4--><g id="link_Premium_U4"><path d="M563.12,77.51 C574.75,84.56 586.88,92.14 598,99.5 C623.84,116.6 652.48,137.72 671.5,152.06 " fill="none" id="Premium-U4" style="stroke:#181818;stroke-width:1.0;"/></g><!--link Premium to U5--><g id="link_Premium_U5"><path d="M563.16,50.94 C620.46,57.42 712.81,71.41 788,99.5 C820.44,111.62 854.31,132.14 877.58,147.67 " fill="none" id="Premium-U5" style="stroke:#181818;stroke-width:1.0;"/></g><!--link Admin to U6--><g id="link_Admin_U6"><path d="M1414,84.76 C1414,104.25 1414,127.26 1414,144.22 " fill="none" id="Admin-U6" style="stroke:#181818;stroke-width:1.0;"/></g><!--link Admin to U7--><g id="link_Admin_U7"><path d="M1370.79,62.52 C1345.26,72.59 1312.47,86.07 1284,99.5 C1253.1,114.07 1219.06,132.38 1193.71,146.47 " fill="none" id="Admin-U7" style="stroke:#181818;stroke-width:1.0;"/></g><!--link Admin to U8--><g id="link_Admin_U8"><path d="M1457.04,62.16 C1482.64,72.15 1515.58,85.68 1544,99.5 C1574.09,114.13 1607.05,132.95 1631.12,147.24 " fill="none" id="Admin-U8" style="stroke:#181818;stroke-width:1.0;"/></g><!--SRC=[XP5DQiCm48NtEiNWVHPrVhSXq5KAeJG7c4f345WMZEn0ARrBiye9kkbM5wkakBMb5kgDtsY-zqRseEmiGtLqlR-mjd3FH1MWIq9WqJqm6TsR10pwczagerljEaPbEG7fH0WcsM5xQWYg9ojZ5nJ1W_zqMc85hmB2qpkIw0AoOuqCXmPVcX2MSevtER9LMchR1cm80VzUEEhS4UVoE38IyoBpZAs_bj0YXnv9qZCnXBSrr2hqL_z1xiOk_xiaMjXXvo-DFTcRPLN66tkcqQ1-6TQvOH- -TnpW_Z1in9iGSPCmcyN_-2FhKSx5iCc1cLPrLkNa8gkM8gqxwTL4hoTw8xu0]--></g></svg>