<svg xmlns="http://www.w3.org/2000/svg" xmlns:xlink="http://www.w3.org/1999/xlink" contentStyleType="text/css" height="940px" preserveAspectRatio="none" style="width:1651px;height:940px;background:#FFFFFF;" version="1.1" viewBox="0 0 1651 940" width="1651px" zoomAndPan="magnify"><defs/><g><!--class GeneroMusical--><g id="elem_GeneroMusical"><rect codeLine="3" fill="#F1F1F1" height="159.7266" id="GeneroMusical" rx="2.5" ry="2.5" style="stroke:#181818;stroke-width:0.5;" width="126.1514" x="677.5" y="774"/><ellipse cx="692.5" cy="790" fill="#EB937F" rx="11" ry="11" style="stroke:#181818;stroke-width:1.0;"/><path d="M691.3594,790.7969 L691.3594,793.2969 L695.6875,793.2969 L695.6875,792.375 Q695.6875,791.7656 695.9219,791.5 Q696.1719,791.2344 696.5469,791.2344 Q696.9219,791.2344 697.1563,791.5 Q697.3906,791.7656 697.3906,792.375 L697.3906,795 L689.3906,795 Q688.7656,795 688.5,794.7656 Q688.25,794.5313 688.25,794.1406 Q688.25,793.7656 688.5156,793.5313 Q688.7813,793.2969 689.3906,793.2969 L689.6563,793.2969 L689.6563,786.6406 L689.3906,786.6406 Q688.7656,786.6406 688.5,786.4063 Q688.25,786.1719 688.25,785.7813 Q688.25,785.4063 688.5,785.1719 Q688.7656,784.9375 689.3906,784.9375 L697.0156,784.9375 L697.0156,787.5313 Q697.0156,788.1406 696.7813,788.4063 Q696.5625,788.6563 696.1719,788.6563 Q695.7969,788.6563 695.5625,788.4063 Q695.3281,788.1406 695.3281,787.5313 L695.3281,786.6406 L691.3594,786.6406 L691.3594,789.0938 L692.8438,789.0938 Q692.8438,788.4375 692.9688,788.25 Q693.2344,787.8438 693.7031,787.8438 Q694.0781,787.8438 694.3125,788.1094 Q694.5469,788.3594 694.5469,788.9688 L694.5469,790.9375 Q694.5469,791.4844 694.4219,791.6719 Q694.1563,792.0625 693.7031,792.0625 Q693.2344,792.0625 692.9688,791.6563 Q692.8438,791.4688 692.8438,790.7969 L691.3594,790.7969 Z " fill="#000000"/><text fill="#000000" font-family="sans-serif" font-size="14" lengthAdjust="spacing" textLength="94.1514" x="706.5" y="795.7969">GeneroMusical</text><line style="stroke:#181818;stroke-width:0.5;" x1="678.5" x2="802.6514" y1="806" y2="806"/><text fill="#000000" font-family="sans-serif" font-size="14" lengthAdjust="spacing" textLength="40.4482" x="683.5" y="825.1074">ROCK</text><text fill="#000000" font-family="sans-serif" font-size="14" lengthAdjust="spacing" textLength="29.5654" x="683.5" y="843.7285">POP</text><text fill="#000000" font-family="sans-serif" font-size="14" lengthAdjust="spacing" textLength="33.4414" x="683.5" y="862.3496">JAZZ</text><text fill="#000000" font-family="sans-serif" font-size="14" lengthAdjust="spacing" textLength="70.7998" x="683.5" y="880.9707">CLASSICO</text><text fill="#000000" font-family="sans-serif" font-size="14" lengthAdjust="spacing" textLength="28.7861" x="683.5" y="899.5918">RAP</text><text fill="#000000" font-family="sans-serif" font-size="14" lengthAdjust="spacing" textLength="89.4619" x="683.5" y="918.2129">ELETRONICA</text><line style="stroke:#181818;stroke-width:0.5;" x1="678.5" x2="802.6514" y1="925.7266" y2="925.7266"/></g><!--class Reproduzivel--><g id="elem_Reproduzivel"><rect codeLine="13" fill="#F1F1F1" height="66.6211" id="Reproduzivel" rx="2.5" ry="2.5" style="stroke:#181818;stroke-width:0.5;" width="113.71" x="528.5" y="820.5"/><ellipse cx="543.5" cy="836.5" fill="#B4A7E5" rx="11" ry="11" style="stroke:#181818;stroke-width:1.0;"/><path d="M544.4531,833.1406 L544.4531,839.7969 L546.1719,839.7969 Q546.7813,839.7969 547.0469,840.0313 Q547.3125,840.2656 547.3125,840.6563 Q547.3125,841.0313 547.0469,841.2656 Q546.7813,841.5 546.1719,841.5 L541.0313,841.5 Q540.4219,841.5 540.1563,841.2656 Q539.8906,841.0313 539.8906,840.6406 Q539.8906,840.2656 540.1563,840.0313 Q540.4219,839.7969 541.0313,839.7969 L542.75,839.7969 L542.75,833.1406 L541.0313,833.1406 Q540.4219,833.1406 540.1563,832.9063 Q539.8906,832.6719 539.8906,832.2813 Q539.8906,831.9063 540.1563,831.6719 Q540.4219,831.4375 541.0313,831.4375 L546.1719,831.4375 Q546.7813,831.4375 547.0469,831.6719 Q547.3125,831.9063 547.3125,832.2813 Q547.3125,832.6719 547.0469,832.9063 Q546.7813,833.1406 546.1719,833.1406 L544.4531,833.1406 Z " fill="#000000"/><text fill="#000000" font-family="sans-serif" font-size="14" font-style="italic" lengthAdjust="spacing" textLength="81.71" x="557.5" y="842.2969">Reproduzivel</text><line style="stroke:#181818;stroke-width:0.5;" x1="529.5" x2="641.21" y1="852.5" y2="852.5"/><line style="stroke:#181818;stroke-width:0.5;" x1="529.5" x2="641.21" y1="860.5" y2="860.5"/><ellipse cx="539.5" cy="875.3105" fill="#84BE84" rx="3" ry="3" style="stroke:#038048;stroke-width:1.0;"/><text fill="#000000" font-family="sans-serif" font-size="14" lengthAdjust="spacing" textLength="73.9102" x="548.5" y="879.6074">tocar(): void</text></g><!--class MusicPlayer--><g id="elem_MusicPlayer"><rect codeLine="18" fill="#F1F1F1" height="178.3477" id="MusicPlayer" rx="2.5" ry="2.5" style="stroke:#181818;stroke-width:0.5;" width="355.1641" x="7" y="335"/><ellipse cx="142.2114" cy="351" fill="#ADD1B2" rx="11" ry="11" style="stroke:#181818;stroke-width:1.0;"/><path d="M144.9771,346.875 Q145.1333,346.6563 145.3208,346.5469 Q145.5083,346.4375 145.7271,346.4375 Q146.1021,346.4375 146.3364,346.7031 Q146.5708,346.9531 146.5708,347.5625 L146.5708,349.0156 Q146.5708,349.625 146.3364,349.8906 Q146.1021,350.1563 145.7271,350.1563 Q145.3833,350.1563 145.1802,349.9531 Q144.9771,349.7656 144.8677,349.25 Q144.8208,348.8906 144.6333,348.7031 Q144.3052,348.3281 143.6958,348.1094 Q143.0864,347.8906 142.4614,347.8906 Q141.6958,347.8906 141.0552,348.2188 Q140.4302,348.5469 139.9302,349.2969 Q139.4458,350.0469 139.4458,351.0781 L139.4458,352.1719 Q139.4458,353.4063 140.3364,354.2344 Q141.2271,355.0469 142.8208,355.0469 Q143.7583,355.0469 144.4146,354.7969 Q144.8052,354.6406 145.2271,354.2031 Q145.4927,353.9375 145.6333,353.8594 Q145.7896,353.7813 145.9927,353.7813 Q146.3208,353.7813 146.5708,354.0469 Q146.8364,354.2969 146.8364,354.6406 Q146.8364,354.9844 146.4927,355.3906 Q145.9927,355.9688 145.1958,356.2969 Q144.1177,356.75 142.8208,356.75 Q141.3052,356.75 140.1021,356.125 Q139.1177,355.625 138.4302,354.5625 Q137.7427,353.4844 137.7427,352.2031 L137.7427,351.0469 Q137.7427,349.7188 138.3521,348.5781 Q138.9771,347.4219 140.0708,346.8125 Q141.1646,346.1875 142.3989,346.1875 Q143.1333,346.1875 143.7739,346.3594 Q144.4302,346.5156 144.9771,346.875 Z " fill="#000000"/><text fill="#000000" font-family="sans-serif" font-size="14" lengthAdjust="spacing" textLength="76.2412" x="162.7114" y="356.7969">MusicPlayer</text><line style="stroke:#181818;stroke-width:0.5;" x1="8" x2="361.1641" y1="367" y2="367"/><rect fill="none" height="6" style="stroke:#C82930;stroke-width:1.0;" width="6" x="15" y="378.8105"/><text fill="#000000" font-family="sans-serif" font-size="14" lengthAdjust="spacing" textLength="172.7305" x="27" y="386.1074">static instance: MusicPlayer</text><rect fill="none" height="6" style="stroke:#C82930;stroke-width:1.0;" width="6" x="15" y="397.4316"/><text fill="#000000" font-family="sans-serif" font-size="14" lengthAdjust="spacing" textLength="67.6963" x="27" y="404.7285">volume: int</text><line style="stroke:#181818;stroke-width:0.5;" x1="8" x2="361.1641" y1="412.2422" y2="412.2422"/><ellipse cx="18" cy="427.0527" fill="#84BE84" rx="3" ry="3" style="stroke:#038048;stroke-width:1.0;"/><text fill="#000000" font-family="sans-serif" font-size="14" lengthAdjust="spacing" textLength="202.2959" x="27" y="431.3496">static getInstance(): MusicPlayer</text><ellipse cx="18" cy="445.6738" fill="#84BE84" rx="3" ry="3" style="stroke:#038048;stroke-width:1.0;"/><text fill="#000000" font-family="sans-serif" font-size="14" lengthAdjust="spacing" textLength="324.4404" x="27" y="449.9707">tocarMusica(musica: Musica, usuario: Usuario): void</text><ellipse cx="18" cy="464.2949" fill="#84BE84" rx="3" ry="3" style="stroke:#038048;stroke-width:1.0;"/><text fill="#000000" font-family="sans-serif" font-size="14" lengthAdjust="spacing" textLength="85.5928" x="27" y="468.5918">pausar(): void</text><ellipse cx="18" cy="482.916" fill="#84BE84" rx="3" ry="3" style="stroke:#038048;stroke-width:1.0;"/><text fill="#000000" font-family="sans-serif" font-size="14" lengthAdjust="spacing" textLength="75.4688" x="27" y="487.2129">parar(): void</text><ellipse cx="18" cy="501.5371" fill="#84BE84" rx="3" ry="3" style="stroke:#038048;stroke-width:1.0;"/><text fill="#000000" font-family="sans-serif" font-size="14" lengthAdjust="spacing" textLength="329.1641" x="27" y="505.834">avancarTempo(segundos: int, usuario: Usuario): void</text></g><!--class Musica--><g id="elem_Musica"><rect codeLine="29" fill="#F1F1F1" height="141.1055" id="Musica" rx="2.5" ry="2.5" style="stroke:#181818;stroke-width:0.5;" width="171.5234" x="499.5" y="573"/><ellipse cx="558.8394" cy="589" fill="#ADD1B2" rx="11" ry="11" style="stroke:#181818;stroke-width:1.0;"/><path d="M561.605,584.875 Q561.7612,584.6563 561.9487,584.5469 Q562.1362,584.4375 562.355,584.4375 Q562.73,584.4375 562.9644,584.7031 Q563.1987,584.9531 563.1987,585.5625 L563.1987,587.0156 Q563.1987,587.625 562.9644,587.8906 Q562.73,588.1563 562.355,588.1563 Q562.0112,588.1563 561.8081,587.9531 Q561.605,587.7656 561.4956,587.25 Q561.4487,586.8906 561.2612,586.7031 Q560.9331,586.3281 560.3237,586.1094 Q559.7144,585.8906 559.0894,585.8906 Q558.3237,585.8906 557.6831,586.2188 Q557.0581,586.5469 556.5581,587.2969 Q556.0737,588.0469 556.0737,589.0781 L556.0737,590.1719 Q556.0737,591.4063 556.9644,592.2344 Q557.855,593.0469 559.4487,593.0469 Q560.3862,593.0469 561.0425,592.7969 Q561.4331,592.6406 561.855,592.2031 Q562.1206,591.9375 562.2612,591.8594 Q562.4175,591.7813 562.6206,591.7813 Q562.9487,591.7813 563.1987,592.0469 Q563.4644,592.2969 563.4644,592.6406 Q563.4644,592.9844 563.1206,593.3906 Q562.6206,593.9688 561.8237,594.2969 Q560.7456,594.75 559.4487,594.75 Q557.9331,594.75 556.73,594.125 Q555.7456,593.625 555.0581,592.5625 Q554.3706,591.4844 554.3706,590.2031 L554.3706,589.0469 Q554.3706,587.7188 554.98,586.5781 Q555.605,585.4219 556.6987,584.8125 Q557.7925,584.1875 559.0269,584.1875 Q559.7612,584.1875 560.4019,584.3594 Q561.0581,584.5156 561.605,584.875 Z " fill="#000000"/><text fill="#000000" font-family="sans-serif" font-size="14" lengthAdjust="spacing" textLength="44.3447" x="579.3394" y="594.7969">Musica</text><line style="stroke:#181818;stroke-width:0.5;" x1="500.5" x2="670.0234" y1="605" y2="605"/><ellipse cx="510.5" cy="619.8105" fill="none" rx="3" ry="3" style="stroke:#038048;stroke-width:1.0;"/><text fill="#000000" font-family="sans-serif" font-size="14" lengthAdjust="spacing" textLength="73.9238" x="519.5" y="624.1074">titulo: String</text><ellipse cx="510.5" cy="638.4316" fill="none" rx="3" ry="3" style="stroke:#038048;stroke-width:1.0;"/><text fill="#000000" font-family="sans-serif" font-size="14" lengthAdjust="spacing" textLength="82.4756" x="519.5" y="642.7285">artista: String</text><ellipse cx="510.5" cy="657.0527" fill="none" rx="3" ry="3" style="stroke:#038048;stroke-width:1.0;"/><text fill="#000000" font-family="sans-serif" font-size="14" lengthAdjust="spacing" textLength="73.1582" x="519.5" y="661.3496">duracao: int</text><ellipse cx="510.5" cy="675.6738" fill="none" rx="3" ry="3" style="stroke:#038048;stroke-width:1.0;"/><text fill="#000000" font-family="sans-serif" font-size="14" lengthAdjust="spacing" textLength="145.5234" x="519.5" y="679.9707">genero: GeneroMusical</text><line style="stroke:#181818;stroke-width:0.5;" x1="500.5" x2="670.0234" y1="687.4844" y2="687.4844"/><ellipse cx="510.5" cy="702.2949" fill="#84BE84" rx="3" ry="3" style="stroke:#038048;stroke-width:1.0;"/><text fill="#000000" font-family="sans-serif" font-size="14" lengthAdjust="spacing" textLength="73.9102" x="519.5" y="706.5918">tocar(): void</text></g><!--class Playlist--><g id="elem_Playlist"><rect codeLine="38" fill="#F1F1F1" height="141.1055" id="Playlist" rx="2.5" ry="2.5" style="stroke:#181818;stroke-width:0.5;" width="376.1299" x="397.5" y="353.5"/><ellipse cx="559.1426" cy="369.5" fill="#ADD1B2" rx="11" ry="11" style="stroke:#181818;stroke-width:1.0;"/><path d="M561.9082,365.375 Q562.0645,365.1563 562.252,365.0469 Q562.4395,364.9375 562.6582,364.9375 Q563.0332,364.9375 563.2676,365.2031 Q563.502,365.4531 563.502,366.0625 L563.502,367.5156 Q563.502,368.125 563.2676,368.3906 Q563.0332,368.6563 562.6582,368.6563 Q562.3145,368.6563 562.1113,368.4531 Q561.9082,368.2656 561.7988,367.75 Q561.752,367.3906 561.5645,367.2031 Q561.2363,366.8281 560.627,366.6094 Q560.0176,366.3906 559.3926,366.3906 Q558.627,366.3906 557.9863,366.7188 Q557.3613,367.0469 556.8613,367.7969 Q556.377,368.5469 556.377,369.5781 L556.377,370.6719 Q556.377,371.9063 557.2676,372.7344 Q558.1582,373.5469 559.752,373.5469 Q560.6895,373.5469 561.3457,373.2969 Q561.7363,373.1406 562.1582,372.7031 Q562.4238,372.4375 562.5645,372.3594 Q562.7207,372.2813 562.9238,372.2813 Q563.252,372.2813 563.502,372.5469 Q563.7676,372.7969 563.7676,373.1406 Q563.7676,373.4844 563.4238,373.8906 Q562.9238,374.4688 562.127,374.7969 Q561.0488,375.25 559.752,375.25 Q558.2363,375.25 557.0332,374.625 Q556.0488,374.125 555.3613,373.0625 Q554.6738,371.9844 554.6738,370.7031 L554.6738,369.5469 Q554.6738,368.2188 555.2832,367.0781 Q555.9082,365.9219 557.002,365.3125 Q558.0957,364.6875 559.3301,364.6875 Q560.0645,364.6875 560.7051,364.8594 Q561.3613,365.0156 561.9082,365.375 Z " fill="#000000"/><text fill="#000000" font-family="sans-serif" font-size="14" lengthAdjust="spacing" textLength="44.3447" x="579.6426" y="375.2969">Playlist</text><line style="stroke:#181818;stroke-width:0.5;" x1="398.5" x2="772.6299" y1="385.5" y2="385.5"/><ellipse cx="408.5" cy="400.3105" fill="none" rx="3" ry="3" style="stroke:#038048;stroke-width:1.0;"/><text fill="#000000" font-family="sans-serif" font-size="14" lengthAdjust="spacing" textLength="79.3721" x="417.5" y="404.6074">nome: String</text><ellipse cx="408.5" cy="418.9316" fill="none" rx="3" ry="3" style="stroke:#038048;stroke-width:1.0;"/><text fill="#000000" font-family="sans-serif" font-size="14" lengthAdjust="spacing" textLength="175.0547" x="417.5" y="423.2285">musicas: ArrayList&lt;Musica&gt;</text><line style="stroke:#181818;stroke-width:0.5;" x1="398.5" x2="772.6299" y1="430.7422" y2="430.7422"/><ellipse cx="408.5" cy="445.5527" fill="#84BE84" rx="3" ry="3" style="stroke:#038048;stroke-width:1.0;"/><text fill="#000000" font-family="sans-serif" font-size="14" lengthAdjust="spacing" textLength="350.1299" x="417.5" y="449.8496">adicionarMusica(musica: Musica, usuario: Usuario): void</text><ellipse cx="408.5" cy="464.1738" fill="#84BE84" rx="3" ry="3" style="stroke:#038048;stroke-width:1.0;"/><text fill="#000000" font-family="sans-serif" font-size="14" lengthAdjust="spacing" textLength="234.9443" x="417.5" y="468.4707">removerMusica(musica: Musica): void</text><ellipse cx="408.5" cy="482.7949" fill="#84BE84" rx="3" ry="3" style="stroke:#038048;stroke-width:1.0;"/><text fill="#000000" font-family="sans-serif" font-size="14" lengthAdjust="spacing" textLength="118.2549" x="417.5" y="487.0918">tocarPlaylist(): void</text></g><!--class Catalogo--><g id="elem_Catalogo"><rect codeLine="47" fill="#F1F1F1" height="103.8633" id="Catalogo" rx="2.5" ry="2.5" style="stroke:#181818;stroke-width:0.5;" width="415.0605" x="1229" y="372"/><ellipse cx="1404.2598" cy="388" fill="#ADD1B2" rx="11" ry="11" style="stroke:#181818;stroke-width:1.0;"/><path d="M1407.0254,383.875 Q1407.1816,383.6563 1407.3691,383.5469 Q1407.5566,383.4375 1407.7754,383.4375 Q1408.1504,383.4375 1408.3848,383.7031 Q1408.6191,383.9531 1408.6191,384.5625 L1408.6191,386.0156 Q1408.6191,386.625 1408.3848,386.8906 Q1408.1504,387.1563 1407.7754,387.1563 Q1407.4316,387.1563 1407.2285,386.9531 Q1407.0254,386.7656 1406.916,386.25 Q1406.8691,385.8906 1406.6816,385.7031 Q1406.3535,385.3281 1405.7441,385.1094 Q1405.1348,384.8906 1404.5098,384.8906 Q1403.7441,384.8906 1403.1035,385.2188 Q1402.4785,385.5469 1401.9785,386.2969 Q1401.4941,387.0469 1401.4941,388.0781 L1401.4941,389.1719 Q1401.4941,390.4063 1402.3848,391.2344 Q1403.2754,392.0469 1404.8691,392.0469 Q1405.8066,392.0469 1406.4629,391.7969 Q1406.8535,391.6406 1407.2754,391.2031 Q1407.541,390.9375 1407.6816,390.8594 Q1407.8379,390.7813 1408.041,390.7813 Q1408.3691,390.7813 1408.6191,391.0469 Q1408.8848,391.2969 1408.8848,391.6406 Q1408.8848,391.9844 1408.541,392.3906 Q1408.041,392.9688 1407.2441,393.2969 Q1406.166,393.75 1404.8691,393.75 Q1403.3535,393.75 1402.1504,393.125 Q1401.166,392.625 1400.4785,391.5625 Q1399.791,390.4844 1399.791,389.2031 L1399.791,388.0469 Q1399.791,386.7188 1400.4004,385.5781 Q1401.0254,384.4219 1402.1191,383.8125 Q1403.2129,383.1875 1404.4473,383.1875 Q1405.1816,383.1875 1405.8223,383.3594 Q1406.4785,383.5156 1407.0254,383.875 Z " fill="#000000"/><text fill="#000000" font-family="sans-serif" font-size="14" lengthAdjust="spacing" textLength="56.041" x="1424.7598" y="393.7969">Catalogo</text><line style="stroke:#181818;stroke-width:0.5;" x1="1230" x2="1643.0605" y1="404" y2="404"/><rect fill="none" height="6" style="stroke:#C82930;stroke-width:1.0;" width="6" x="1237" y="415.8105"/><text fill="#000000" font-family="sans-serif" font-size="14" lengthAdjust="spacing" textLength="175.0547" x="1249" y="423.1074">musicas: ArrayList&lt;Musica&gt;</text><line style="stroke:#181818;stroke-width:0.5;" x1="1230" x2="1643.0605" y1="430.6211" y2="430.6211"/><ellipse cx="1240" cy="445.4316" fill="#84BE84" rx="3" ry="3" style="stroke:#038048;stroke-width:1.0;"/><text fill="#000000" font-family="sans-serif" font-size="14" lengthAdjust="spacing" textLength="240.4131" x="1249" y="449.7285">adicionarMusica(musica: Musica): void</text><ellipse cx="1240" cy="464.0527" fill="#84BE84" rx="3" ry="3" style="stroke:#038048;stroke-width:1.0;"/><text fill="#000000" font-family="sans-serif" font-size="14" lengthAdjust="spacing" textLength="389.0605" x="1249" y="468.3496">buscarPorGenero(genero: GeneroMusical): ArrayList&lt;Musica&gt;</text></g><!--class Usuario--><g id="elem_Usuario"><rect codeLine="54" fill="#F1F1F1" height="141.1055" id="Usuario" rx="2.5" ry="2.5" style="stroke:#181818;stroke-width:0.5;" width="361.3506" x="716" y="134"/><ellipse cx="868.3047" cy="150" fill="#A9DCDF" rx="11" ry="11" style="stroke:#181818;stroke-width:1.0;"/><path d="M870.4922,151.7656 L866.3516,151.7656 L865.9297,152.7969 L866.3516,152.7969 Q866.9609,152.7969 867.2266,153.0313 Q867.4922,153.2656 867.4922,153.6563 Q867.4922,154.0313 867.2266,154.2656 Q866.9609,154.5 866.3516,154.5 L864.0547,154.5 Q863.4453,154.5 863.1953,154.2656 Q862.9297,154.0313 862.9297,153.6406 Q862.9297,153.2656 863.2109,153.0313 Q863.4766,152.7813 864.1016,152.7969 L866.7734,146.1406 L865.6641,146.1406 Q865.0547,146.1406 864.7891,145.9063 Q864.5234,145.6719 864.5234,145.2813 Q864.5234,144.9063 864.7891,144.6719 Q865.0547,144.4375 865.6641,144.4375 L869.3359,144.4375 L872.7266,152.7969 Q873.3203,152.7969 873.5078,152.9375 Q873.8984,153.2031 873.8984,153.6563 Q873.8984,154.0313 873.6328,154.2656 Q873.3828,154.5 872.7734,154.5 L870.4766,154.5 Q869.8672,154.5 869.6016,154.2656 Q869.3359,154.0313 869.3359,153.6406 Q869.3359,153.2656 869.6016,153.0313 Q869.8672,152.7969 870.4766,152.7969 L870.8984,152.7969 L870.4922,151.7656 Z M869.7734,150.0625 L868.4141,146.6875 L867.0391,150.0625 L869.7734,150.0625 Z " fill="#000000"/><text fill="#000000" font-family="sans-serif" font-size="14" font-style="italic" lengthAdjust="spacing" textLength="48.2412" x="888.8047" y="155.7969">Usuario</text><line style="stroke:#181818;stroke-width:0.5;" x1="717" x2="1076.3506" y1="166" y2="166"/><ellipse cx="727" cy="180.8105" fill="none" rx="3" ry="3" style="stroke:#038048;stroke-width:1.0;"/><text fill="#000000" font-family="sans-serif" font-size="14" lengthAdjust="spacing" textLength="79.3721" x="736" y="185.1074">nome: String</text><line style="stroke:#181818;stroke-width:0.5;" x1="717" x2="1076.3506" y1="192.6211" y2="192.6211"/><ellipse cx="727" cy="207.4316" fill="#84BE84" rx="3" ry="3" style="stroke:#038048;stroke-width:1.0;"/><text fill="#000000" font-family="sans-serif" font-size="14" lengthAdjust="spacing" textLength="335.3506" x="736" y="211.7285">getPreferenciasMusicais(): ArrayList&lt;GeneroMusical&gt;</text><ellipse cx="727" cy="226.0527" fill="#84BE84" rx="3" ry="3" style="stroke:#038048;stroke-width:1.0;"/><text fill="#000000" font-family="sans-serif" font-size="14" lengthAdjust="spacing" textLength="148.6133" x="736" y="230.3496">getTipoUsuario(): String</text><ellipse cx="727" cy="244.6738" fill="#84BE84" rx="3" ry="3" style="stroke:#038048;stroke-width:1.0;"/><text fill="#000000" font-family="sans-serif" font-size="14" lengthAdjust="spacing" textLength="149.4336" x="736" y="248.9707">podeAvancar(): boolean</text><ellipse cx="727" cy="263.2949" fill="#84BE84" rx="3" ry="3" style="stroke:#038048;stroke-width:1.0;"/><text fill="#000000" font-family="sans-serif" font-size="14" lengthAdjust="spacing" textLength="108.9033" x="736" y="267.5918">limitePlaylist(): int</text></g><!--class UsuarioPremium--><g id="elem_UsuarioPremium"><rect codeLine="63" fill="#F1F1F1" height="103.8633" id="UsuarioPremium" rx="2.5" ry="2.5" style="stroke:#181818;stroke-width:0.5;" width="175.4336" x="809" y="372"/><ellipse cx="841.6335" cy="388" fill="#ADD1B2" rx="11" ry="11" style="stroke:#181818;stroke-width:1.0;"/><path d="M844.3991,383.875 Q844.5554,383.6563 844.7429,383.5469 Q844.9304,383.4375 845.1491,383.4375 Q845.5241,383.4375 845.7585,383.7031 Q845.9929,383.9531 845.9929,384.5625 L845.9929,386.0156 Q845.9929,386.625 845.7585,386.8906 Q845.5241,387.1563 845.1491,387.1563 Q844.8054,387.1563 844.6022,386.9531 Q844.3991,386.7656 844.2897,386.25 Q844.2429,385.8906 844.0554,385.7031 Q843.7272,385.3281 843.1179,385.1094 Q842.5085,384.8906 841.8835,384.8906 Q841.1179,384.8906 840.4772,385.2188 Q839.8522,385.5469 839.3522,386.2969 Q838.8679,387.0469 838.8679,388.0781 L838.8679,389.1719 Q838.8679,390.4063 839.7585,391.2344 Q840.6491,392.0469 842.2429,392.0469 Q843.1804,392.0469 843.8366,391.7969 Q844.2272,391.6406 844.6491,391.2031 Q844.9147,390.9375 845.0554,390.8594 Q845.2116,390.7813 845.4147,390.7813 Q845.7429,390.7813 845.9929,391.0469 Q846.2585,391.2969 846.2585,391.6406 Q846.2585,391.9844 845.9147,392.3906 Q845.4147,392.9688 844.6179,393.2969 Q843.5397,393.75 842.2429,393.75 Q840.7272,393.75 839.5241,393.125 Q838.5397,392.625 837.8522,391.5625 Q837.1647,390.4844 837.1647,389.2031 L837.1647,388.0469 Q837.1647,386.7188 837.7741,385.5781 Q838.3991,384.4219 839.4929,383.8125 Q840.5866,383.1875 841.821,383.1875 Q842.5554,383.1875 843.196,383.3594 Q843.8522,383.5156 844.3991,383.875 Z " fill="#000000"/><text fill="#000000" font-family="sans-serif" font-size="14" lengthAdjust="spacing" textLength="104.248" x="859.5521" y="393.7969">UsuarioPremium</text><line style="stroke:#181818;stroke-width:0.5;" x1="810" x2="983.4336" y1="404" y2="404"/><line style="stroke:#181818;stroke-width:0.5;" x1="810" x2="983.4336" y1="412" y2="412"/><ellipse cx="820" cy="426.8105" fill="#84BE84" rx="3" ry="3" style="stroke:#038048;stroke-width:1.0;"/><text fill="#000000" font-family="sans-serif" font-size="14" lengthAdjust="spacing" textLength="148.6133" x="829" y="431.1074">getTipoUsuario(): String</text><ellipse cx="820" cy="445.4316" fill="#84BE84" rx="3" ry="3" style="stroke:#038048;stroke-width:1.0;"/><text fill="#000000" font-family="sans-serif" font-size="14" lengthAdjust="spacing" textLength="149.4336" x="829" y="449.7285">podeAvancar(): boolean</text><ellipse cx="820" cy="464.0527" fill="#84BE84" rx="3" ry="3" style="stroke:#038048;stroke-width:1.0;"/><text fill="#000000" font-family="sans-serif" font-size="14" lengthAdjust="spacing" textLength="108.9033" x="829" y="468.3496">limitePlaylist(): int</text></g><!--class UsuarioFree--><g id="elem_UsuarioFree"><rect codeLine="69" fill="#F1F1F1" height="103.8633" id="UsuarioFree" rx="2.5" ry="2.5" style="stroke:#181818;stroke-width:0.5;" width="175.4336" x="1019" y="372"/><ellipse cx="1063.9531" cy="388" fill="#ADD1B2" rx="11" ry="11" style="stroke:#181818;stroke-width:1.0;"/><path d="M1066.7188,383.875 Q1066.875,383.6563 1067.0625,383.5469 Q1067.25,383.4375 1067.4688,383.4375 Q1067.8438,383.4375 1068.0781,383.7031 Q1068.3125,383.9531 1068.3125,384.5625 L1068.3125,386.0156 Q1068.3125,386.625 1068.0781,386.8906 Q1067.8438,387.1563 1067.4688,387.1563 Q1067.125,387.1563 1066.9219,386.9531 Q1066.7188,386.7656 1066.6094,386.25 Q1066.5625,385.8906 1066.375,385.7031 Q1066.0469,385.3281 1065.4375,385.1094 Q1064.8281,384.8906 1064.2031,384.8906 Q1063.4375,384.8906 1062.7969,385.2188 Q1062.1719,385.5469 1061.6719,386.2969 Q1061.1875,387.0469 1061.1875,388.0781 L1061.1875,389.1719 Q1061.1875,390.4063 1062.0781,391.2344 Q1062.9688,392.0469 1064.5625,392.0469 Q1065.5,392.0469 1066.1563,391.7969 Q1066.5469,391.6406 1066.9688,391.2031 Q1067.2344,390.9375 1067.375,390.8594 Q1067.5313,390.7813 1067.7344,390.7813 Q1068.0625,390.7813 1068.3125,391.0469 Q1068.5781,391.2969 1068.5781,391.6406 Q1068.5781,391.9844 1068.2344,392.3906 Q1067.7344,392.9688 1066.9375,393.2969 Q1065.8594,393.75 1064.5625,393.75 Q1063.0469,393.75 1061.8438,393.125 Q1060.8594,392.625 1060.1719,391.5625 Q1059.4844,390.4844 1059.4844,389.2031 L1059.4844,388.0469 Q1059.4844,386.7188 1060.0938,385.5781 Q1060.7188,384.4219 1061.8125,383.8125 Q1062.9063,383.1875 1064.1406,383.1875 Q1064.875,383.1875 1065.5156,383.3594 Q1066.1719,383.5156 1066.7188,383.875 Z " fill="#000000"/><text fill="#000000" font-family="sans-serif" font-size="14" lengthAdjust="spacing" textLength="77.0273" x="1084.4531" y="393.7969">UsuarioFree</text><line style="stroke:#181818;stroke-width:0.5;" x1="1020" x2="1193.4336" y1="404" y2="404"/><line style="stroke:#181818;stroke-width:0.5;" x1="1020" x2="1193.4336" y1="412" y2="412"/><ellipse cx="1030" cy="426.8105" fill="#84BE84" rx="3" ry="3" style="stroke:#038048;stroke-width:1.0;"/><text fill="#000000" font-family="sans-serif" font-size="14" lengthAdjust="spacing" textLength="148.6133" x="1039" y="431.1074">getTipoUsuario(): String</text><ellipse cx="1030" cy="445.4316" fill="#84BE84" rx="3" ry="3" style="stroke:#038048;stroke-width:1.0;"/><text fill="#000000" font-family="sans-serif" font-size="14" lengthAdjust="spacing" textLength="149.4336" x="1039" y="449.7285">podeAvancar(): boolean</text><ellipse cx="1030" cy="464.0527" fill="#84BE84" rx="3" ry="3" style="stroke:#038048;stroke-width:1.0;"/><text fill="#000000" font-family="sans-serif" font-size="14" lengthAdjust="spacing" textLength="108.9033" x="1039" y="468.3496">limitePlaylist(): int</text></g><!--class Recomendador--><g id="elem_Recomendador"><rect codeLine="76" fill="#F1F1F1" height="66.6211" id="Recomendador" rx="2.5" ry="2.5" style="stroke:#181818;stroke-width:0.5;" width="313.0889" x="740" y="7"/><ellipse cx="844.4326" cy="23" fill="#ADD1B2" rx="11" ry="11" style="stroke:#181818;stroke-width:1.0;"/><path d="M847.1982,18.875 Q847.3545,18.6563 847.542,18.5469 Q847.7295,18.4375 847.9482,18.4375 Q848.3232,18.4375 848.5576,18.7031 Q848.792,18.9531 848.792,19.5625 L848.792,21.0156 Q848.792,21.625 848.5576,21.8906 Q848.3232,22.1563 847.9482,22.1563 Q847.6045,22.1563 847.4014,21.9531 Q847.1982,21.7656 847.0889,21.25 Q847.042,20.8906 846.8545,20.7031 Q846.5264,20.3281 845.917,20.1094 Q845.3076,19.8906 844.6826,19.8906 Q843.917,19.8906 843.2764,20.2188 Q842.6514,20.5469 842.1514,21.2969 Q841.667,22.0469 841.667,23.0781 L841.667,24.1719 Q841.667,25.4063 842.5576,26.2344 Q843.4482,27.0469 845.042,27.0469 Q845.9795,27.0469 846.6357,26.7969 Q847.0264,26.6406 847.4482,26.2031 Q847.7139,25.9375 847.8545,25.8594 Q848.0107,25.7813 848.2139,25.7813 Q848.542,25.7813 848.792,26.0469 Q849.0576,26.2969 849.0576,26.6406 Q849.0576,26.9844 848.7139,27.3906 Q848.2139,27.9688 847.417,28.2969 Q846.3389,28.75 845.042,28.75 Q843.5264,28.75 842.3232,28.125 Q841.3389,27.625 840.6514,26.5625 Q839.9639,25.4844 839.9639,24.2031 L839.9639,23.0469 Q839.9639,21.7188 840.5732,20.5781 Q841.1982,19.4219 842.292,18.8125 Q843.3857,18.1875 844.6201,18.1875 Q845.3545,18.1875 845.9951,18.3594 Q846.6514,18.5156 847.1982,18.875 Z " fill="#000000"/><text fill="#000000" font-family="sans-serif" font-size="14" lengthAdjust="spacing" textLength="95.7236" x="864.9326" y="28.7969">Recomendador</text><line style="stroke:#181818;stroke-width:0.5;" x1="741" x2="1052.0889" y1="39" y2="39"/><line style="stroke:#181818;stroke-width:0.5;" x1="741" x2="1052.0889" y1="47" y2="47"/><ellipse cx="751" cy="61.8105" fill="#84BE84" rx="3" ry="3" style="stroke:#038048;stroke-width:1.0;"/><text fill="#000000" font-family="sans-serif" font-size="14" lengthAdjust="spacing" textLength="287.0889" x="760" y="66.1074">static sugerirMusica(usuario: Usuario): Musica</text></g><!--class ExcecaoArquivoInexistente--><g id="elem_ExcecaoArquivoInexistente"><rect codeLine="81" fill="#F1F1F1" height="66.6211" id="ExcecaoArquivoInexistente" rx="2.5" ry="2.5" style="stroke:#181818;stroke-width:0.5;" width="274.999" x="1112" y="171"/><ellipse cx="1160.812" cy="187" fill="#ADD1B2" rx="11" ry="11" style="stroke:#181818;stroke-width:1.0;"/><path d="M1163.5776,182.875 Q1163.7339,182.6563 1163.9214,182.5469 Q1164.1089,182.4375 1164.3276,182.4375 Q1164.7026,182.4375 1164.937,182.7031 Q1165.1714,182.9531 1165.1714,183.5625 L1165.1714,185.0156 Q1165.1714,185.625 1164.937,185.8906 Q1164.7026,186.1563 1164.3276,186.1563 Q1163.9839,186.1563 1163.7808,185.9531 Q1163.5776,185.7656 1163.4683,185.25 Q1163.4214,184.8906 1163.2339,184.7031 Q1162.9058,184.3281 1162.2964,184.1094 Q1161.687,183.8906 1161.062,183.8906 Q1160.2964,183.8906 1159.6558,184.2188 Q1159.0308,184.5469 1158.5308,185.2969 Q1158.0464,186.0469 1158.0464,187.0781 L1158.0464,188.1719 Q1158.0464,189.4063 1158.937,190.2344 Q1159.8276,191.0469 1161.4214,191.0469 Q1162.3589,191.0469 1163.0151,190.7969 Q1163.4058,190.6406 1163.8276,190.2031 Q1164.0933,189.9375 1164.2339,189.8594 Q1164.3901,189.7813 1164.5933,189.7813 Q1164.9214,189.7813 1165.1714,190.0469 Q1165.437,190.2969 1165.437,190.6406 Q1165.437,190.9844 1165.0933,191.3906 Q1164.5933,191.9688 1163.7964,192.2969 Q1162.7183,192.75 1161.4214,192.75 Q1159.9058,192.75 1158.7026,192.125 Q1157.7183,191.625 1157.0308,190.5625 Q1156.3433,189.4844 1156.3433,188.2031 L1156.3433,187.0469 Q1156.3433,185.7188 1156.9526,184.5781 Q1157.5776,183.4219 1158.6714,182.8125 Q1159.7651,182.1875 1160.9995,182.1875 Q1161.7339,182.1875 1162.3745,182.3594 Q1163.0308,182.5156 1163.5776,182.875 Z " fill="#000000"/><text fill="#000000" font-family="sans-serif" font-size="14" lengthAdjust="spacing" textLength="168.875" x="1181.312" y="192.7969">ExcecaoArquivoInexistente</text><line style="stroke:#181818;stroke-width:0.5;" x1="1113" x2="1385.999" y1="203" y2="203"/><line style="stroke:#181818;stroke-width:0.5;" x1="1113" x2="1385.999" y1="211" y2="211"/><ellipse cx="1123" cy="225.8105" fill="#84BE84" rx="3" ry="3" style="stroke:#038048;stroke-width:1.0;"/><text fill="#000000" font-family="sans-serif" font-size="14" lengthAdjust="spacing" textLength="248.999" x="1132" y="230.1074">ExcecaoArquivoInexistente(msg: String)</text></g><!--class Exception--><g id="elem_Exception"><rect fill="#F1F1F1" height="48" id="Exception" rx="2.5" ry="2.5" style="stroke:#181818;stroke-width:0.5;" width="93.4824" x="1203" y="16.5"/><ellipse cx="1218" cy="32.5" fill="#ADD1B2" rx="11" ry="11" style="stroke:#181818;stroke-width:1.0;"/><path d="M1220.7656,28.375 Q1220.9219,28.1563 1221.1094,28.0469 Q1221.2969,27.9375 1221.5156,27.9375 Q1221.8906,27.9375 1222.125,28.2031 Q1222.3594,28.4531 1222.3594,29.0625 L1222.3594,30.5156 Q1222.3594,31.125 1222.125,31.3906 Q1221.8906,31.6563 1221.5156,31.6563 Q1221.1719,31.6563 1220.9688,31.4531 Q1220.7656,31.2656 1220.6563,30.75 Q1220.6094,30.3906 1220.4219,30.2031 Q1220.0938,29.8281 1219.4844,29.6094 Q1218.875,29.3906 1218.25,29.3906 Q1217.4844,29.3906 1216.8438,29.7188 Q1216.2188,30.0469 1215.7188,30.7969 Q1215.2344,31.5469 1215.2344,32.5781 L1215.2344,33.6719 Q1215.2344,34.9063 1216.125,35.7344 Q1217.0156,36.5469 1218.6094,36.5469 Q1219.5469,36.5469 1220.2031,36.2969 Q1220.5938,36.1406 1221.0156,35.7031 Q1221.2813,35.4375 1221.4219,35.3594 Q1221.5781,35.2813 1221.7813,35.2813 Q1222.1094,35.2813 1222.3594,35.5469 Q1222.625,35.7969 1222.625,36.1406 Q1222.625,36.4844 1222.2813,36.8906 Q1221.7813,37.4688 1220.9844,37.7969 Q1219.9063,38.25 1218.6094,38.25 Q1217.0938,38.25 1215.8906,37.625 Q1214.9063,37.125 1214.2188,36.0625 Q1213.5313,34.9844 1213.5313,33.7031 L1213.5313,32.5469 Q1213.5313,31.2188 1214.1406,30.0781 Q1214.7656,28.9219 1215.8594,28.3125 Q1216.9531,27.6875 1218.1875,27.6875 Q1218.9219,27.6875 1219.5625,27.8594 Q1220.2188,28.0156 1220.7656,28.375 Z " fill="#000000"/><text fill="#000000" font-family="sans-serif" font-size="14" lengthAdjust="spacing" textLength="61.4824" x="1232" y="38.2969">Exception</text><line style="stroke:#181818;stroke-width:0.5;" x1="1204" x2="1295.4824" y1="48.5" y2="48.5"/><line style="stroke:#181818;stroke-width:0.5;" x1="1204" x2="1295.4824" y1="56.5" y2="56.5"/></g><!--class GUI--><g id="elem_GUI"><rect codeLine="86" fill="#F1F1F1" height="66.6211" id="GUI" rx="2.5" ry="2.5" style="stroke:#181818;stroke-width:0.5;" width="105.3516" x="132" y="171"/><ellipse cx="168.8079" cy="187" fill="#ADD1B2" rx="11" ry="11" style="stroke:#181818;stroke-width:1.0;"/><path d="M171.5735,182.875 Q171.7297,182.6563 171.9172,182.5469 Q172.1047,182.4375 172.3235,182.4375 Q172.6985,182.4375 172.9329,182.7031 Q173.1672,182.9531 173.1672,183.5625 L173.1672,185.0156 Q173.1672,185.625 172.9329,185.8906 Q172.6985,186.1563 172.3235,186.1563 Q171.9797,186.1563 171.7766,185.9531 Q171.5735,185.7656 171.4641,185.25 Q171.4172,184.8906 171.2297,184.7031 Q170.9016,184.3281 170.2922,184.1094 Q169.6829,183.8906 169.0579,183.8906 Q168.2922,183.8906 167.6516,184.2188 Q167.0266,184.5469 166.5266,185.2969 Q166.0422,186.0469 166.0422,187.0781 L166.0422,188.1719 Q166.0422,189.4063 166.9329,190.2344 Q167.8235,191.0469 169.4172,191.0469 Q170.3547,191.0469 171.011,190.7969 Q171.4016,190.6406 171.8235,190.2031 Q172.0891,189.9375 172.2297,189.8594 Q172.386,189.7813 172.5891,189.7813 Q172.9172,189.7813 173.1672,190.0469 Q173.4329,190.2969 173.4329,190.6406 Q173.4329,190.9844 173.0891,191.3906 Q172.5891,191.9688 171.7922,192.2969 Q170.7141,192.75 169.4172,192.75 Q167.9016,192.75 166.6985,192.125 Q165.7141,191.625 165.0266,190.5625 Q164.3391,189.4844 164.3391,188.2031 L164.3391,187.0469 Q164.3391,185.7188 164.9485,184.5781 Q165.5735,183.4219 166.6672,182.8125 Q167.761,182.1875 168.9954,182.1875 Q169.7297,182.1875 170.3704,182.3594 Q171.0266,182.5156 171.5735,182.875 Z " fill="#000000"/><text fill="#000000" font-family="sans-serif" font-size="14" lengthAdjust="spacing" textLength="24.8896" x="187.6541" y="192.7969">GUI</text><line style="stroke:#181818;stroke-width:0.5;" x1="133" x2="236.3516" y1="203" y2="203"/><line style="stroke:#181818;stroke-width:0.5;" x1="133" x2="236.3516" y1="211" y2="211"/><ellipse cx="143" cy="225.8105" fill="#84BE84" rx="3" ry="3" style="stroke:#038048;stroke-width:1.0;"/><text fill="#000000" font-family="sans-serif" font-size="14" lengthAdjust="spacing" textLength="79.3516" x="152" y="230.1074">iniciar(): void</text></g><!--reverse link Reproduzivel to Musica--><g id="link_Reproduzivel_Musica"><path d="M597.6847,802.5488 C600.9547,774.2288 599.78,750.09 598.32,714.22 " fill="none" id="Reproduzivel-backto-Musica" style="stroke:#181818;stroke-width:1.0;stroke-dasharray:7.0,7.0;"/><polygon fill="none" points="595.62,820.43,603.6451,803.237,591.7243,801.8606,595.62,820.43" style="stroke:#181818;stroke-width:1.0;"/></g><!--link Musica to Reproduzivel--><g id="link_Musica_Reproduzivel"><path codeLine="95" d="M573.39,714.22 C572.01,750.09 570.9138,774.2155 573.9938,802.5355 " fill="none" id="Musica-to-Reproduzivel" style="stroke:#181818;stroke-width:1.0;stroke-dasharray:7.0,7.0;"/><polygon fill="none" points="575.94,820.43,579.9587,801.8868,568.029,803.1842,575.94,820.43" style="stroke:#181818;stroke-width:1.0;"/></g><!--reverse link Usuario to UsuarioPremium--><g id="link_Usuario_UsuarioPremium"><path d="M883.7775,293.2051 C882.4975,324.6351 883.56,343.11 885.5,371.94 " fill="none" id="Usuario-backto-UsuarioPremium" style="stroke:#181818;stroke-width:1.0;"/><polygon fill="none" points="884.51,275.22,877.7825,292.9609,889.7726,293.4492,884.51,275.22" style="stroke:#181818;stroke-width:1.0;"/></g><!--link Usuario to UsuarioPremium--><g id="link_Usuario_UsuarioPremium"><path codeLine="92" d="M909.2,275.22 C910.55,306.65 911.4767,325.1553 909.4267,353.9853 " fill="none" id="Usuario-to-UsuarioPremium" style="stroke:#181818;stroke-width:1.0;"/><polygon fill="none" points="908.15,371.94,915.4116,354.4109,903.4418,353.5598,908.15,371.94" style="stroke:#181818;stroke-width:1.0;"/></g><!--reverse link Usuario to UsuarioFree--><g id="link_Usuario_UsuarioFree"><path d="M964.0444,288.4323 C993.1244,319.8623 1016.43,343.11 1046.2,371.94 " fill="none" id="Usuario-backto-UsuarioFree" style="stroke:#181818;stroke-width:1.0;"/><polygon fill="none" points="951.82,275.22,959.6403,292.5071,968.4485,284.3575,951.82,275.22" style="stroke:#181818;stroke-width:1.0;"/></g><!--link Usuario to UsuarioFree--><g id="link_Usuario_UsuarioFree"><path codeLine="93" d="M976.51,275.22 C1008.21,306.65 1031.0591,329.6944 1056.8491,358.5244 " fill="none" id="Usuario-to-UsuarioFree" style="stroke:#181818;stroke-width:1.0;"/><polygon fill="none" points="1068.85,371.94,1061.3209,354.5241,1052.3772,362.5248,1068.85,371.94" style="stroke:#181818;stroke-width:1.0;"/></g><!--reverse link Exception to ExcecaoArquivoInexistente--><g id="link_Exception_ExcecaoArquivoInexistente"><path d="M1249.5,82.71 C1249.5,110.53 1249.5,139.33 1249.5,170.81 " fill="none" id="Exception-backto-ExcecaoArquivoInexistente" style="stroke:#181818;stroke-width:1.0;"/><polygon fill="none" points="1249.5,64.71,1243.5,82.71,1255.5,82.71,1249.5,64.71" style="stroke:#181818;stroke-width:1.0;"/></g><!--link MusicPlayer to Musica--><g id="link_MusicPlayer_Musica"><path codeLine="91" d="M347.02,513.15 C399.24,541.47 449.7458,568.8694 494.2158,592.9894 " fill="none" id="MusicPlayer-to-Musica" style="stroke:#181818;stroke-width:1.0;"/><polygon fill="#181818" points="499.49,595.85,493.4859,588.0429,495.0949,593.4661,489.6717,595.0751,499.49,595.85" style="stroke:#181818;stroke-width:1.0;"/><text fill="#000000" font-family="sans-serif" font-size="13" lengthAdjust="spacing" textLength="5.0591" x="486.3552" y="587.7105">*</text></g><!--link Musica to GeneroMusical--><g id="link_Musica_GeneroMusical"><path codeLine="94" d="M637.33,714.22 C651.59,733.4 663.5696,749.5153 678.1896,769.1753 " fill="none" id="Musica-to-GeneroMusical" style="stroke:#181818;stroke-width:1.0;"/><polygon fill="#181818" points="681.77,773.99,679.6092,764.3811,678.7864,769.9778,673.1897,769.1549,681.77,773.99" style="stroke:#181818;stroke-width:1.0;"/></g><!--link Usuario to Playlist--><g id="link_Usuario_Playlist"><path codeLine="96" d="M796.81,275.22 C761.01,300.25 725.5766,325.031 689.8066,350.051 " fill="none" id="Usuario-to-Playlist" style="stroke:#181818;stroke-width:1.0;"/><polygon fill="#181818" points="684.89,353.49,694.5576,351.6092,688.9872,350.6241,689.9722,345.0537,684.89,353.49" style="stroke:#181818;stroke-width:1.0;"/><text fill="#000000" font-family="sans-serif" font-size="13" lengthAdjust="spacing" textLength="5.0591" x="689.8781" y="342.38">*</text></g><!--link Playlist to Musica--><g id="link_Playlist_Musica"><path codeLine="97" d="M585.5,494.72 C585.5,519.69 585.5,541.83 585.5,566.81 " fill="none" id="Playlist-to-Musica" style="stroke:#181818;stroke-width:1.0;"/><polygon fill="#181818" points="585.5,572.81,589.5,563.81,585.5,567.81,581.5,563.81,585.5,572.81" style="stroke:#181818;stroke-width:1.0;"/><text fill="#000000" font-family="sans-serif" font-size="13" lengthAdjust="spacing" textLength="5.0591" x="580.2698" y="561.6814">*</text></g><!--link Catalogo to Musica--><g id="link_Catalogo_Musica"><path codeLine="98" d="M1316.95,476.08 C1283.25,489.29 1246.28,502.68 1211.5,513 C1022.11,569.19 799.3741,608.8984 677.6041,628.4584 " fill="none" id="Catalogo-to-Musica" style="stroke:#181818;stroke-width:1.0;"/><polygon fill="#181818" points="671.68,629.41,681.2005,631.932,676.6167,628.617,679.9317,624.0332,671.68,629.41" style="stroke:#181818;stroke-width:1.0;"/><text fill="#000000" font-family="sans-serif" font-size="13" lengthAdjust="spacing" textLength="5.0591" x="679.046" y="624.5753">*</text></g><!--link Recomendador to Usuario--><g id="link_Recomendador_Usuario"><path codeLine="99" d="M896.5,74.28 C896.5,91.48 896.5,107.24 896.5,127.97 " fill="none" id="Recomendador-to-Usuario" style="stroke:#181818;stroke-width:1.0;"/><polygon fill="#181818" points="896.5,133.97,900.5,124.97,896.5,128.97,892.5,124.97,896.5,133.97" style="stroke:#181818;stroke-width:1.0;"/></g><!--link GUI to MusicPlayer--><g id="link_GUI_MusicPlayer"><path codeLine="100" d="M184.5,238.06 C184.5,263.66 184.5,294.57 184.5,328.7 " fill="none" id="GUI-to-MusicPlayer" style="stroke:#181818;stroke-width:1.0;"/><polygon fill="#181818" points="184.5,334.7,188.5,325.7,184.5,329.7,180.5,325.7,184.5,334.7" style="stroke:#181818;stroke-width:1.0;"/></g><!--SRC=[lLLBRjim4Dth54GsaTiw1p0A0uRX1cwJsh2JJNQqD15OIAJ2Zv7qSvYWYm8zGhU-M8O_HLBaBbgqtbYQ3z-RUSFHALbmKv6QIagAmqyEKYXI6SKoobG2rdSErdhfR2NvaX3yRLRp3-vXlLgx__UpcnltCB-ORRVB-Sg7pRntSR6usgm-BkUpv5kId98bro1lQGOUMEm-WKRSEuC6aKD554WYePOYDvzPBbJ2cenDDEyXidbDjCYeJ4SJiXSiznZpaYg5vqd6CrOZSryZIC1tAWcD08SVX-yYoMmuSLMkI_g0-FxiCL6QQfOHnl61Pp1f1uMGlIXDXHva6GY5f0BqCkHPTltCGDptDlLj3r7q3J7AKCd4X5pxXrYUpwofKQsQer6-iD4zmbDv1LKjKWM5uTXGn_KuHBk3jasWW6CLkI2cegGw_B8CspsZX5Lr2HM6gICICMrAHDfgLAI8tAHcs9wUDJUIPbIq-rcu8PnqX_6u-BR79PvCSeXiLQ3Rk28nBgnq7G9U2MpIJ4hwS87HRptaDFBEMSO4_qFf95HY3yEvtKXNMcGyEDzOO4RruR4KXHYeTaurTQuupNzPMfVUpYZBJqWlIpgeqcW8grS2zklmY7rAw4vf55yJJp-qxtTQuHLRIxWDzrfTXjsLTc0xXARFcLUi5W739dGEjfjevk-EzUs4A87ou2nPnJIqbR6pwghQcfqZ3wfTMHGae27bYk5oXNiDF7zPw3_Xrc7mJWByN_Ysu18ob9Bdr6tVWS7Tn81So8PMsAhAu1fdSK07xfhtz37XFWCFvpu5E6UQseNbu47AHgC51kB-cSaxm_PYoU4U2y70vtxPY5hZDMce7Sr9ArN4zeqyfVFh9KbNjRjcvIY0McCyZ75clr7T2x-1aheKnrabxM_LU3mb9wzEOk5Hpl7uwxGtSOC-Emj9sEFsgEwM3OwpCqneh_RMKHuzQfuqExR7gzb6FNj7REiB9oUsAVQz_U5y0W00]--></g></svg>