<svg xmlns="http://www.w3.org/2000/svg" xmlns:xlink="http://www.w3.org/1999/xlink" contentStyleType="text/css" height="757px" preserveAspectRatio="none" style="width:445px;height:757px;background:#FFFFFF;" version="1.1" viewBox="0 0 445 757" width="445px" zoomAndPan="magnify"><defs/><g><!--cluster Tocador de M?sica--><g id="cluster_Tocador de M&#250;sica"><rect fill="none" height="744" rx="2.5" ry="2.5" style="stroke:#181818;stroke-width:1.0;" width="273" x="166" y="7"/><text fill="#000000" font-family="sans-serif" font-size="14" font-weight="bold" lengthAdjust="spacing" textLength="130.0035" x="237.4982" y="23.9659">Tocador de M&#250;sica</text></g><g id="elem_U1"><ellipse cx="302.4327" cy="294.9865" fill="#F1F1F1" rx="120.4327" ry="26.4865" style="stroke:#181818;stroke-width:0.5;"/><text fill="#000000" font-family="sans-serif" font-size="14" lengthAdjust="spacing" textLength="202.3552" x="198.9929" y="299.4357">Criar Playlist (m&#225;x. 50 m&#250;sicas)</text></g><g id="elem_U2"><ellipse cx="302.2617" cy="380.9523" fill="#F1F1F1" rx="107.7617" ry="23.9523" style="stroke:#181818;stroke-width:0.5;"/><text fill="#000000" font-family="sans-serif" font-size="14" lengthAdjust="spacing" textLength="173.3333" x="212.595" y="385.6853">Adicionar M&#250;sica &#224; Playlist</text></g><g id="elem_U3"><ellipse cx="302.7291" cy="62.2458" fill="#F1F1F1" rx="74.2291" ry="17.2458" style="stroke:#181818;stroke-width:0.5;"/><text fill="#000000" font-family="sans-serif" font-size="14" lengthAdjust="spacing" textLength="86.4917" x="256.4832" y="66.9788">Tocar M&#250;sica</text></g><g id="elem_U4"><ellipse cx="302.2747" cy="458.8549" fill="#F1F1F1" rx="79.7747" ry="18.3549" style="stroke:#181818;stroke-width:0.5;"/><text fill="#000000" font-family="sans-serif" font-size="14" lengthAdjust="spacing" textLength="102.8016" x="247.8739" y="463.5879">Avan&#231;ar M&#250;sica</text></g><g id="elem_U5"><ellipse cx="302.6488" cy="137.2298" fill="#F1F1F1" rx="104.1488" ry="23.2298" style="stroke:#181818;stroke-width:0.5;"/><text fill="#000000" font-family="sans-serif" font-size="14" lengthAdjust="spacing" textLength="164.8353" x="217.2311" y="141.9627">Receber Recomenda&#231;&#245;es</text></g><g id="elem_U6"><ellipse cx="302.3801" cy="213.776" fill="#F1F1F1" rx="81.8801" ry="18.776" style="stroke:#181818;stroke-width:0.5;"/><text fill="#000000" font-family="sans-serif" font-size="14" lengthAdjust="spacing" textLength="108.6676" x="245.0463" y="218.509">Favoritar M&#250;sica</text></g><g id="elem_U7"><ellipse cx="302.4583" cy="538.7917" fill="#F1F1F1" rx="116.9583" ry="25.7917" style="stroke:#181818;stroke-width:0.5;"/><text fill="#000000" font-family="sans-serif" font-size="14" lengthAdjust="spacing" textLength="194.5153" x="202.2007" y="543.5246">Adicionar M&#250;sica ao Cat&#225;logo</text></g><g id="elem_U8"><ellipse cx="302.3391" cy="626.0678" fill="#F1F1F1" rx="115.8391" ry="25.5678" style="stroke:#181818;stroke-width:0.5;"/><text fill="#000000" font-family="sans-serif" font-size="14" lengthAdjust="spacing" textLength="191.9673" x="203.3555" y="630.8008">Remover M&#250;sica do Cat&#225;logo</text></g><g id="elem_U9"><ellipse cx="302.4324" cy="711.1865" fill="#F1F1F1" rx="108.9324" ry="24.1865" style="stroke:#181818;stroke-width:0.5;"/><text fill="#000000" font-family="sans-serif" font-size="14" lengthAdjust="spacing" textLength="176.0634" x="211.4007" y="715.9194">Listar M&#250;sicas do Cat&#225;logo</text></g><!--entity Free--><g id="elem_Free"><ellipse cx="63.8948" cy="150" fill="#F1F1F1" rx="8" ry="8" style="stroke:#181818;stroke-width:0.5;"/><path d="M63.8948,158 L63.8948,185 M50.8948,166 L76.8948,166 M63.8948,185 L50.8948,200 M63.8948,185 L76.8948,200 " fill="none" style="stroke:#181818;stroke-width:0.5;"/><text fill="#000000" font-family="sans-serif" font-size="14" lengthAdjust="spacing" textLength="83.7897" x="22" y="216.4659">Usu&#225;rio Free</text></g><!--entity Premium--><g id="elem_Premium"><ellipse cx="63.7708" cy="264" fill="#F1F1F1" rx="8" ry="8" style="stroke:#181818;stroke-width:0.5;"/><path d="M63.7708,272 L63.7708,299 M50.7708,280 L76.7708,280 M63.7708,299 L50.7708,314 M63.7708,299 L76.7708,314 " fill="none" style="stroke:#181818;stroke-width:0.5;"/><text fill="#000000" font-family="sans-serif" font-size="14" lengthAdjust="spacing" textLength="115.5416" x="6" y="330.4659">Usu&#225;rio Premium</text></g><!--entity Admin--><g id="elem_Admin"><ellipse cx="63.8898" cy="595" fill="#F1F1F1" rx="8" ry="8" style="stroke:#181818;stroke-width:0.5;"/><path d="M63.8898,603 L63.8898,630 M50.8898,611 L76.8898,611 M63.8898,630 L50.8898,645 M63.8898,630 L76.8898,645 " fill="none" style="stroke:#181818;stroke-width:0.5;"/><text fill="#000000" font-family="sans-serif" font-size="14" lengthAdjust="spacing" textLength="94.7797" x="16.5" y="661.4659">Administrador</text></g><!--link Free to U1--><g id="link_Free_U1"><path d="M106.1,216.12 C121.61,228.1 139.91,240.78 158,250 C177.89,260.13 200.5,268.52 221.8,275.19 " fill="none" id="Free-U1" style="stroke:#181818;stroke-width:1.0;"/></g><!--link Free to U2--><g id="link_Free_U2"><path d="M106.18,217.59 C112,224 117.51,230.9 122,238 C147.47,278.28 123.35,306.29 158,339 C172.54,352.72 191.31,361.99 210.46,368.24 " fill="none" id="Free-U2" style="stroke:#181818;stroke-width:1.0;"/></g><!--link Free to U3--><g id="link_Free_U3"><path d="M99.62,141.45 C115.84,125.16 136.34,107.46 158,96 C182.33,83.13 211.53,75.07 237.22,70.06 " fill="none" id="Free-U3" style="stroke:#181818;stroke-width:1.0;"/></g><!--link Free to U5--><g id="link_Free_U5"><path d="M106.2,173.34 C138.09,167.4 183.23,159 222.08,151.78 " fill="none" id="Free-U5" style="stroke:#181818;stroke-width:1.0;"/></g><!--link Free to U6--><g id="link_Free_U6"><path d="M106.2,186.75 C140.74,191.57 190.81,198.56 231.61,204.25 " fill="none" id="Free-U6" style="stroke:#181818;stroke-width:1.0;"/></g><!--link Premium to U1--><g id="link_Premium_U1"><path d="M122.25,295 C140.3,295 160.95,295 181.67,295 " fill="none" id="Premium-U1" style="stroke:#181818;stroke-width:1.0;"/></g><!--link Premium to U2--><g id="link_Premium_U2"><path d="M122.43,323.89 C134.06,329.25 146.31,334.56 158,339 C181.54,347.95 207.84,356.15 231.43,362.88 " fill="none" id="Premium-U2" style="stroke:#181818;stroke-width:1.0;"/></g><!--link Premium to U3--><g id="link_Premium_U3"><path d="M109.61,255.49 C114.26,249.96 118.54,244.08 122,238 C154.17,181.4 111.6,141.68 158,96 C176.7,77.59 203.43,68.47 228.76,64.16 " fill="none" id="Premium-U3" style="stroke:#181818;stroke-width:1.0;"/></g><!--link Premium to U4--><g id="link_Premium_U4"><path d="M84.45,334.58 C100.42,363.02 125.65,400.08 158,422 C179.41,436.5 206.12,445.32 230.68,450.68 " fill="none" id="Premium-U4" style="stroke:#181818;stroke-width:1.0;"/></g><!--link Premium to U5--><g id="link_Premium_U5"><path d="M107.11,255.38 C112.35,249.74 117.46,243.86 122,238 C141.28,213.12 133.03,196.17 158,177 C174.62,164.24 195.08,155.55 215.3,149.64 " fill="none" id="Premium-U5" style="stroke:#181818;stroke-width:1.0;"/></g><!--link Premium to U6--><g id="link_Premium_U6"><path d="M122.32,265.81 C133.96,260.47 146.24,255.25 158,251 C184.85,241.28 215.4,233.04 241.39,226.81 " fill="none" id="Premium-U6" style="stroke:#181818;stroke-width:1.0;"/></g><!--link Admin to U7--><g id="link_Admin_U7"><path d="M111.78,602.87 C126.4,596.04 142.71,588.85 158,583 C180.63,574.34 205.76,566.17 228.58,559.27 " fill="none" id="Admin-U7" style="stroke:#181818;stroke-width:1.0;"/></g><!--link Admin to U8--><g id="link_Admin_U8"><path d="M111.72,626 C133.26,626 159.87,626 186.28,626 " fill="none" id="Admin-U8" style="stroke:#181818;stroke-width:1.0;"/></g><!--link Admin to U9--><g id="link_Admin_U9"><path d="M111.74,649.25 C126.36,656.08 142.68,663.25 158,669 C181.58,677.84 207.89,686.02 231.48,692.76 " fill="none" id="Admin-U9" style="stroke:#181818;stroke-width:1.0;"/></g><!--SRC=[XP9DJiCm48NtFiKeArWKGTlqPrbLwWga2j433FQqM8fZoNOg4E8kTDKJi67hY-4ueQbJ9BB96_jzpsDh2jewS1gCtBqu4D8GTrANZ25tsa2siPK_6AbXPOWoG1l5nUxQa9ALYePM_teMGibIMcTGQ1CDSOMn-YWiTmL1zgHvlGk2uC5_MyanWtS6uQiiSRJ1iZGI3QmBV2j265mfVtYzWVmML0FOwvYzkKknXP0yt2UWRJ3uprDAGmnJekx5T6tKZb4lSu-bF_PDuzJqI9oUoK3uQqMbG7_qNsGRRvvwLxZNHhf-ukI_gw269Jf_AFHEDyYqtuJIU-e0SG7CKk0-l4ftWFq3cBCFnkePWC6WVksJ77PorCcyanF6sj5eqVDgc5IZf1edLPvK8JIEKoocPtfsfkS_]--></g></svg>