<svg xmlns="http://www.w3.org/2000/svg" xmlns:xlink="http://www.w3.org/1999/xlink" contentStyleType="text/css" height="848px" preserveAspectRatio="none" style="width:1451px;height:848px;background:#FFFFFF;" version="1.1" viewBox="0 0 1451 848" width="1451px" zoomAndPan="magnify"><defs/><g><!--class Musica--><g id="elem_Musica"><rect codeLine="2" fill="#F1F1F1" height="141.1055" id="Musica" rx="2.5" ry="2.5" style="stroke:#181818;stroke-width:0.5;" width="167.6338" x="628.5" y="555"/><ellipse cx="685.8945" cy="571" fill="#ADD1B2" rx="11" ry="11" style="stroke:#181818;stroke-width:1.0;"/><path d="M688.6602,566.875 Q688.8164,566.6563 689.0039,566.5469 Q689.1914,566.4375 689.4102,566.4375 Q689.7852,566.4375 690.0195,566.7031 Q690.2539,566.9531 690.2539,567.5625 L690.2539,569.0156 Q690.2539,569.625 690.0195,569.8906 Q689.7852,570.1563 689.4102,570.1563 Q689.0664,570.1563 688.8633,569.9531 Q688.6602,569.7656 688.5508,569.25 Q688.5039,568.8906 688.3164,568.7031 Q687.9883,568.3281 687.3789,568.1094 Q686.7695,567.8906 686.1445,567.8906 Q685.3789,567.8906 684.7383,568.2188 Q684.1133,568.5469 683.6133,569.2969 Q683.1289,570.0469 683.1289,571.0781 L683.1289,572.1719 Q683.1289,573.4063 684.0195,574.2344 Q684.9102,575.0469 686.5039,575.0469 Q687.4414,575.0469 688.0977,574.7969 Q688.4883,574.6406 688.9102,574.2031 Q689.1758,573.9375 689.3164,573.8594 Q689.4727,573.7813 689.6758,573.7813 Q690.0039,573.7813 690.2539,574.0469 Q690.5195,574.2969 690.5195,574.6406 Q690.5195,574.9844 690.1758,575.3906 Q689.6758,575.9688 688.8789,576.2969 Q687.8008,576.75 686.5039,576.75 Q684.9883,576.75 683.7852,576.125 Q682.8008,575.625 682.1133,574.5625 Q681.4258,573.4844 681.4258,572.2031 L681.4258,571.0469 Q681.4258,569.7188 682.0352,568.5781 Q682.6602,567.4219 683.7539,566.8125 Q684.8477,566.1875 686.082,566.1875 Q686.8164,566.1875 687.457,566.3594 Q688.1133,566.5156 688.6602,566.875 Z " fill="#000000"/><text fill="#000000" font-family="sans-serif" font-size="14" lengthAdjust="spacing" textLength="44.3447" x="706.3945" y="576.7969">Musica</text><line style="stroke:#181818;stroke-width:0.5;" x1="629.5" x2="795.1338" y1="587" y2="587"/><ellipse cx="639.5" cy="601.8105" fill="none" rx="3" ry="3" style="stroke:#038048;stroke-width:1.0;"/><text fill="#000000" font-family="sans-serif" font-size="14" lengthAdjust="spacing" textLength="70.0342" x="648.5" y="606.1074">String titulo</text><ellipse cx="639.5" cy="620.4316" fill="none" rx="3" ry="3" style="stroke:#038048;stroke-width:1.0;"/><text fill="#000000" font-family="sans-serif" font-size="14" lengthAdjust="spacing" textLength="78.5859" x="648.5" y="624.7285">String artista</text><ellipse cx="639.5" cy="639.0527" fill="none" rx="3" ry="3" style="stroke:#038048;stroke-width:1.0;"/><text fill="#000000" font-family="sans-serif" font-size="14" lengthAdjust="spacing" textLength="78.5928" x="648.5" y="643.3496">String album</text><ellipse cx="639.5" cy="657.6738" fill="none" rx="3" ry="3" style="stroke:#038048;stroke-width:1.0;"/><text fill="#000000" font-family="sans-serif" font-size="14" lengthAdjust="spacing" textLength="141.6338" x="648.5" y="661.9707">GeneroMusical genero</text><line style="stroke:#181818;stroke-width:0.5;" x1="629.5" x2="795.1338" y1="669.4844" y2="669.4844"/><ellipse cx="639.5" cy="684.2949" fill="#84BE84" rx="3" ry="3" style="stroke:#038048;stroke-width:1.0;"/><text fill="#000000" font-family="sans-serif" font-size="14" lengthAdjust="spacing" textLength="101.9238" x="648.5" y="688.5918">void reproduzir()</text></g><!--class Playlist--><g id="elem_Playlist"><rect codeLine="10" fill="#F1F1F1" height="159.7266" id="Playlist" rx="2.5" ry="2.5" style="stroke:#181818;stroke-width:0.5;" width="258.6338" x="411" y="335"/><ellipse cx="513.8945" cy="351" fill="#ADD1B2" rx="11" ry="11" style="stroke:#181818;stroke-width:1.0;"/><path d="M516.6602,346.875 Q516.8164,346.6563 517.0039,346.5469 Q517.1914,346.4375 517.4102,346.4375 Q517.7852,346.4375 518.0195,346.7031 Q518.2539,346.9531 518.2539,347.5625 L518.2539,349.0156 Q518.2539,349.625 518.0195,349.8906 Q517.7852,350.1563 517.4102,350.1563 Q517.0664,350.1563 516.8633,349.9531 Q516.6602,349.7656 516.5508,349.25 Q516.5039,348.8906 516.3164,348.7031 Q515.9883,348.3281 515.3789,348.1094 Q514.7695,347.8906 514.1445,347.8906 Q513.3789,347.8906 512.7383,348.2188 Q512.1133,348.5469 511.6133,349.2969 Q511.1289,350.0469 511.1289,351.0781 L511.1289,352.1719 Q511.1289,353.4063 512.0195,354.2344 Q512.9102,355.0469 514.5039,355.0469 Q515.4414,355.0469 516.0977,354.7969 Q516.4883,354.6406 516.9102,354.2031 Q517.1758,353.9375 517.3164,353.8594 Q517.4727,353.7813 517.6758,353.7813 Q518.0039,353.7813 518.2539,354.0469 Q518.5195,354.2969 518.5195,354.6406 Q518.5195,354.9844 518.1758,355.3906 Q517.6758,355.9688 516.8789,356.2969 Q515.8008,356.75 514.5039,356.75 Q512.9883,356.75 511.7852,356.125 Q510.8008,355.625 510.1133,354.5625 Q509.4258,353.4844 509.4258,352.2031 L509.4258,351.0469 Q509.4258,349.7188 510.0352,348.5781 Q510.6602,347.4219 511.7539,346.8125 Q512.8477,346.1875 514.082,346.1875 Q514.8164,346.1875 515.457,346.3594 Q516.1133,346.5156 516.6602,346.875 Z " fill="#000000"/><text fill="#000000" font-family="sans-serif" font-size="14" lengthAdjust="spacing" textLength="44.3447" x="534.3945" y="356.7969">Playlist</text><line style="stroke:#181818;stroke-width:0.5;" x1="412" x2="668.6338" y1="367" y2="367"/><ellipse cx="422" cy="381.8105" fill="none" rx="3" ry="3" style="stroke:#038048;stroke-width:1.0;"/><text fill="#000000" font-family="sans-serif" font-size="14" lengthAdjust="spacing" textLength="218.251" x="431" y="386.1074">static final int MAX_MUSICAS = 50</text><ellipse cx="422" cy="400.4316" fill="none" rx="3" ry="3" style="stroke:#038048;stroke-width:1.0;"/><text fill="#000000" font-family="sans-serif" font-size="14" lengthAdjust="spacing" textLength="75.4824" x="431" y="404.7285">String nome</text><ellipse cx="422" cy="419.0527" fill="none" rx="3" ry="3" style="stroke:#038048;stroke-width:1.0;"/><text fill="#000000" font-family="sans-serif" font-size="14" lengthAdjust="spacing" textLength="107.3584" x="431" y="423.3496">Musica[] musicas</text><ellipse cx="422" cy="437.6738" fill="none" rx="3" ry="3" style="stroke:#038048;stroke-width:1.0;"/><text fill="#000000" font-family="sans-serif" font-size="14" lengthAdjust="spacing" textLength="196.0615" x="431" y="441.9707">ArrayList&lt;Musica&gt; listaMusicas</text><line style="stroke:#181818;stroke-width:0.5;" x1="412" x2="668.6338" y1="449.4844" y2="449.4844"/><ellipse cx="422" cy="464.2949" fill="#84BE84" rx="3" ry="3" style="stroke:#038048;stroke-width:1.0;"/><text fill="#000000" font-family="sans-serif" font-size="14" lengthAdjust="spacing" textLength="232.6338" x="431" y="468.5918">void adicionarMusica(Musica musica)</text><ellipse cx="422" cy="482.916" fill="#84BE84" rx="3" ry="3" style="stroke:#038048;stroke-width:1.0;"/><text fill="#000000" font-family="sans-serif" font-size="14" lengthAdjust="spacing" textLength="227.165" x="431" y="487.2129">void removerMusica(Musica musica)</text></g><!--class Artista--><g id="elem_Artista"><rect codeLine="19" fill="#F1F1F1" height="85.2422" id="Artista" rx="2.5" ry="2.5" style="stroke:#181818;stroke-width:0.5;" width="148.9648" x="936" y="180.5"/><ellipse cx="986.3945" cy="196.5" fill="#ADD1B2" rx="11" ry="11" style="stroke:#181818;stroke-width:1.0;"/><path d="M989.1602,192.375 Q989.3164,192.1563 989.5039,192.0469 Q989.6914,191.9375 989.9102,191.9375 Q990.2852,191.9375 990.5195,192.2031 Q990.7539,192.4531 990.7539,193.0625 L990.7539,194.5156 Q990.7539,195.125 990.5195,195.3906 Q990.2852,195.6563 989.9102,195.6563 Q989.5664,195.6563 989.3633,195.4531 Q989.1602,195.2656 989.0508,194.75 Q989.0039,194.3906 988.8164,194.2031 Q988.4883,193.8281 987.8789,193.6094 Q987.2695,193.3906 986.6445,193.3906 Q985.8789,193.3906 985.2383,193.7188 Q984.6133,194.0469 984.1133,194.7969 Q983.6289,195.5469 983.6289,196.5781 L983.6289,197.6719 Q983.6289,198.9063 984.5195,199.7344 Q985.4102,200.5469 987.0039,200.5469 Q987.9414,200.5469 988.5977,200.2969 Q988.9883,200.1406 989.4102,199.7031 Q989.6758,199.4375 989.8164,199.3594 Q989.9727,199.2813 990.1758,199.2813 Q990.5039,199.2813 990.7539,199.5469 Q991.0195,199.7969 991.0195,200.1406 Q991.0195,200.4844 990.6758,200.8906 Q990.1758,201.4688 989.3789,201.7969 Q988.3008,202.25 987.0039,202.25 Q985.4883,202.25 984.2852,201.625 Q983.3008,201.125 982.6133,200.0625 Q981.9258,198.9844 981.9258,197.7031 L981.9258,196.5469 Q981.9258,195.2188 982.5352,194.0781 Q983.1602,192.9219 984.2539,192.3125 Q985.3477,191.6875 986.582,191.6875 Q987.3164,191.6875 987.957,191.8594 Q988.6133,192.0156 989.1602,192.375 Z " fill="#000000"/><text fill="#000000" font-family="sans-serif" font-size="14" lengthAdjust="spacing" textLength="39.6758" x="1006.8945" y="202.2969">Artista</text><line style="stroke:#181818;stroke-width:0.5;" x1="937" x2="1083.9648" y1="212.5" y2="212.5"/><ellipse cx="947" cy="227.3105" fill="none" rx="3" ry="3" style="stroke:#038048;stroke-width:1.0;"/><text fill="#000000" font-family="sans-serif" font-size="14" lengthAdjust="spacing" textLength="75.4824" x="956" y="231.6074">String nome</text><ellipse cx="947" cy="245.9316" fill="none" rx="3" ry="3" style="stroke:#038048;stroke-width:1.0;"/><text fill="#000000" font-family="sans-serif" font-size="14" lengthAdjust="spacing" textLength="122.9648" x="956" y="250.2285">List&lt;Album&gt; albuns</text><line style="stroke:#181818;stroke-width:0.5;" x1="937" x2="1083.9648" y1="257.7422" y2="257.7422"/></g><!--class Album--><g id="elem_Album"><rect codeLine="24" fill="#F1F1F1" height="85.2422" id="Album" rx="2.5" ry="2.5" style="stroke:#181818;stroke-width:0.5;" width="163.7168" x="776.5" y="372.5"/><ellipse cx="834.2671" cy="388.5" fill="#ADD1B2" rx="11" ry="11" style="stroke:#181818;stroke-width:1.0;"/><path d="M837.0327,384.375 Q837.189,384.1563 837.3765,384.0469 Q837.564,383.9375 837.7827,383.9375 Q838.1577,383.9375 838.3921,384.2031 Q838.6265,384.4531 838.6265,385.0625 L838.6265,386.5156 Q838.6265,387.125 838.3921,387.3906 Q838.1577,387.6563 837.7827,387.6563 Q837.439,387.6563 837.2358,387.4531 Q837.0327,387.2656 836.9233,386.75 Q836.8765,386.3906 836.689,386.2031 Q836.3608,385.8281 835.7515,385.6094 Q835.1421,385.3906 834.5171,385.3906 Q833.7515,385.3906 833.1108,385.7188 Q832.4858,386.0469 831.9858,386.7969 Q831.5015,387.5469 831.5015,388.5781 L831.5015,389.6719 Q831.5015,390.9063 832.3921,391.7344 Q833.2827,392.5469 834.8765,392.5469 Q835.814,392.5469 836.4702,392.2969 Q836.8608,392.1406 837.2827,391.7031 Q837.5483,391.4375 837.689,391.3594 Q837.8452,391.2813 838.0483,391.2813 Q838.3765,391.2813 838.6265,391.5469 Q838.8921,391.7969 838.8921,392.1406 Q838.8921,392.4844 838.5483,392.8906 Q838.0483,393.4688 837.2515,393.7969 Q836.1733,394.25 834.8765,394.25 Q833.3608,394.25 832.1577,393.625 Q831.1733,393.125 830.4858,392.0625 Q829.7983,390.9844 829.7983,389.7031 L829.7983,388.5469 Q829.7983,387.2188 830.4077,386.0781 Q831.0327,384.9219 832.1265,384.3125 Q833.2202,383.6875 834.4546,383.6875 Q835.189,383.6875 835.8296,383.8594 Q836.4858,384.0156 837.0327,384.375 Z " fill="#000000"/><text fill="#000000" font-family="sans-serif" font-size="14" lengthAdjust="spacing" textLength="39.6826" x="854.7671" y="394.2969">Album</text><line style="stroke:#181818;stroke-width:0.5;" x1="777.5" x2="939.2168" y1="404.5" y2="404.5"/><ellipse cx="787.5" cy="419.3105" fill="none" rx="3" ry="3" style="stroke:#038048;stroke-width:1.0;"/><text fill="#000000" font-family="sans-serif" font-size="14" lengthAdjust="spacing" textLength="75.4824" x="796.5" y="423.6074">String nome</text><ellipse cx="787.5" cy="437.9316" fill="none" rx="3" ry="3" style="stroke:#038048;stroke-width:1.0;"/><text fill="#000000" font-family="sans-serif" font-size="14" lengthAdjust="spacing" textLength="137.7168" x="796.5" y="442.2285">List&lt;Musica&gt; musicas</text><line style="stroke:#181818;stroke-width:0.5;" x1="777.5" x2="939.2168" y1="449.7422" y2="449.7422"/></g><!--class SpotifyAPI--><g id="elem_SpotifyAPI"><rect codeLine="29" fill="#F1F1F1" height="159.7266" id="SpotifyAPI" rx="2.5" ry="2.5" style="stroke:#181818;stroke-width:0.5;" width="355.9023" x="975.5" y="335"/><ellipse cx="1116.5186" cy="351" fill="#ADD1B2" rx="11" ry="11" style="stroke:#181818;stroke-width:1.0;"/><path d="M1119.2842,346.875 Q1119.4404,346.6563 1119.6279,346.5469 Q1119.8154,346.4375 1120.0342,346.4375 Q1120.4092,346.4375 1120.6436,346.7031 Q1120.8779,346.9531 1120.8779,347.5625 L1120.8779,349.0156 Q1120.8779,349.625 1120.6436,349.8906 Q1120.4092,350.1563 1120.0342,350.1563 Q1119.6904,350.1563 1119.4873,349.9531 Q1119.2842,349.7656 1119.1748,349.25 Q1119.1279,348.8906 1118.9404,348.7031 Q1118.6123,348.3281 1118.0029,348.1094 Q1117.3936,347.8906 1116.7686,347.8906 Q1116.0029,347.8906 1115.3623,348.2188 Q1114.7373,348.5469 1114.2373,349.2969 Q1113.7529,350.0469 1113.7529,351.0781 L1113.7529,352.1719 Q1113.7529,353.4063 1114.6436,354.2344 Q1115.5342,355.0469 1117.1279,355.0469 Q1118.0654,355.0469 1118.7217,354.7969 Q1119.1123,354.6406 1119.5342,354.2031 Q1119.7998,353.9375 1119.9404,353.8594 Q1120.0967,353.7813 1120.2998,353.7813 Q1120.6279,353.7813 1120.8779,354.0469 Q1121.1436,354.2969 1121.1436,354.6406 Q1121.1436,354.9844 1120.7998,355.3906 Q1120.2998,355.9688 1119.5029,356.2969 Q1118.4248,356.75 1117.1279,356.75 Q1115.6123,356.75 1114.4092,356.125 Q1113.4248,355.625 1112.7373,354.5625 Q1112.0498,353.4844 1112.0498,352.2031 L1112.0498,351.0469 Q1112.0498,349.7188 1112.6592,348.5781 Q1113.2842,347.4219 1114.3779,346.8125 Q1115.4717,346.1875 1116.7061,346.1875 Q1117.4404,346.1875 1118.0811,346.3594 Q1118.7373,346.5156 1119.2842,346.875 Z " fill="#000000"/><text fill="#000000" font-family="sans-serif" font-size="14" lengthAdjust="spacing" textLength="65.3652" x="1137.0186" y="356.7969">SpotifyAPI</text><line style="stroke:#181818;stroke-width:0.5;" x1="976.5" x2="1330.4023" y1="367" y2="367"/><rect fill="none" height="6" style="stroke:#C82930;stroke-width:1.0;" width="6" x="983.5" y="378.8105"/><text fill="#000000" font-family="sans-serif" font-size="14" lengthAdjust="spacing" textLength="161.0752" x="995.5" y="386.1074">static SpotifyAPI instancia</text><rect fill="none" height="6" style="stroke:#C82930;stroke-width:1.0;" width="6" x="983.5" y="397.4316"/><text fill="#000000" font-family="sans-serif" font-size="14" lengthAdjust="spacing" textLength="326.2451" x="995.5" y="404.7285">static final String API_URL = "https://api.spotify.com"</text><line style="stroke:#181818;stroke-width:0.5;" x1="976.5" x2="1330.4023" y1="412.2422" y2="412.2422"/><rect fill="#F24D5C" height="6" style="stroke:#C82930;stroke-width:1.0;" width="6" x="983.5" y="424.0527"/><text fill="#000000" font-family="sans-serif" font-size="14" lengthAdjust="spacing" textLength="74.6895" x="995.5" y="431.3496">SpotifyAPI()</text><ellipse cx="986.5" cy="445.6738" fill="#84BE84" rx="3" ry="3" style="stroke:#038048;stroke-width:1.0;"/><text fill="#000000" font-family="sans-serif" font-size="14" lengthAdjust="spacing" textLength="187.5303" x="995.5" y="449.9707">static SpotifyAPI getInstance()</text><ellipse cx="986.5" cy="464.2949" fill="#84BE84" rx="3" ry="3" style="stroke:#038048;stroke-width:1.0;"/><text fill="#000000" font-family="sans-serif" font-size="14" lengthAdjust="spacing" textLength="329.9023" x="995.5" y="468.5918">Musica buscarMusica(String nome) throws Exception</text><ellipse cx="986.5" cy="482.916" fill="#84BE84" rx="3" ry="3" style="stroke:#038048;stroke-width:1.0;"/><text fill="#000000" font-family="sans-serif" font-size="14" lengthAdjust="spacing" textLength="238.8477" x="995.5" y="487.2129">void reproduzirMusica(Musica musica)</text></g><!--class GUI--><g id="elem_GUI"><rect codeLine="38" fill="#F1F1F1" height="103.8633" id="GUI" rx="2.5" ry="2.5" style="stroke:#181818;stroke-width:0.5;" width="345.0195" x="556" y="171"/><ellipse cx="711.8149" cy="187" fill="#ADD1B2" rx="11" ry="11" style="stroke:#181818;stroke-width:1.0;"/><path d="M714.5806,182.875 Q714.7368,182.6563 714.9243,182.5469 Q715.1118,182.4375 715.3306,182.4375 Q715.7056,182.4375 715.9399,182.7031 Q716.1743,182.9531 716.1743,183.5625 L716.1743,185.0156 Q716.1743,185.625 715.9399,185.8906 Q715.7056,186.1563 715.3306,186.1563 Q714.9868,186.1563 714.7837,185.9531 Q714.5806,185.7656 714.4712,185.25 Q714.4243,184.8906 714.2368,184.7031 Q713.9087,184.3281 713.2993,184.1094 Q712.6899,183.8906 712.0649,183.8906 Q711.2993,183.8906 710.6587,184.2188 Q710.0337,184.5469 709.5337,185.2969 Q709.0493,186.0469 709.0493,187.0781 L709.0493,188.1719 Q709.0493,189.4063 709.9399,190.2344 Q710.8306,191.0469 712.4243,191.0469 Q713.3618,191.0469 714.0181,190.7969 Q714.4087,190.6406 714.8306,190.2031 Q715.0962,189.9375 715.2368,189.8594 Q715.3931,189.7813 715.5962,189.7813 Q715.9243,189.7813 716.1743,190.0469 Q716.4399,190.2969 716.4399,190.6406 Q716.4399,190.9844 716.0962,191.3906 Q715.5962,191.9688 714.7993,192.2969 Q713.7212,192.75 712.4243,192.75 Q710.9087,192.75 709.7056,192.125 Q708.7212,191.625 708.0337,190.5625 Q707.3462,189.4844 707.3462,188.2031 L707.3462,187.0469 Q707.3462,185.7188 707.9556,184.5781 Q708.5806,183.4219 709.6743,182.8125 Q710.7681,182.1875 712.0024,182.1875 Q712.7368,182.1875 713.3774,182.3594 Q714.0337,182.5156 714.5806,182.875 Z " fill="#000000"/><text fill="#000000" font-family="sans-serif" font-size="14" lengthAdjust="spacing" textLength="24.8896" x="732.3149" y="192.7969">GUI</text><line style="stroke:#181818;stroke-width:0.5;" x1="557" x2="900.0195" y1="203" y2="203"/><line style="stroke:#181818;stroke-width:0.5;" x1="557" x2="900.0195" y1="211" y2="211"/><ellipse cx="567" cy="225.8105" fill="#84BE84" rx="3" ry="3" style="stroke:#038048;stroke-width:1.0;"/><text fill="#000000" font-family="sans-serif" font-size="14" lengthAdjust="spacing" textLength="167.2686" x="576" y="230.1074">void mostrarTelaPrincipal()</text><ellipse cx="567" cy="244.4316" fill="#84BE84" rx="3" ry="3" style="stroke:#038048;stroke-width:1.0;"/><text fill="#000000" font-family="sans-serif" font-size="14" lengthAdjust="spacing" textLength="319.0195" x="576" y="248.7285">void exibirResultadosBusca(List&lt;Musica&gt; musicas)</text><ellipse cx="567" cy="263.0527" fill="#84BE84" rx="3" ry="3" style="stroke:#038048;stroke-width:1.0;"/><text fill="#000000" font-family="sans-serif" font-size="14" lengthAdjust="spacing" textLength="260.668" x="576" y="267.3496">void atualizarReproducao(Musica musica)</text></g><!--class Sistema--><g id="elem_Sistema"><rect codeLine="44" fill="#F1F1F1" height="103.8633" id="Sistema" rx="2.5" ry="2.5" style="stroke:#181818;stroke-width:0.5;" width="198.7373" x="844" y="7"/><ellipse cx="913.8325" cy="23" fill="#ADD1B2" rx="11" ry="11" style="stroke:#181818;stroke-width:1.0;"/><path d="M916.5981,18.875 Q916.7544,18.6563 916.9419,18.5469 Q917.1294,18.4375 917.3481,18.4375 Q917.7231,18.4375 917.9575,18.7031 Q918.1919,18.9531 918.1919,19.5625 L918.1919,21.0156 Q918.1919,21.625 917.9575,21.8906 Q917.7231,22.1563 917.3481,22.1563 Q917.0044,22.1563 916.8013,21.9531 Q916.5981,21.7656 916.4888,21.25 Q916.4419,20.8906 916.2544,20.7031 Q915.9263,20.3281 915.3169,20.1094 Q914.7075,19.8906 914.0825,19.8906 Q913.3169,19.8906 912.6763,20.2188 Q912.0513,20.5469 911.5513,21.2969 Q911.0669,22.0469 911.0669,23.0781 L911.0669,24.1719 Q911.0669,25.4063 911.9575,26.2344 Q912.8481,27.0469 914.4419,27.0469 Q915.3794,27.0469 916.0356,26.7969 Q916.4263,26.6406 916.8481,26.2031 Q917.1138,25.9375 917.2544,25.8594 Q917.4106,25.7813 917.6138,25.7813 Q917.9419,25.7813 918.1919,26.0469 Q918.4575,26.2969 918.4575,26.6406 Q918.4575,26.9844 918.1138,27.3906 Q917.6138,27.9688 916.8169,28.2969 Q915.7388,28.75 914.4419,28.75 Q912.9263,28.75 911.7231,28.125 Q910.7388,27.625 910.0513,26.5625 Q909.3638,25.4844 909.3638,24.2031 L909.3638,23.0469 Q909.3638,21.7188 909.9731,20.5781 Q910.5981,19.4219 911.6919,18.8125 Q912.7856,18.1875 914.02,18.1875 Q914.7544,18.1875 915.395,18.3594 Q916.0513,18.5156 916.5981,18.875 Z " fill="#000000"/><text fill="#000000" font-family="sans-serif" font-size="14" lengthAdjust="spacing" textLength="50.5723" x="934.3325" y="28.7969">Sistema</text><line style="stroke:#181818;stroke-width:0.5;" x1="845" x2="1041.7373" y1="39" y2="39"/><rect fill="none" height="6" style="stroke:#C82930;stroke-width:1.0;" width="6" x="852" y="50.8105"/><text fill="#000000" font-family="sans-serif" font-size="14" lengthAdjust="spacing" textLength="146.2822" x="864" y="58.1074">static Sistema instancia</text><line style="stroke:#181818;stroke-width:0.5;" x1="845" x2="1041.7373" y1="65.6211" y2="65.6211"/><ellipse cx="855" cy="80.4316" fill="#84BE84" rx="3" ry="3" style="stroke:#038048;stroke-width:1.0;"/><text fill="#000000" font-family="sans-serif" font-size="14" lengthAdjust="spacing" textLength="172.7373" x="864" y="84.7285">static Sistema getInstance()</text><ellipse cx="855" cy="99.0527" fill="#84BE84" rx="3" ry="3" style="stroke:#038048;stroke-width:1.0;"/><text fill="#000000" font-family="sans-serif" font-size="14" lengthAdjust="spacing" textLength="75.4619" x="864" y="103.3496">void iniciar()</text></g><!--class Reprodutivel--><g id="elem_Reprodutivel"><rect codeLine="50" fill="#F1F1F1" height="85.2422" id="Reprodutivel" rx="2.5" ry="2.5" style="stroke:#181818;stroke-width:0.5;" width="127.9238" x="568.5" y="756"/><ellipse cx="591.2959" cy="772" fill="#B4A7E5" rx="11" ry="11" style="stroke:#181818;stroke-width:1.0;"/><path d="M592.249,768.6406 L592.249,775.2969 L593.9678,775.2969 Q594.5771,775.2969 594.8428,775.5313 Q595.1084,775.7656 595.1084,776.1563 Q595.1084,776.5313 594.8428,776.7656 Q594.5771,777 593.9678,777 L588.8271,777 Q588.2178,777 587.9521,776.7656 Q587.6865,776.5313 587.6865,776.1406 Q587.6865,775.7656 587.9521,775.5313 Q588.2178,775.2969 588.8271,775.2969 L590.5459,775.2969 L590.5459,768.6406 L588.8271,768.6406 Q588.2178,768.6406 587.9521,768.4063 Q587.6865,768.1719 587.6865,767.7813 Q587.6865,767.4063 587.9521,767.1719 Q588.2178,766.9375 588.8271,766.9375 L593.9678,766.9375 Q594.5771,766.9375 594.8428,767.1719 Q595.1084,767.4063 595.1084,767.7813 Q595.1084,768.1719 594.8428,768.4063 Q594.5771,768.6406 593.9678,768.6406 L592.249,768.6406 Z " fill="#000000"/><text fill="#000000" font-family="sans-serif" font-size="14" font-style="italic" lengthAdjust="spacing" textLength="78.5996" x="607.0283" y="777.7969">Reprodutivel</text><line style="stroke:#181818;stroke-width:0.5;" x1="569.5" x2="695.4238" y1="788" y2="788"/><line style="stroke:#181818;stroke-width:0.5;" x1="569.5" x2="695.4238" y1="796" y2="796"/><ellipse cx="579.5" cy="810.8105" fill="#84BE84" rx="3" ry="3" style="stroke:#038048;stroke-width:1.0;"/><text fill="#000000" font-family="sans-serif" font-size="14" lengthAdjust="spacing" textLength="101.9238" x="588.5" y="815.1074">void reproduzir()</text><ellipse cx="579.5" cy="829.4316" fill="#84BE84" rx="3" ry="3" style="stroke:#038048;stroke-width:1.0;"/><text fill="#000000" font-family="sans-serif" font-size="14" lengthAdjust="spacing" textLength="81.7031" x="588.5" y="833.7285">void pausar()</text></g><!--class Usuario--><g id="elem_Usuario"><rect codeLine="55" fill="#F1F1F1" height="103.8633" id="Usuario" rx="2.5" ry="2.5" style="stroke:#181818;stroke-width:0.5;" width="228.2822" x="147.5" y="363"/><ellipse cx="233.2705" cy="379" fill="#ADD1B2" rx="11" ry="11" style="stroke:#181818;stroke-width:1.0;"/><path d="M236.0361,374.875 Q236.1924,374.6563 236.3799,374.5469 Q236.5674,374.4375 236.7861,374.4375 Q237.1611,374.4375 237.3955,374.7031 Q237.6299,374.9531 237.6299,375.5625 L237.6299,377.0156 Q237.6299,377.625 237.3955,377.8906 Q237.1611,378.1563 236.7861,378.1563 Q236.4424,378.1563 236.2393,377.9531 Q236.0361,377.7656 235.9268,377.25 Q235.8799,376.8906 235.6924,376.7031 Q235.3643,376.3281 234.7549,376.1094 Q234.1455,375.8906 233.5205,375.8906 Q232.7549,375.8906 232.1143,376.2188 Q231.4893,376.5469 230.9893,377.2969 Q230.5049,378.0469 230.5049,379.0781 L230.5049,380.1719 Q230.5049,381.4063 231.3955,382.2344 Q232.2861,383.0469 233.8799,383.0469 Q234.8174,383.0469 235.4736,382.7969 Q235.8643,382.6406 236.2861,382.2031 Q236.5518,381.9375 236.6924,381.8594 Q236.8486,381.7813 237.0518,381.7813 Q237.3799,381.7813 237.6299,382.0469 Q237.8955,382.2969 237.8955,382.6406 Q237.8955,382.9844 237.5518,383.3906 Q237.0518,383.9688 236.2549,384.2969 Q235.1768,384.75 233.8799,384.75 Q232.3643,384.75 231.1611,384.125 Q230.1768,383.625 229.4893,382.5625 Q228.8018,381.4844 228.8018,380.2031 L228.8018,379.0469 Q228.8018,377.7188 229.4111,376.5781 Q230.0361,375.4219 231.1299,374.8125 Q232.2236,374.1875 233.458,374.1875 Q234.1924,374.1875 234.833,374.3594 Q235.4893,374.5156 236.0361,374.875 Z " fill="#000000"/><text fill="#000000" font-family="sans-serif" font-size="14" lengthAdjust="spacing" textLength="48.2412" x="253.7705" y="384.7969">Usuario</text><line style="stroke:#181818;stroke-width:0.5;" x1="148.5" x2="374.7822" y1="395" y2="395"/><ellipse cx="158.5" cy="409.8105" fill="none" rx="3" ry="3" style="stroke:#038048;stroke-width:1.0;"/><text fill="#000000" font-family="sans-serif" font-size="14" lengthAdjust="spacing" textLength="75.4824" x="167.5" y="414.1074">String nome</text><line style="stroke:#181818;stroke-width:0.5;" x1="148.5" x2="374.7822" y1="421.6211" y2="421.6211"/><ellipse cx="158.5" cy="436.4316" fill="#84BE84" rx="3" ry="3" style="stroke:#038048;stroke-width:1.0;"/><text fill="#000000" font-family="sans-serif" font-size="14" lengthAdjust="spacing" textLength="185.9443" x="167.5" y="440.7285">void criarPlaylist(String nome)</text><ellipse cx="158.5" cy="455.0527" fill="#84BE84" rx="3" ry="3" style="stroke:#038048;stroke-width:1.0;"/><text fill="#000000" font-family="sans-serif" font-size="14" lengthAdjust="spacing" textLength="202.2822" x="167.5" y="459.3496">abstract void visualizarPlaylists()</text></g><!--class UsuarioPremium--><g id="elem_UsuarioPremium"><rect codeLine="61" fill="#F1F1F1" height="85.2422" id="UsuarioPremium" rx="2.5" ry="2.5" style="stroke:#181818;stroke-width:0.5;" width="174.5928" x="7" y="583"/><ellipse cx="39.2551" cy="599" fill="#ADD1B2" rx="11" ry="11" style="stroke:#181818;stroke-width:1.0;"/><path d="M42.0208,594.875 Q42.177,594.6563 42.3645,594.5469 Q42.552,594.4375 42.7708,594.4375 Q43.1458,594.4375 43.3801,594.7031 Q43.6145,594.9531 43.6145,595.5625 L43.6145,597.0156 Q43.6145,597.625 43.3801,597.8906 Q43.1458,598.1563 42.7708,598.1563 Q42.427,598.1563 42.2239,597.9531 Q42.0208,597.7656 41.9114,597.25 Q41.8645,596.8906 41.677,596.7031 Q41.3489,596.3281 40.7395,596.1094 Q40.1301,595.8906 39.5051,595.8906 Q38.7395,595.8906 38.0989,596.2188 Q37.4739,596.5469 36.9739,597.2969 Q36.4895,598.0469 36.4895,599.0781 L36.4895,600.1719 Q36.4895,601.4063 37.3801,602.2344 Q38.2708,603.0469 39.8645,603.0469 Q40.802,603.0469 41.4583,602.7969 Q41.8489,602.6406 42.2708,602.2031 Q42.5364,601.9375 42.677,601.8594 Q42.8333,601.7813 43.0364,601.7813 Q43.3645,601.7813 43.6145,602.0469 Q43.8801,602.2969 43.8801,602.6406 Q43.8801,602.9844 43.5364,603.3906 Q43.0364,603.9688 42.2395,604.2969 Q41.1614,604.75 39.8645,604.75 Q38.3489,604.75 37.1458,604.125 Q36.1614,603.625 35.4739,602.5625 Q34.7864,601.4844 34.7864,600.2031 L34.7864,599.0469 Q34.7864,597.7188 35.3958,596.5781 Q36.0208,595.4219 37.1145,594.8125 Q38.2083,594.1875 39.4426,594.1875 Q40.177,594.1875 40.8176,594.3594 Q41.4739,594.5156 42.0208,594.875 Z " fill="#000000"/><text fill="#000000" font-family="sans-serif" font-size="14" lengthAdjust="spacing" textLength="104.248" x="57.0896" y="604.7969">UsuarioPremium</text><line style="stroke:#181818;stroke-width:0.5;" x1="8" x2="180.5928" y1="615" y2="615"/><ellipse cx="18" cy="629.8105" fill="none" rx="3" ry="3" style="stroke:#038048;stroke-width:1.0;"/><text fill="#000000" font-family="sans-serif" font-size="14" lengthAdjust="spacing" textLength="102.6895" x="27" y="634.1074">int limitePlaylists</text><line style="stroke:#181818;stroke-width:0.5;" x1="8" x2="180.5928" y1="641.6211" y2="641.6211"/><ellipse cx="18" cy="656.4316" fill="#84BE84" rx="3" ry="3" style="stroke:#038048;stroke-width:1.0;"/><text fill="#000000" font-family="sans-serif" font-size="14" lengthAdjust="spacing" textLength="148.5928" x="27" y="660.7285">void visualizarPlaylists()</text></g><!--class UsuarioGratuito--><g id="elem_UsuarioGratuito"><rect codeLine="66" fill="#F1F1F1" height="85.2422" id="UsuarioGratuito" rx="2.5" ry="2.5" style="stroke:#181818;stroke-width:0.5;" width="194.8203" x="217" y="583"/><ellipse cx="261.1507" cy="599" fill="#ADD1B2" rx="11" ry="11" style="stroke:#181818;stroke-width:1.0;"/><path d="M263.9163,594.875 Q264.0726,594.6563 264.2601,594.5469 Q264.4476,594.4375 264.6663,594.4375 Q265.0413,594.4375 265.2757,594.7031 Q265.5101,594.9531 265.5101,595.5625 L265.5101,597.0156 Q265.5101,597.625 265.2757,597.8906 Q265.0413,598.1563 264.6663,598.1563 Q264.3226,598.1563 264.1194,597.9531 Q263.9163,597.7656 263.8069,597.25 Q263.7601,596.8906 263.5726,596.7031 Q263.2444,596.3281 262.6351,596.1094 Q262.0257,595.8906 261.4007,595.8906 Q260.6351,595.8906 259.9944,596.2188 Q259.3694,596.5469 258.8694,597.2969 Q258.3851,598.0469 258.3851,599.0781 L258.3851,600.1719 Q258.3851,601.4063 259.2757,602.2344 Q260.1663,603.0469 261.7601,603.0469 Q262.6976,603.0469 263.3538,602.7969 Q263.7444,602.6406 264.1663,602.2031 Q264.4319,601.9375 264.5726,601.8594 Q264.7288,601.7813 264.9319,601.7813 Q265.2601,601.7813 265.5101,602.0469 Q265.7757,602.2969 265.7757,602.6406 Q265.7757,602.9844 265.4319,603.3906 Q264.9319,603.9688 264.1351,604.2969 Q263.0569,604.75 261.7601,604.75 Q260.2444,604.75 259.0413,604.125 Q258.0569,603.625 257.3694,602.5625 Q256.6819,601.4844 256.6819,600.2031 L256.6819,599.0469 Q256.6819,597.7188 257.2913,596.5781 Q257.9163,595.4219 259.0101,594.8125 Q260.1038,594.1875 261.3382,594.1875 Q262.0726,594.1875 262.7132,594.3594 Q263.3694,594.5156 263.9163,594.875 Z " fill="#000000"/><text fill="#000000" font-family="sans-serif" font-size="14" lengthAdjust="spacing" textLength="98.041" x="281.6286" y="604.7969">UsuarioGratuito</text><line style="stroke:#181818;stroke-width:0.5;" x1="218" x2="410.8203" y1="615" y2="615"/><ellipse cx="228" cy="629.8105" fill="none" rx="3" ry="3" style="stroke:#038048;stroke-width:1.0;"/><text fill="#000000" font-family="sans-serif" font-size="14" lengthAdjust="spacing" textLength="168.8203" x="237" y="634.1074">int limiteMusicasPorPlaylist</text><line style="stroke:#181818;stroke-width:0.5;" x1="218" x2="410.8203" y1="641.6211" y2="641.6211"/><ellipse cx="228" cy="656.4316" fill="#84BE84" rx="3" ry="3" style="stroke:#038048;stroke-width:1.0;"/><text fill="#000000" font-family="sans-serif" font-size="14" lengthAdjust="spacing" textLength="148.5928" x="237" y="660.7285">void visualizarPlaylists()</text></g><!--class GeneroMusical--><g id="elem_GeneroMusical"><rect codeLine="71" fill="#F1F1F1" height="66.6211" id="GeneroMusical" rx="2.5" ry="2.5" style="stroke:#181818;stroke-width:0.5;" width="366.7373" x="1078" y="25.5"/><ellipse cx="1210.043" cy="41.5" fill="#EB937F" rx="11" ry="11" style="stroke:#181818;stroke-width:1.0;"/><path d="M1208.9023,42.2969 L1208.9023,44.7969 L1213.2305,44.7969 L1213.2305,43.875 Q1213.2305,43.2656 1213.4648,43 Q1213.7148,42.7344 1214.0898,42.7344 Q1214.4648,42.7344 1214.6992,43 Q1214.9336,43.2656 1214.9336,43.875 L1214.9336,46.5 L1206.9336,46.5 Q1206.3086,46.5 1206.043,46.2656 Q1205.793,46.0313 1205.793,45.6406 Q1205.793,45.2656 1206.0586,45.0313 Q1206.3242,44.7969 1206.9336,44.7969 L1207.1992,44.7969 L1207.1992,38.1406 L1206.9336,38.1406 Q1206.3086,38.1406 1206.043,37.9063 Q1205.793,37.6719 1205.793,37.2813 Q1205.793,36.9063 1206.043,36.6719 Q1206.3086,36.4375 1206.9336,36.4375 L1214.5586,36.4375 L1214.5586,39.0313 Q1214.5586,39.6406 1214.3242,39.9063 Q1214.1055,40.1563 1213.7148,40.1563 Q1213.3398,40.1563 1213.1055,39.9063 Q1212.8711,39.6406 1212.8711,39.0313 L1212.8711,38.1406 L1208.9023,38.1406 L1208.9023,40.5938 L1210.3867,40.5938 Q1210.3867,39.9375 1210.5117,39.75 Q1210.7773,39.3438 1211.2461,39.3438 Q1211.6211,39.3438 1211.8555,39.6094 Q1212.0898,39.8594 1212.0898,40.4688 L1212.0898,42.4375 Q1212.0898,42.9844 1211.9648,43.1719 Q1211.6992,43.5625 1211.2461,43.5625 Q1210.7773,43.5625 1210.5117,43.1563 Q1210.3867,42.9688 1210.3867,42.2969 L1208.9023,42.2969 Z " fill="#000000"/><text fill="#000000" font-family="sans-serif" font-size="14" lengthAdjust="spacing" textLength="94.1514" x="1230.543" y="47.2969">GeneroMusical</text><line style="stroke:#181818;stroke-width:0.5;" x1="1079" x2="1443.7373" y1="57.5" y2="57.5"/><text fill="#000000" font-family="sans-serif" font-size="14" lengthAdjust="spacing" textLength="354.7373" x="1084" y="76.6074">ROCK, POP, JAZZ, CLASSICA, ELETRONICA, HIPHOP</text><line style="stroke:#181818;stroke-width:0.5;" x1="1079" x2="1443.7373" y1="84.1211" y2="84.1211"/></g><!--class Singleton--><g id="elem_Singleton"><rect fill="#F1F1F1" height="48" id="Singleton" rx="2.5" ry="2.5" style="stroke:#181818;stroke-width:0.5;" width="90.3789" x="1223.5" y="601.5"/><ellipse cx="1238.5" cy="617.5" fill="#ADD1B2" rx="11" ry="11" style="stroke:#181818;stroke-width:1.0;"/><path d="M1241.2656,613.375 Q1241.4219,613.1563 1241.6094,613.0469 Q1241.7969,612.9375 1242.0156,612.9375 Q1242.3906,612.9375 1242.625,613.2031 Q1242.8594,613.4531 1242.8594,614.0625 L1242.8594,615.5156 Q1242.8594,616.125 1242.625,616.3906 Q1242.3906,616.6563 1242.0156,616.6563 Q1241.6719,616.6563 1241.4688,616.4531 Q1241.2656,616.2656 1241.1563,615.75 Q1241.1094,615.3906 1240.9219,615.2031 Q1240.5938,614.8281 1239.9844,614.6094 Q1239.375,614.3906 1238.75,614.3906 Q1237.9844,614.3906 1237.3438,614.7188 Q1236.7188,615.0469 1236.2188,615.7969 Q1235.7344,616.5469 1235.7344,617.5781 L1235.7344,618.6719 Q1235.7344,619.9063 1236.625,620.7344 Q1237.5156,621.5469 1239.1094,621.5469 Q1240.0469,621.5469 1240.7031,621.2969 Q1241.0938,621.1406 1241.5156,620.7031 Q1241.7813,620.4375 1241.9219,620.3594 Q1242.0781,620.2813 1242.2813,620.2813 Q1242.6094,620.2813 1242.8594,620.5469 Q1243.125,620.7969 1243.125,621.1406 Q1243.125,621.4844 1242.7813,621.8906 Q1242.2813,622.4688 1241.4844,622.7969 Q1240.4063,623.25 1239.1094,623.25 Q1237.5938,623.25 1236.3906,622.625 Q1235.4063,622.125 1234.7188,621.0625 Q1234.0313,619.9844 1234.0313,618.7031 L1234.0313,617.5469 Q1234.0313,616.2188 1234.6406,615.0781 Q1235.2656,613.9219 1236.3594,613.3125 Q1237.4531,612.6875 1238.6875,612.6875 Q1239.4219,612.6875 1240.0625,612.8594 Q1240.7188,613.0156 1241.2656,613.375 Z " fill="#000000"/><text fill="#000000" font-family="sans-serif" font-size="14" lengthAdjust="spacing" textLength="58.3789" x="1252.5" y="623.2969">Singleton</text><line style="stroke:#181818;stroke-width:0.5;" x1="1224.5" x2="1312.8789" y1="633.5" y2="633.5"/><line style="stroke:#181818;stroke-width:0.5;" x1="1224.5" x2="1312.8789" y1="641.5" y2="641.5"/></g><!--reverse link Playlist to Musica--><g id="link_Playlist_Musica"><path codeLine="76" d="M613.4059,504.3771 C629.6559,524.0771 639.32,535.79 655.16,554.99 " fill="none" id="Playlist-backto-Musica" style="stroke:#181818;stroke-width:1.0;"/><polygon fill="#181818" points="605.77,495.12,606.5023,502.2938,613.4059,504.3771,612.6736,497.2032,605.77,495.12" style="stroke:#181818;stroke-width:1.0;"/><text fill="#000000" font-family="sans-serif" font-size="13" lengthAdjust="spacing" textLength="7.23" x="604.104" y="516.7884">1</text><text fill="#000000" font-family="sans-serif" font-size="13" lengthAdjust="spacing" textLength="19.5127" x="629.3124" y="543.88">0..*</text></g><!--reverse link Artista to Album--><g id="link_Artista_Album"><path codeLine="77" d="M969.6444,275.071 C944.3044,306.751 917.1,340.75 891.78,372.4 " fill="none" id="Artista-backto-Album" style="stroke:#181818;stroke-width:1.0;"/><polygon fill="#181818" points="977.14,265.7,970.2685,267.887,969.6444,275.071,976.5159,272.884,977.14,265.7" style="stroke:#181818;stroke-width:1.0;"/><text fill="#000000" font-family="sans-serif" font-size="13" lengthAdjust="spacing" textLength="7.23" x="964.2866" y="287.8922">1</text><text fill="#000000" font-family="sans-serif" font-size="13" lengthAdjust="spacing" textLength="19.5127" x="876.6334" y="361.2881">0..*</text></g><!--reverse link Album to Musica--><g id="link_Album_Musica"><path codeLine="78" d="M822.4254,467.5186 C802.9454,495.3286 783.76,522.73 761.19,554.97 " fill="none" id="Album-backto-Musica" style="stroke:#181818;stroke-width:1.0;"/><polygon fill="#181818" points="829.31,457.69,822.5915,460.3094,822.4254,467.5186,829.1439,464.8992,829.31,457.69" style="stroke:#181818;stroke-width:1.0;"/><text fill="#000000" font-family="sans-serif" font-size="13" lengthAdjust="spacing" textLength="7.23" x="817.1409" y="479.8806">1</text><text fill="#000000" font-family="sans-serif" font-size="13" lengthAdjust="spacing" textLength="19.5127" x="746.2768" y="543.8579">0..*</text></g><!--link SpotifyAPI to Singleton--><g id="link_SpotifyAPI_Singleton"><path codeLine="80" d="M1197.14,495.12 C1218.11,533.14 1232.994,560.14 1247.114,585.73 " fill="none" id="SpotifyAPI-to-Singleton" style="stroke:#181818;stroke-width:1.0;"/><polygon fill="none" points="1255.81,601.49,1252.3673,582.8313,1241.8606,588.6286,1255.81,601.49" style="stroke:#181818;stroke-width:1.0;"/></g><!--link Sistema to Singleton--><g id="link_Sistema_Singleton"><path codeLine="81" d="M1043.19,109.53 C1077.08,127.59 1114.67,149.01 1147.5,171 C1243.58,235.35 1299.78,230.59 1349.5,335 C1380.07,399.2 1369.12,426.65 1349.5,495 C1337.72,536.04 1320.0657,562.7059 1300.1657,587.2159 " fill="none" id="Sistema-to-Singleton" style="stroke:#181818;stroke-width:1.0;"/><polygon fill="none" points="1288.82,601.19,1304.8238,590.9978,1295.5077,583.434,1288.82,601.19" style="stroke:#181818;stroke-width:1.0;"/></g><!--link Musica to Reprodutivel--><g id="link_Musica_Reprodutivel"><path codeLine="83" d="M679.96,696.05 C670.44,716.39 667.9633,721.684 659.5433,739.694 " fill="none" id="Musica-to-Reprodutivel" style="stroke:#181818;stroke-width:1.0;"/><polygon fill="none" points="651.92,756,664.9787,742.2351,654.108,737.1529,651.92,756" style="stroke:#181818;stroke-width:1.0;"/></g><!--link Playlist to Reprodutivel--><g id="link_Playlist_Reprodutivel"><path codeLine="84" d="M559.56,495.05 C578.69,574.38 603.1989,676.0219 618.2589,738.4519 " fill="none" id="Playlist-to-Reprodutivel" style="stroke:#181818;stroke-width:1.0;"/><polygon fill="none" points="622.48,755.95,624.0916,737.0449,612.4262,739.8589,622.48,755.95" style="stroke:#181818;stroke-width:1.0;"/></g><!--reverse link Usuario to UsuarioPremium--><g id="link_Usuario_UsuarioPremium"><path codeLine="86" d="M209.3973,481.0491 C180.9073,516.6191 154.62,549.44 127.92,582.77 " fill="none" id="Usuario-backto-UsuarioPremium" style="stroke:#181818;stroke-width:1.0;"/><polygon fill="none" points="220.65,467,204.7143,477.2982,214.0803,484.8,220.65,467" style="stroke:#181818;stroke-width:1.0;"/></g><!--reverse link Usuario to UsuarioGratuito--><g id="link_Usuario_UsuarioGratuito"><path codeLine="87" d="M278.9037,484.4454 C287.9437,520.0154 295.42,549.44 303.89,582.77 " fill="none" id="Usuario-backto-UsuarioGratuito" style="stroke:#181818;stroke-width:1.0;"/><polygon fill="none" points="274.47,467,273.0886,485.9233,284.7188,482.9675,274.47,467" style="stroke:#181818;stroke-width:1.0;"/></g><!--link GUI to SpotifyAPI--><g id="link_GUI_SpotifyAPI"><path codeLine="89" d="M842.67,275.04 C883.85,293.45 925.8823,312.2415 971.1623,332.4815 " fill="none" id="GUI-to-SpotifyAPI" style="stroke:#181818;stroke-width:1.0;stroke-dasharray:7.0,7.0;"/><polygon fill="#181818" points="976.64,334.93,970.0558,327.6055,972.0753,332.8896,966.7912,334.909,976.64,334.93" style="stroke:#181818;stroke-width:1.0;"/></g><!--link GUI to Playlist--><g id="link_GUI_Playlist"><path codeLine="90" d="M677.87,275.17 C659.71,293.52 643.0004,310.4052 623.0404,330.5752 " fill="none" id="GUI-to-Playlist" style="stroke:#181818;stroke-width:1.0;stroke-dasharray:7.0,7.0;"/><polygon fill="#181818" points="618.82,334.84,627.9938,331.2564,622.337,331.286,622.3074,325.6292,618.82,334.84" style="stroke:#181818;stroke-width:1.0;"/></g><!--link GUI to Musica--><g id="link_GUI_Musica"><path codeLine="91" d="M726.46,275.13 C723.62,346.2 718.7097,469.0748 715.5197,548.8648 " fill="none" id="GUI-to-Musica" style="stroke:#181818;stroke-width:1.0;stroke-dasharray:7.0,7.0;"/><polygon fill="#181818" points="715.28,554.86,719.6363,546.027,715.4797,549.864,711.6427,545.7074,715.28,554.86" style="stroke:#181818;stroke-width:1.0;"/></g><!--link GUI to Usuario--><g id="link_GUI_Usuario"><path codeLine="92" d="M555.72,273.25 C502.74,290.47 444.88,311.46 393.5,335 C375.9,343.07 362.8644,349.8798 345.7844,359.8298 " fill="none" id="GUI-to-Usuario" style="stroke:#181818;stroke-width:1.0;stroke-dasharray:7.0,7.0;"/><polygon fill="#181818" points="340.6,362.85,350.3901,361.776,344.9204,360.3332,346.3632,354.8634,340.6,362.85" style="stroke:#181818;stroke-width:1.0;"/></g><!--link Sistema to SpotifyAPI--><g id="link_Sistema_SpotifyAPI"><path codeLine="94" d="M1041.26,111.04 C1064.43,127.35 1086.91,147.41 1102.5,171 C1134.59,219.55 1146.4783,278.4945 1151.0583,329.0145 " fill="none" id="Sistema-to-SpotifyAPI" style="stroke:#181818;stroke-width:1.0;stroke-dasharray:7.0,7.0;"/><polygon fill="#181818" points="1151.6,334.99,1154.7711,325.6656,1151.1486,330.0104,1146.8038,326.3879,1151.6,334.99" style="stroke:#181818;stroke-width:1.0;"/></g><!--link Sistema to GUI--><g id="link_Sistema_GUI"><path codeLine="95" d="M875.77,111.04 C850.41,130.14 826.4127,148.2303 801.0527,167.3303 " fill="none" id="Sistema-to-GUI" style="stroke:#181818;stroke-width:1.0;stroke-dasharray:7.0,7.0;"/><polygon fill="#181818" points="796.26,170.94,805.8555,168.7207,800.2539,167.9319,801.0427,162.3303,796.26,170.94" style="stroke:#181818;stroke-width:1.0;"/></g><!--link Sistema to Playlist--><g id="link_Sistema_Playlist"><path codeLine="96" d="M843.59,73.44 C736.04,90.21 575.37,122.67 538.5,171 C503.51,216.87 505.2926,277.1966 515.6426,328.9166 " fill="none" id="Sistema-to-Playlist" style="stroke:#181818;stroke-width:1.0;stroke-dasharray:7.0,7.0;"/><polygon fill="#181818" points="516.82,334.8,518.9762,325.1901,515.8389,329.8972,511.1317,326.7599,516.82,334.8" style="stroke:#181818;stroke-width:1.0;"/></g><!--SRC=[ZLJDRXen4BxlKuou118WwQ6NAaNQfb522sK5GQfILT6mECIITxsolJIawTFqq0V9YzNhdsLDI1iEQFsDvvlnDpy7y97Sqfm-_NdwpM694bA6KX89XQ1vIWkaCZ8GZ4j9KuIV4UZVqKnf-meKLINZ0OH2KQamnDYYp2noGN8Yk2LZi38dQrbpkWH12i6NvGCLxKxqAtAn4uORfbbzTCslQ0ewSyr1SmNZ-ElDU3uRdiKpU0zlJuBeES-81MpORzyXCn_Ieh4Gk1bf-bDh7q0L2yVDEoOvNDAKyXo5DRMT99Qi4xmYuslomhNwLR5LQaVIRROcfRYIRc0Kp6N3juB_xUaVuzzQ-yuAhkZj9aw6Zg3dz6mOQAuntG0ONB22kt3wsiryEj9wj-wKAkIxusCiQ5zQadxAivPrtjAsEq7z6l5MH0rjIE8lETaMfKnhnHilxO2w4_o7XFFxb1HArsLl6_sd1XTpBu9rpBXK0iKLOPYu2M3jPcd9FLrGCIMoP0gNN7weqcll4xpfXQf4HXzGEvh4KkGlfZJJN2J3tTeuD2pCqOvrZumclXvnxU9cIWyC4RUO4d3PABecB90X6CCjN60fCPZCkInHKFvY9ngtLEZOVeQ36jfBkAX4JnMOssigdLZUHUw9cEWPeziHg9O0enbLf7Pg9F0woWkXoqGLVyxfLa72Q__Na9DSvnVkEyiydPnzxa8oIRhmARw-xiBPA9vLowiBvwFpg-daY_c-72QNawHYEj2LOcXsJqPonINeVq5Wkw-ZUaMsthJWiDU3rac_VzXoQploksR7QjP8P9V9ViUeCQIztkD0jrg-OaJfSVDDjmD7hh4DtEomROxFJP5lfDD7dK9OuxqsNwmegaQutnyqjaaDrTNoW7kKFpgkg7xA3ayJrZx1kUR-2m00]--></g></svg>