<svg xmlns="http://www.w3.org/2000/svg" xmlns:xlink="http://www.w3.org/1999/xlink" contentStyleType="text/css" height="1142px" preserveAspectRatio="none" style="width:1474px;height:1142px;background:#FFFFFF;" version="1.1" viewBox="0 0 1474 1142" width="1474px" zoomAndPan="magnify"><defs/><g><!--class Musica--><g id="elem_Musica"><rect codeLine="2" fill="#F1F1F1" height="159.7266" id="Musica" rx="2.5" ry="2.5" style="stroke:#181818;stroke-width:0.5;" width="167.6338" x="663.5" y="830"/><ellipse cx="720.8945" cy="846" fill="#ADD1B2" rx="11" ry="11" style="stroke:#181818;stroke-width:1.0;"/><path d="M723.6602,841.875 Q723.8164,841.6563 724.0039,841.5469 Q724.1914,841.4375 724.4102,841.4375 Q724.7852,841.4375 725.0195,841.7031 Q725.2539,841.9531 725.2539,842.5625 L725.2539,844.0156 Q725.2539,844.625 725.0195,844.8906 Q724.7852,845.1563 724.4102,845.1563 Q724.0664,845.1563 723.8633,844.9531 Q723.6602,844.7656 723.5508,844.25 Q723.5039,843.8906 723.3164,843.7031 Q722.9883,843.3281 722.3789,843.1094 Q721.7695,842.8906 721.1445,842.8906 Q720.3789,842.8906 719.7383,843.2188 Q719.1133,843.5469 718.6133,844.2969 Q718.1289,845.0469 718.1289,846.0781 L718.1289,847.1719 Q718.1289,848.4063 719.0195,849.2344 Q719.9102,850.0469 721.5039,850.0469 Q722.4414,850.0469 723.0977,849.7969 Q723.4883,849.6406 723.9102,849.2031 Q724.1758,848.9375 724.3164,848.8594 Q724.4727,848.7813 724.6758,848.7813 Q725.0039,848.7813 725.2539,849.0469 Q725.5195,849.2969 725.5195,849.6406 Q725.5195,849.9844 725.1758,850.3906 Q724.6758,850.9688 723.8789,851.2969 Q722.8008,851.75 721.5039,851.75 Q719.9883,851.75 718.7852,851.125 Q717.8008,850.625 717.1133,849.5625 Q716.4258,848.4844 716.4258,847.2031 L716.4258,846.0469 Q716.4258,844.7188 717.0352,843.5781 Q717.6602,842.4219 718.7539,841.8125 Q719.8477,841.1875 721.082,841.1875 Q721.8164,841.1875 722.457,841.3594 Q723.1133,841.5156 723.6602,841.875 Z " fill="#000000"/><text fill="#000000" font-family="sans-serif" font-size="14" lengthAdjust="spacing" textLength="44.3447" x="741.3945" y="851.7969">Musica</text><line style="stroke:#181818;stroke-width:0.5;" x1="664.5" x2="830.1338" y1="862" y2="862"/><ellipse cx="674.5" cy="876.8105" fill="none" rx="3" ry="3" style="stroke:#038048;stroke-width:1.0;"/><text fill="#000000" font-family="sans-serif" font-size="14" lengthAdjust="spacing" textLength="29.5723" x="683.5" y="881.1074">int id</text><ellipse cx="674.5" cy="895.4316" fill="none" rx="3" ry="3" style="stroke:#038048;stroke-width:1.0;"/><text fill="#000000" font-family="sans-serif" font-size="14" lengthAdjust="spacing" textLength="70.0342" x="683.5" y="899.7285">String titulo</text><ellipse cx="674.5" cy="914.0527" fill="none" rx="3" ry="3" style="stroke:#038048;stroke-width:1.0;"/><text fill="#000000" font-family="sans-serif" font-size="14" lengthAdjust="spacing" textLength="78.5859" x="683.5" y="918.3496">String artista</text><ellipse cx="674.5" cy="932.6738" fill="none" rx="3" ry="3" style="stroke:#038048;stroke-width:1.0;"/><text fill="#000000" font-family="sans-serif" font-size="14" lengthAdjust="spacing" textLength="78.5928" x="683.5" y="936.9707">String album</text><ellipse cx="674.5" cy="951.2949" fill="none" rx="3" ry="3" style="stroke:#038048;stroke-width:1.0;"/><text fill="#000000" font-family="sans-serif" font-size="14" lengthAdjust="spacing" textLength="141.6338" x="683.5" y="955.5918">GeneroMusical genero</text><line style="stroke:#181818;stroke-width:0.5;" x1="664.5" x2="830.1338" y1="963.1055" y2="963.1055"/><ellipse cx="674.5" cy="977.916" fill="#84BE84" rx="3" ry="3" style="stroke:#038048;stroke-width:1.0;"/><text fill="#000000" font-family="sans-serif" font-size="14" lengthAdjust="spacing" textLength="101.9238" x="683.5" y="982.2129">void reproduzir()</text></g><!--class Playlist--><g id="elem_Playlist"><rect codeLine="11" fill="#F1F1F1" height="159.7266" id="Playlist" rx="2.5" ry="2.5" style="stroke:#181818;stroke-width:0.5;" width="258.6338" x="447" y="610"/><ellipse cx="549.8945" cy="626" fill="#ADD1B2" rx="11" ry="11" style="stroke:#181818;stroke-width:1.0;"/><path d="M552.6602,621.875 Q552.8164,621.6563 553.0039,621.5469 Q553.1914,621.4375 553.4102,621.4375 Q553.7852,621.4375 554.0195,621.7031 Q554.2539,621.9531 554.2539,622.5625 L554.2539,624.0156 Q554.2539,624.625 554.0195,624.8906 Q553.7852,625.1563 553.4102,625.1563 Q553.0664,625.1563 552.8633,624.9531 Q552.6602,624.7656 552.5508,624.25 Q552.5039,623.8906 552.3164,623.7031 Q551.9883,623.3281 551.3789,623.1094 Q550.7695,622.8906 550.1445,622.8906 Q549.3789,622.8906 548.7383,623.2188 Q548.1133,623.5469 547.6133,624.2969 Q547.1289,625.0469 547.1289,626.0781 L547.1289,627.1719 Q547.1289,628.4063 548.0195,629.2344 Q548.9102,630.0469 550.5039,630.0469 Q551.4414,630.0469 552.0977,629.7969 Q552.4883,629.6406 552.9102,629.2031 Q553.1758,628.9375 553.3164,628.8594 Q553.4727,628.7813 553.6758,628.7813 Q554.0039,628.7813 554.2539,629.0469 Q554.5195,629.2969 554.5195,629.6406 Q554.5195,629.9844 554.1758,630.3906 Q553.6758,630.9688 552.8789,631.2969 Q551.8008,631.75 550.5039,631.75 Q548.9883,631.75 547.7852,631.125 Q546.8008,630.625 546.1133,629.5625 Q545.4258,628.4844 545.4258,627.2031 L545.4258,626.0469 Q545.4258,624.7188 546.0352,623.5781 Q546.6602,622.4219 547.7539,621.8125 Q548.8477,621.1875 550.082,621.1875 Q550.8164,621.1875 551.457,621.3594 Q552.1133,621.5156 552.6602,621.875 Z " fill="#000000"/><text fill="#000000" font-family="sans-serif" font-size="14" lengthAdjust="spacing" textLength="44.3447" x="570.3945" y="631.7969">Playlist</text><line style="stroke:#181818;stroke-width:0.5;" x1="448" x2="704.6338" y1="642" y2="642"/><ellipse cx="458" cy="656.8105" fill="none" rx="3" ry="3" style="stroke:#038048;stroke-width:1.0;"/><text fill="#000000" font-family="sans-serif" font-size="14" lengthAdjust="spacing" textLength="218.251" x="467" y="661.1074">static final int MAX_MUSICAS = 50</text><ellipse cx="458" cy="675.4316" fill="none" rx="3" ry="3" style="stroke:#038048;stroke-width:1.0;"/><text fill="#000000" font-family="sans-serif" font-size="14" lengthAdjust="spacing" textLength="75.4824" x="467" y="679.7285">String nome</text><ellipse cx="458" cy="694.0527" fill="none" rx="3" ry="3" style="stroke:#038048;stroke-width:1.0;"/><text fill="#000000" font-family="sans-serif" font-size="14" lengthAdjust="spacing" textLength="107.3584" x="467" y="698.3496">Musica[] musicas</text><ellipse cx="458" cy="712.6738" fill="none" rx="3" ry="3" style="stroke:#038048;stroke-width:1.0;"/><text fill="#000000" font-family="sans-serif" font-size="14" lengthAdjust="spacing" textLength="196.0615" x="467" y="716.9707">ArrayList&lt;Musica&gt; listaMusicas</text><line style="stroke:#181818;stroke-width:0.5;" x1="448" x2="704.6338" y1="724.4844" y2="724.4844"/><ellipse cx="458" cy="739.2949" fill="#84BE84" rx="3" ry="3" style="stroke:#038048;stroke-width:1.0;"/><text fill="#000000" font-family="sans-serif" font-size="14" lengthAdjust="spacing" textLength="232.6338" x="467" y="743.5918">void adicionarMusica(Musica musica)</text><ellipse cx="458" cy="757.916" fill="#84BE84" rx="3" ry="3" style="stroke:#038048;stroke-width:1.0;"/><text fill="#000000" font-family="sans-serif" font-size="14" lengthAdjust="spacing" textLength="227.165" x="467" y="762.2129">void removerMusica(Musica musica)</text></g><!--class Artista--><g id="elem_Artista"><rect codeLine="20" fill="#F1F1F1" height="85.2422" id="Artista" rx="2.5" ry="2.5" style="stroke:#181818;stroke-width:0.5;" width="148.9648" x="813" y="418.5"/><ellipse cx="863.3945" cy="434.5" fill="#ADD1B2" rx="11" ry="11" style="stroke:#181818;stroke-width:1.0;"/><path d="M866.1602,430.375 Q866.3164,430.1563 866.5039,430.0469 Q866.6914,429.9375 866.9102,429.9375 Q867.2852,429.9375 867.5195,430.2031 Q867.7539,430.4531 867.7539,431.0625 L867.7539,432.5156 Q867.7539,433.125 867.5195,433.3906 Q867.2852,433.6563 866.9102,433.6563 Q866.5664,433.6563 866.3633,433.4531 Q866.1602,433.2656 866.0508,432.75 Q866.0039,432.3906 865.8164,432.2031 Q865.4883,431.8281 864.8789,431.6094 Q864.2695,431.3906 863.6445,431.3906 Q862.8789,431.3906 862.2383,431.7188 Q861.6133,432.0469 861.1133,432.7969 Q860.6289,433.5469 860.6289,434.5781 L860.6289,435.6719 Q860.6289,436.9063 861.5195,437.7344 Q862.4102,438.5469 864.0039,438.5469 Q864.9414,438.5469 865.5977,438.2969 Q865.9883,438.1406 866.4102,437.7031 Q866.6758,437.4375 866.8164,437.3594 Q866.9727,437.2813 867.1758,437.2813 Q867.5039,437.2813 867.7539,437.5469 Q868.0195,437.7969 868.0195,438.1406 Q868.0195,438.4844 867.6758,438.8906 Q867.1758,439.4688 866.3789,439.7969 Q865.3008,440.25 864.0039,440.25 Q862.4883,440.25 861.2852,439.625 Q860.3008,439.125 859.6133,438.0625 Q858.9258,436.9844 858.9258,435.7031 L858.9258,434.5469 Q858.9258,433.2188 859.5352,432.0781 Q860.1602,430.9219 861.2539,430.3125 Q862.3477,429.6875 863.582,429.6875 Q864.3164,429.6875 864.957,429.8594 Q865.6133,430.0156 866.1602,430.375 Z " fill="#000000"/><text fill="#000000" font-family="sans-serif" font-size="14" lengthAdjust="spacing" textLength="39.6758" x="883.8945" y="440.2969">Artista</text><line style="stroke:#181818;stroke-width:0.5;" x1="814" x2="960.9648" y1="450.5" y2="450.5"/><ellipse cx="824" cy="465.3105" fill="none" rx="3" ry="3" style="stroke:#038048;stroke-width:1.0;"/><text fill="#000000" font-family="sans-serif" font-size="14" lengthAdjust="spacing" textLength="75.4824" x="833" y="469.6074">String nome</text><ellipse cx="824" cy="483.9316" fill="none" rx="3" ry="3" style="stroke:#038048;stroke-width:1.0;"/><text fill="#000000" font-family="sans-serif" font-size="14" lengthAdjust="spacing" textLength="122.9648" x="833" y="488.2285">List&lt;Album&gt; albuns</text><line style="stroke:#181818;stroke-width:0.5;" x1="814" x2="960.9648" y1="495.7422" y2="495.7422"/></g><!--class Album--><g id="elem_Album"><rect codeLine="25" fill="#F1F1F1" height="85.2422" id="Album" rx="2.5" ry="2.5" style="stroke:#181818;stroke-width:0.5;" width="163.7168" x="812.5" y="647.5"/><ellipse cx="870.2671" cy="663.5" fill="#ADD1B2" rx="11" ry="11" style="stroke:#181818;stroke-width:1.0;"/><path d="M873.0327,659.375 Q873.189,659.1563 873.3765,659.0469 Q873.564,658.9375 873.7827,658.9375 Q874.1577,658.9375 874.3921,659.2031 Q874.6265,659.4531 874.6265,660.0625 L874.6265,661.5156 Q874.6265,662.125 874.3921,662.3906 Q874.1577,662.6563 873.7827,662.6563 Q873.439,662.6563 873.2358,662.4531 Q873.0327,662.2656 872.9233,661.75 Q872.8765,661.3906 872.689,661.2031 Q872.3608,660.8281 871.7515,660.6094 Q871.1421,660.3906 870.5171,660.3906 Q869.7515,660.3906 869.1108,660.7188 Q868.4858,661.0469 867.9858,661.7969 Q867.5015,662.5469 867.5015,663.5781 L867.5015,664.6719 Q867.5015,665.9063 868.3921,666.7344 Q869.2827,667.5469 870.8765,667.5469 Q871.814,667.5469 872.4702,667.2969 Q872.8608,667.1406 873.2827,666.7031 Q873.5483,666.4375 873.689,666.3594 Q873.8452,666.2813 874.0483,666.2813 Q874.3765,666.2813 874.6265,666.5469 Q874.8921,666.7969 874.8921,667.1406 Q874.8921,667.4844 874.5483,667.8906 Q874.0483,668.4688 873.2515,668.7969 Q872.1733,669.25 870.8765,669.25 Q869.3608,669.25 868.1577,668.625 Q867.1733,668.125 866.4858,667.0625 Q865.7983,665.9844 865.7983,664.7031 L865.7983,663.5469 Q865.7983,662.2188 866.4077,661.0781 Q867.0327,659.9219 868.1265,659.3125 Q869.2202,658.6875 870.4546,658.6875 Q871.189,658.6875 871.8296,658.8594 Q872.4858,659.0156 873.0327,659.375 Z " fill="#000000"/><text fill="#000000" font-family="sans-serif" font-size="14" lengthAdjust="spacing" textLength="39.6826" x="890.7671" y="669.2969">Album</text><line style="stroke:#181818;stroke-width:0.5;" x1="813.5" x2="975.2168" y1="679.5" y2="679.5"/><ellipse cx="823.5" cy="694.3105" fill="none" rx="3" ry="3" style="stroke:#038048;stroke-width:1.0;"/><text fill="#000000" font-family="sans-serif" font-size="14" lengthAdjust="spacing" textLength="75.4824" x="832.5" y="698.6074">String nome</text><ellipse cx="823.5" cy="712.9316" fill="none" rx="3" ry="3" style="stroke:#038048;stroke-width:1.0;"/><text fill="#000000" font-family="sans-serif" font-size="14" lengthAdjust="spacing" textLength="137.7168" x="832.5" y="717.2285">List&lt;Musica&gt; musicas</text><line style="stroke:#181818;stroke-width:0.5;" x1="813.5" x2="975.2168" y1="724.7422" y2="724.7422"/></g><!--class SpotifyAPI--><g id="elem_SpotifyAPI"><rect codeLine="30" fill="#F1F1F1" height="178.3477" id="SpotifyAPI" rx="2.5" ry="2.5" style="stroke:#181818;stroke-width:0.5;" width="411.123" x="997" y="372"/><ellipse cx="1165.6289" cy="388" fill="#ADD1B2" rx="11" ry="11" style="stroke:#181818;stroke-width:1.0;"/><path d="M1168.3945,383.875 Q1168.5508,383.6563 1168.7383,383.5469 Q1168.9258,383.4375 1169.1445,383.4375 Q1169.5195,383.4375 1169.7539,383.7031 Q1169.9883,383.9531 1169.9883,384.5625 L1169.9883,386.0156 Q1169.9883,386.625 1169.7539,386.8906 Q1169.5195,387.1563 1169.1445,387.1563 Q1168.8008,387.1563 1168.5977,386.9531 Q1168.3945,386.7656 1168.2852,386.25 Q1168.2383,385.8906 1168.0508,385.7031 Q1167.7227,385.3281 1167.1133,385.1094 Q1166.5039,384.8906 1165.8789,384.8906 Q1165.1133,384.8906 1164.4727,385.2188 Q1163.8477,385.5469 1163.3477,386.2969 Q1162.8633,387.0469 1162.8633,388.0781 L1162.8633,389.1719 Q1162.8633,390.4063 1163.7539,391.2344 Q1164.6445,392.0469 1166.2383,392.0469 Q1167.1758,392.0469 1167.832,391.7969 Q1168.2227,391.6406 1168.6445,391.2031 Q1168.9102,390.9375 1169.0508,390.8594 Q1169.207,390.7813 1169.4102,390.7813 Q1169.7383,390.7813 1169.9883,391.0469 Q1170.2539,391.2969 1170.2539,391.6406 Q1170.2539,391.9844 1169.9102,392.3906 Q1169.4102,392.9688 1168.6133,393.2969 Q1167.5352,393.75 1166.2383,393.75 Q1164.7227,393.75 1163.5195,393.125 Q1162.5352,392.625 1161.8477,391.5625 Q1161.1602,390.4844 1161.1602,389.2031 L1161.1602,388.0469 Q1161.1602,386.7188 1161.7695,385.5781 Q1162.3945,384.4219 1163.4883,383.8125 Q1164.582,383.1875 1165.8164,383.1875 Q1166.5508,383.1875 1167.1914,383.3594 Q1167.8477,383.5156 1168.3945,383.875 Z " fill="#000000"/><text fill="#000000" font-family="sans-serif" font-size="14" lengthAdjust="spacing" textLength="65.3652" x="1186.1289" y="393.7969">SpotifyAPI</text><line style="stroke:#181818;stroke-width:0.5;" x1="998" x2="1407.123" y1="404" y2="404"/><rect fill="none" height="6" style="stroke:#C82930;stroke-width:1.0;" width="6" x="1005" y="415.8105"/><text fill="#000000" font-family="sans-serif" font-size="14" lengthAdjust="spacing" textLength="161.0752" x="1017" y="423.1074">static SpotifyAPI instancia</text><rect fill="none" height="6" style="stroke:#C82930;stroke-width:1.0;" width="6" x="1005" y="434.4316"/><text fill="#000000" font-family="sans-serif" font-size="14" lengthAdjust="spacing" textLength="326.2451" x="1017" y="441.7285">static final String API_URL = "https://api.spotify.com"</text><line style="stroke:#181818;stroke-width:0.5;" x1="998" x2="1407.123" y1="449.2422" y2="449.2422"/><rect fill="#F24D5C" height="6" style="stroke:#C82930;stroke-width:1.0;" width="6" x="1005" y="461.0527"/><text fill="#000000" font-family="sans-serif" font-size="14" lengthAdjust="spacing" textLength="74.6895" x="1017" y="468.3496">SpotifyAPI()</text><ellipse cx="1008" cy="482.6738" fill="#84BE84" rx="3" ry="3" style="stroke:#038048;stroke-width:1.0;"/><text fill="#000000" font-family="sans-serif" font-size="14" lengthAdjust="spacing" textLength="187.5303" x="1017" y="486.9707">static SpotifyAPI getInstance()</text><ellipse cx="1008" cy="501.2949" fill="#84BE84" rx="3" ry="3" style="stroke:#038048;stroke-width:1.0;"/><text fill="#000000" font-family="sans-serif" font-size="14" lengthAdjust="spacing" textLength="329.9023" x="1017" y="505.5918">Musica buscarMusica(String nome) throws Exception</text><ellipse cx="1008" cy="519.916" fill="#84BE84" rx="3" ry="3" style="stroke:#038048;stroke-width:1.0;"/><text fill="#000000" font-family="sans-serif" font-size="14" lengthAdjust="spacing" textLength="238.8477" x="1017" y="524.2129">void reproduzirMusica(Musica musica)</text><ellipse cx="1008" cy="538.5371" fill="#84BE84" rx="3" ry="3" style="stroke:#038048;stroke-width:1.0;"/><text fill="#000000" font-family="sans-serif" font-size="14" lengthAdjust="spacing" textLength="385.123" x="1017" y="542.834">void adicionarMusicaAPlaylist(Playlist playlist, Musica musica)</text></g><!--class GUI--><g id="elem_GUI"><rect codeLine="40" fill="#F1F1F1" height="103.8633" id="GUI" rx="2.5" ry="2.5" style="stroke:#181818;stroke-width:0.5;" width="345.0195" x="630" y="208"/><ellipse cx="785.8149" cy="224" fill="#ADD1B2" rx="11" ry="11" style="stroke:#181818;stroke-width:1.0;"/><path d="M788.5806,219.875 Q788.7368,219.6563 788.9243,219.5469 Q789.1118,219.4375 789.3306,219.4375 Q789.7056,219.4375 789.9399,219.7031 Q790.1743,219.9531 790.1743,220.5625 L790.1743,222.0156 Q790.1743,222.625 789.9399,222.8906 Q789.7056,223.1563 789.3306,223.1563 Q788.9868,223.1563 788.7837,222.9531 Q788.5806,222.7656 788.4712,222.25 Q788.4243,221.8906 788.2368,221.7031 Q787.9087,221.3281 787.2993,221.1094 Q786.6899,220.8906 786.0649,220.8906 Q785.2993,220.8906 784.6587,221.2188 Q784.0337,221.5469 783.5337,222.2969 Q783.0493,223.0469 783.0493,224.0781 L783.0493,225.1719 Q783.0493,226.4063 783.9399,227.2344 Q784.8306,228.0469 786.4243,228.0469 Q787.3618,228.0469 788.0181,227.7969 Q788.4087,227.6406 788.8306,227.2031 Q789.0962,226.9375 789.2368,226.8594 Q789.3931,226.7813 789.5962,226.7813 Q789.9243,226.7813 790.1743,227.0469 Q790.4399,227.2969 790.4399,227.6406 Q790.4399,227.9844 790.0962,228.3906 Q789.5962,228.9688 788.7993,229.2969 Q787.7212,229.75 786.4243,229.75 Q784.9087,229.75 783.7056,229.125 Q782.7212,228.625 782.0337,227.5625 Q781.3462,226.4844 781.3462,225.2031 L781.3462,224.0469 Q781.3462,222.7188 781.9556,221.5781 Q782.5806,220.4219 783.6743,219.8125 Q784.7681,219.1875 786.0024,219.1875 Q786.7368,219.1875 787.3774,219.3594 Q788.0337,219.5156 788.5806,219.875 Z " fill="#000000"/><text fill="#000000" font-family="sans-serif" font-size="14" lengthAdjust="spacing" textLength="24.8896" x="806.3149" y="229.7969">GUI</text><line style="stroke:#181818;stroke-width:0.5;" x1="631" x2="974.0195" y1="240" y2="240"/><line style="stroke:#181818;stroke-width:0.5;" x1="631" x2="974.0195" y1="248" y2="248"/><ellipse cx="641" cy="262.8105" fill="#84BE84" rx="3" ry="3" style="stroke:#038048;stroke-width:1.0;"/><text fill="#000000" font-family="sans-serif" font-size="14" lengthAdjust="spacing" textLength="167.2686" x="650" y="267.1074">void mostrarTelaPrincipal()</text><ellipse cx="641" cy="281.4316" fill="#84BE84" rx="3" ry="3" style="stroke:#038048;stroke-width:1.0;"/><text fill="#000000" font-family="sans-serif" font-size="14" lengthAdjust="spacing" textLength="319.0195" x="650" y="285.7285">void exibirResultadosBusca(List&lt;Musica&gt; musicas)</text><ellipse cx="641" cy="300.0527" fill="#84BE84" rx="3" ry="3" style="stroke:#038048;stroke-width:1.0;"/><text fill="#000000" font-family="sans-serif" font-size="14" lengthAdjust="spacing" textLength="260.668" x="650" y="304.3496">void atualizarReproducao(Musica musica)</text></g><!--class Sistema--><g id="elem_Sistema"><rect codeLine="46" fill="#F1F1F1" height="141.1055" id="Sistema" rx="2.5" ry="2.5" style="stroke:#181818;stroke-width:0.5;" width="256.3164" x="674.5" y="7"/><ellipse cx="773.1221" cy="23" fill="#ADD1B2" rx="11" ry="11" style="stroke:#181818;stroke-width:1.0;"/><path d="M775.8877,18.875 Q776.0439,18.6563 776.2314,18.5469 Q776.4189,18.4375 776.6377,18.4375 Q777.0127,18.4375 777.2471,18.7031 Q777.4814,18.9531 777.4814,19.5625 L777.4814,21.0156 Q777.4814,21.625 777.2471,21.8906 Q777.0127,22.1563 776.6377,22.1563 Q776.2939,22.1563 776.0908,21.9531 Q775.8877,21.7656 775.7783,21.25 Q775.7314,20.8906 775.5439,20.7031 Q775.2158,20.3281 774.6064,20.1094 Q773.9971,19.8906 773.3721,19.8906 Q772.6064,19.8906 771.9658,20.2188 Q771.3408,20.5469 770.8408,21.2969 Q770.3564,22.0469 770.3564,23.0781 L770.3564,24.1719 Q770.3564,25.4063 771.2471,26.2344 Q772.1377,27.0469 773.7314,27.0469 Q774.6689,27.0469 775.3252,26.7969 Q775.7158,26.6406 776.1377,26.2031 Q776.4033,25.9375 776.5439,25.8594 Q776.7002,25.7813 776.9033,25.7813 Q777.2314,25.7813 777.4814,26.0469 Q777.7471,26.2969 777.7471,26.6406 Q777.7471,26.9844 777.4033,27.3906 Q776.9033,27.9688 776.1064,28.2969 Q775.0283,28.75 773.7314,28.75 Q772.2158,28.75 771.0127,28.125 Q770.0283,27.625 769.3408,26.5625 Q768.6533,25.4844 768.6533,24.2031 L768.6533,23.0469 Q768.6533,21.7188 769.2627,20.5781 Q769.8877,19.4219 770.9814,18.8125 Q772.0752,18.1875 773.3096,18.1875 Q774.0439,18.1875 774.6846,18.3594 Q775.3408,18.5156 775.8877,18.875 Z " fill="#000000"/><text fill="#000000" font-family="sans-serif" font-size="14" lengthAdjust="spacing" textLength="50.5723" x="793.6221" y="28.7969">Sistema</text><line style="stroke:#181818;stroke-width:0.5;" x1="675.5" x2="929.8164" y1="39" y2="39"/><rect fill="none" height="6" style="stroke:#C82930;stroke-width:1.0;" width="6" x="682.5" y="50.8105"/><text fill="#000000" font-family="sans-serif" font-size="14" lengthAdjust="spacing" textLength="146.2822" x="694.5" y="58.1074">static Sistema instancia</text><ellipse cx="685.5" cy="72.4316" fill="none" rx="3" ry="3" style="stroke:#038048;stroke-width:1.0;"/><text fill="#000000" font-family="sans-serif" font-size="14" lengthAdjust="spacing" textLength="176.6338" x="694.5" y="76.7285">ArrayList&lt;Usuario&gt; usuarios</text><ellipse cx="685.5" cy="91.0527" fill="none" rx="3" ry="3" style="stroke:#038048;stroke-width:1.0;"/><text fill="#000000" font-family="sans-serif" font-size="14" lengthAdjust="spacing" textLength="230.3164" x="694.5" y="95.3496">ArrayList&lt;Musica&gt; bibliotecaMusicas</text><line style="stroke:#181818;stroke-width:0.5;" x1="675.5" x2="929.8164" y1="102.8633" y2="102.8633"/><ellipse cx="685.5" cy="117.6738" fill="#84BE84" rx="3" ry="3" style="stroke:#038048;stroke-width:1.0;"/><text fill="#000000" font-family="sans-serif" font-size="14" lengthAdjust="spacing" textLength="172.7373" x="694.5" y="121.9707">static Sistema getInstance()</text><ellipse cx="685.5" cy="136.2949" fill="#84BE84" rx="3" ry="3" style="stroke:#038048;stroke-width:1.0;"/><text fill="#000000" font-family="sans-serif" font-size="14" lengthAdjust="spacing" textLength="75.4619" x="694.5" y="140.5918">void iniciar()</text></g><!--class Reprodutivel--><g id="elem_Reprodutivel"><rect codeLine="54" fill="#F1F1F1" height="85.2422" id="Reprodutivel" rx="2.5" ry="2.5" style="stroke:#181818;stroke-width:0.5;" width="127.9238" x="603.5" y="1050"/><ellipse cx="626.2959" cy="1066" fill="#B4A7E5" rx="11" ry="11" style="stroke:#181818;stroke-width:1.0;"/><path d="M627.249,1062.6406 L627.249,1069.2969 L628.9678,1069.2969 Q629.5771,1069.2969 629.8428,1069.5313 Q630.1084,1069.7656 630.1084,1070.1563 Q630.1084,1070.5313 629.8428,1070.7656 Q629.5771,1071 628.9678,1071 L623.8271,1071 Q623.2178,1071 622.9521,1070.7656 Q622.6865,1070.5313 622.6865,1070.1406 Q622.6865,1069.7656 622.9521,1069.5313 Q623.2178,1069.2969 623.8271,1069.2969 L625.5459,1069.2969 L625.5459,1062.6406 L623.8271,1062.6406 Q623.2178,1062.6406 622.9521,1062.4063 Q622.6865,1062.1719 622.6865,1061.7813 Q622.6865,1061.4063 622.9521,1061.1719 Q623.2178,1060.9375 623.8271,1060.9375 L628.9678,1060.9375 Q629.5771,1060.9375 629.8428,1061.1719 Q630.1084,1061.4063 630.1084,1061.7813 Q630.1084,1062.1719 629.8428,1062.4063 Q629.5771,1062.6406 628.9678,1062.6406 L627.249,1062.6406 Z " fill="#000000"/><text fill="#000000" font-family="sans-serif" font-size="14" font-style="italic" lengthAdjust="spacing" textLength="78.5996" x="642.0283" y="1071.7969">Reprodutivel</text><line style="stroke:#181818;stroke-width:0.5;" x1="604.5" x2="730.4238" y1="1082" y2="1082"/><line style="stroke:#181818;stroke-width:0.5;" x1="604.5" x2="730.4238" y1="1090" y2="1090"/><ellipse cx="614.5" cy="1104.8105" fill="#84BE84" rx="3" ry="3" style="stroke:#038048;stroke-width:1.0;"/><text fill="#000000" font-family="sans-serif" font-size="14" lengthAdjust="spacing" textLength="101.9238" x="623.5" y="1109.1074">void reproduzir()</text><ellipse cx="614.5" cy="1123.4316" fill="#84BE84" rx="3" ry="3" style="stroke:#038048;stroke-width:1.0;"/><text fill="#000000" font-family="sans-serif" font-size="14" lengthAdjust="spacing" textLength="81.7031" x="623.5" y="1127.7285">void pausar()</text></g><!--class Usuario--><g id="elem_Usuario"><rect codeLine="59" fill="#F1F1F1" height="122.4844" id="Usuario" rx="2.5" ry="2.5" style="stroke:#181818;stroke-width:0.5;" width="228.2822" x="295.5" y="400"/><ellipse cx="381.2705" cy="416" fill="#ADD1B2" rx="11" ry="11" style="stroke:#181818;stroke-width:1.0;"/><path d="M384.0361,411.875 Q384.1924,411.6563 384.3799,411.5469 Q384.5674,411.4375 384.7861,411.4375 Q385.1611,411.4375 385.3955,411.7031 Q385.6299,411.9531 385.6299,412.5625 L385.6299,414.0156 Q385.6299,414.625 385.3955,414.8906 Q385.1611,415.1563 384.7861,415.1563 Q384.4424,415.1563 384.2393,414.9531 Q384.0361,414.7656 383.9268,414.25 Q383.8799,413.8906 383.6924,413.7031 Q383.3643,413.3281 382.7549,413.1094 Q382.1455,412.8906 381.5205,412.8906 Q380.7549,412.8906 380.1143,413.2188 Q379.4893,413.5469 378.9893,414.2969 Q378.5049,415.0469 378.5049,416.0781 L378.5049,417.1719 Q378.5049,418.4063 379.3955,419.2344 Q380.2861,420.0469 381.8799,420.0469 Q382.8174,420.0469 383.4736,419.7969 Q383.8643,419.6406 384.2861,419.2031 Q384.5518,418.9375 384.6924,418.8594 Q384.8486,418.7813 385.0518,418.7813 Q385.3799,418.7813 385.6299,419.0469 Q385.8955,419.2969 385.8955,419.6406 Q385.8955,419.9844 385.5518,420.3906 Q385.0518,420.9688 384.2549,421.2969 Q383.1768,421.75 381.8799,421.75 Q380.3643,421.75 379.1611,421.125 Q378.1768,420.625 377.4893,419.5625 Q376.8018,418.4844 376.8018,417.2031 L376.8018,416.0469 Q376.8018,414.7188 377.4111,413.5781 Q378.0361,412.4219 379.1299,411.8125 Q380.2236,411.1875 381.458,411.1875 Q382.1924,411.1875 382.833,411.3594 Q383.4893,411.5156 384.0361,411.875 Z " fill="#000000"/><text fill="#000000" font-family="sans-serif" font-size="14" lengthAdjust="spacing" textLength="48.2412" x="401.7705" y="421.7969">Usuario</text><line style="stroke:#181818;stroke-width:0.5;" x1="296.5" x2="522.7822" y1="432" y2="432"/><ellipse cx="306.5" cy="446.8105" fill="none" rx="3" ry="3" style="stroke:#038048;stroke-width:1.0;"/><text fill="#000000" font-family="sans-serif" font-size="14" lengthAdjust="spacing" textLength="75.4824" x="315.5" y="451.1074">String nome</text><ellipse cx="306.5" cy="465.4316" fill="none" rx="3" ry="3" style="stroke:#038048;stroke-width:1.0;"/><text fill="#000000" font-family="sans-serif" font-size="14" lengthAdjust="spacing" textLength="169.6133" x="315.5" y="469.7285">ArrayList&lt;Playlist&gt; playlists</text><line style="stroke:#181818;stroke-width:0.5;" x1="296.5" x2="522.7822" y1="477.2422" y2="477.2422"/><ellipse cx="306.5" cy="492.0527" fill="#84BE84" rx="3" ry="3" style="stroke:#038048;stroke-width:1.0;"/><text fill="#000000" font-family="sans-serif" font-size="14" lengthAdjust="spacing" textLength="185.9443" x="315.5" y="496.3496">void criarPlaylist(String nome)</text><ellipse cx="306.5" cy="510.6738" fill="#84BE84" rx="3" ry="3" style="stroke:#038048;stroke-width:1.0;"/><text fill="#000000" font-family="sans-serif" font-size="14" lengthAdjust="spacing" textLength="202.2822" x="315.5" y="514.9707">abstract void visualizarPlaylists()</text></g><!--class UsuarioPremium--><g id="elem_UsuarioPremium"><rect codeLine="66" fill="#F1F1F1" height="85.2422" id="UsuarioPremium" rx="2.5" ry="2.5" style="stroke:#181818;stroke-width:0.5;" width="174.5928" x="237" y="647.5"/><ellipse cx="269.2551" cy="663.5" fill="#ADD1B2" rx="11" ry="11" style="stroke:#181818;stroke-width:1.0;"/><path d="M272.0208,659.375 Q272.177,659.1563 272.3645,659.0469 Q272.552,658.9375 272.7708,658.9375 Q273.1458,658.9375 273.3801,659.2031 Q273.6145,659.4531 273.6145,660.0625 L273.6145,661.5156 Q273.6145,662.125 273.3801,662.3906 Q273.1458,662.6563 272.7708,662.6563 Q272.427,662.6563 272.2239,662.4531 Q272.0208,662.2656 271.9114,661.75 Q271.8645,661.3906 271.677,661.2031 Q271.3489,660.8281 270.7395,660.6094 Q270.1301,660.3906 269.5051,660.3906 Q268.7395,660.3906 268.0989,660.7188 Q267.4739,661.0469 266.9739,661.7969 Q266.4895,662.5469 266.4895,663.5781 L266.4895,664.6719 Q266.4895,665.9063 267.3801,666.7344 Q268.2708,667.5469 269.8645,667.5469 Q270.802,667.5469 271.4583,667.2969 Q271.8489,667.1406 272.2708,666.7031 Q272.5364,666.4375 272.677,666.3594 Q272.8333,666.2813 273.0364,666.2813 Q273.3645,666.2813 273.6145,666.5469 Q273.8801,666.7969 273.8801,667.1406 Q273.8801,667.4844 273.5364,667.8906 Q273.0364,668.4688 272.2395,668.7969 Q271.1614,669.25 269.8645,669.25 Q268.3489,669.25 267.1458,668.625 Q266.1614,668.125 265.4739,667.0625 Q264.7864,665.9844 264.7864,664.7031 L264.7864,663.5469 Q264.7864,662.2188 265.3958,661.0781 Q266.0208,659.9219 267.1145,659.3125 Q268.2083,658.6875 269.4426,658.6875 Q270.177,658.6875 270.8176,658.8594 Q271.4739,659.0156 272.0208,659.375 Z " fill="#000000"/><text fill="#000000" font-family="sans-serif" font-size="14" lengthAdjust="spacing" textLength="104.248" x="287.0896" y="669.2969">UsuarioPremium</text><line style="stroke:#181818;stroke-width:0.5;" x1="238" x2="410.5928" y1="679.5" y2="679.5"/><ellipse cx="248" cy="694.3105" fill="none" rx="3" ry="3" style="stroke:#038048;stroke-width:1.0;"/><text fill="#000000" font-family="sans-serif" font-size="14" lengthAdjust="spacing" textLength="102.6895" x="257" y="698.6074">int limitePlaylists</text><line style="stroke:#181818;stroke-width:0.5;" x1="238" x2="410.5928" y1="706.1211" y2="706.1211"/><ellipse cx="248" cy="720.9316" fill="#84BE84" rx="3" ry="3" style="stroke:#038048;stroke-width:1.0;"/><text fill="#000000" font-family="sans-serif" font-size="14" lengthAdjust="spacing" textLength="148.5928" x="257" y="725.2285">void visualizarPlaylists()</text></g><!--class UsuarioGratuito--><g id="elem_UsuarioGratuito"><rect codeLine="71" fill="#F1F1F1" height="85.2422" id="UsuarioGratuito" rx="2.5" ry="2.5" style="stroke:#181818;stroke-width:0.5;" width="194.8203" x="7" y="647.5"/><ellipse cx="51.1507" cy="663.5" fill="#ADD1B2" rx="11" ry="11" style="stroke:#181818;stroke-width:1.0;"/><path d="M53.9163,659.375 Q54.0726,659.1563 54.2601,659.0469 Q54.4476,658.9375 54.6663,658.9375 Q55.0413,658.9375 55.2757,659.2031 Q55.5101,659.4531 55.5101,660.0625 L55.5101,661.5156 Q55.5101,662.125 55.2757,662.3906 Q55.0413,662.6563 54.6663,662.6563 Q54.3226,662.6563 54.1194,662.4531 Q53.9163,662.2656 53.8069,661.75 Q53.7601,661.3906 53.5726,661.2031 Q53.2444,660.8281 52.6351,660.6094 Q52.0257,660.3906 51.4007,660.3906 Q50.6351,660.3906 49.9944,660.7188 Q49.3694,661.0469 48.8694,661.7969 Q48.3851,662.5469 48.3851,663.5781 L48.3851,664.6719 Q48.3851,665.9063 49.2757,666.7344 Q50.1663,667.5469 51.7601,667.5469 Q52.6976,667.5469 53.3538,667.2969 Q53.7444,667.1406 54.1663,666.7031 Q54.4319,666.4375 54.5726,666.3594 Q54.7288,666.2813 54.9319,666.2813 Q55.2601,666.2813 55.5101,666.5469 Q55.7757,666.7969 55.7757,667.1406 Q55.7757,667.4844 55.4319,667.8906 Q54.9319,668.4688 54.1351,668.7969 Q53.0569,669.25 51.7601,669.25 Q50.2444,669.25 49.0413,668.625 Q48.0569,668.125 47.3694,667.0625 Q46.6819,665.9844 46.6819,664.7031 L46.6819,663.5469 Q46.6819,662.2188 47.2913,661.0781 Q47.9163,659.9219 49.0101,659.3125 Q50.1038,658.6875 51.3382,658.6875 Q52.0726,658.6875 52.7132,658.8594 Q53.3694,659.0156 53.9163,659.375 Z " fill="#000000"/><text fill="#000000" font-family="sans-serif" font-size="14" lengthAdjust="spacing" textLength="98.041" x="71.6286" y="669.2969">UsuarioGratuito</text><line style="stroke:#181818;stroke-width:0.5;" x1="8" x2="200.8203" y1="679.5" y2="679.5"/><ellipse cx="18" cy="694.3105" fill="none" rx="3" ry="3" style="stroke:#038048;stroke-width:1.0;"/><text fill="#000000" font-family="sans-serif" font-size="14" lengthAdjust="spacing" textLength="168.8203" x="27" y="698.6074">int limiteMusicasPorPlaylist</text><line style="stroke:#181818;stroke-width:0.5;" x1="8" x2="200.8203" y1="706.1211" y2="706.1211"/><ellipse cx="18" cy="720.9316" fill="#84BE84" rx="3" ry="3" style="stroke:#038048;stroke-width:1.0;"/><text fill="#000000" font-family="sans-serif" font-size="14" lengthAdjust="spacing" textLength="148.5928" x="27" y="725.2285">void visualizarPlaylists()</text></g><!--class GeneroMusical--><g id="elem_GeneroMusical"><rect codeLine="76" fill="#F1F1F1" height="66.6211" id="GeneroMusical" rx="2.5" ry="2.5" style="stroke:#181818;stroke-width:0.5;" width="366.7373" x="966" y="44"/><ellipse cx="1098.043" cy="60" fill="#EB937F" rx="11" ry="11" style="stroke:#181818;stroke-width:1.0;"/><path d="M1096.9023,60.7969 L1096.9023,63.2969 L1101.2305,63.2969 L1101.2305,62.375 Q1101.2305,61.7656 1101.4648,61.5 Q1101.7148,61.2344 1102.0898,61.2344 Q1102.4648,61.2344 1102.6992,61.5 Q1102.9336,61.7656 1102.9336,62.375 L1102.9336,65 L1094.9336,65 Q1094.3086,65 1094.043,64.7656 Q1093.793,64.5313 1093.793,64.1406 Q1093.793,63.7656 1094.0586,63.5313 Q1094.3242,63.2969 1094.9336,63.2969 L1095.1992,63.2969 L1095.1992,56.6406 L1094.9336,56.6406 Q1094.3086,56.6406 1094.043,56.4063 Q1093.793,56.1719 1093.793,55.7813 Q1093.793,55.4063 1094.043,55.1719 Q1094.3086,54.9375 1094.9336,54.9375 L1102.5586,54.9375 L1102.5586,57.5313 Q1102.5586,58.1406 1102.3242,58.4063 Q1102.1055,58.6563 1101.7148,58.6563 Q1101.3398,58.6563 1101.1055,58.4063 Q1100.8711,58.1406 1100.8711,57.5313 L1100.8711,56.6406 L1096.9023,56.6406 L1096.9023,59.0938 L1098.3867,59.0938 Q1098.3867,58.4375 1098.5117,58.25 Q1098.7773,57.8438 1099.2461,57.8438 Q1099.6211,57.8438 1099.8555,58.1094 Q1100.0898,58.3594 1100.0898,58.9688 L1100.0898,60.9375 Q1100.0898,61.4844 1099.9648,61.6719 Q1099.6992,62.0625 1099.2461,62.0625 Q1098.7773,62.0625 1098.5117,61.6563 Q1098.3867,61.4688 1098.3867,60.7969 L1096.9023,60.7969 Z " fill="#000000"/><text fill="#000000" font-family="sans-serif" font-size="14" lengthAdjust="spacing" textLength="94.1514" x="1118.543" y="65.7969">GeneroMusical</text><line style="stroke:#181818;stroke-width:0.5;" x1="967" x2="1331.7373" y1="76" y2="76"/><text fill="#000000" font-family="sans-serif" font-size="14" lengthAdjust="spacing" textLength="354.7373" x="972" y="95.1074">ROCK, POP, JAZZ, CLASSICA, ELETRONICA, HIPHOP</text><line style="stroke:#181818;stroke-width:0.5;" x1="967" x2="1331.7373" y1="102.6211" y2="102.6211"/></g><!--class Singleton--><g id="elem_Singleton"><rect fill="#F1F1F1" height="48" id="Singleton" rx="2.5" ry="2.5" style="stroke:#181818;stroke-width:0.5;" width="90.3789" x="1286.5" y="666"/><ellipse cx="1301.5" cy="682" fill="#ADD1B2" rx="11" ry="11" style="stroke:#181818;stroke-width:1.0;"/><path d="M1304.2656,677.875 Q1304.4219,677.6563 1304.6094,677.5469 Q1304.7969,677.4375 1305.0156,677.4375 Q1305.3906,677.4375 1305.625,677.7031 Q1305.8594,677.9531 1305.8594,678.5625 L1305.8594,680.0156 Q1305.8594,680.625 1305.625,680.8906 Q1305.3906,681.1563 1305.0156,681.1563 Q1304.6719,681.1563 1304.4688,680.9531 Q1304.2656,680.7656 1304.1563,680.25 Q1304.1094,679.8906 1303.9219,679.7031 Q1303.5938,679.3281 1302.9844,679.1094 Q1302.375,678.8906 1301.75,678.8906 Q1300.9844,678.8906 1300.3438,679.2188 Q1299.7188,679.5469 1299.2188,680.2969 Q1298.7344,681.0469 1298.7344,682.0781 L1298.7344,683.1719 Q1298.7344,684.4063 1299.625,685.2344 Q1300.5156,686.0469 1302.1094,686.0469 Q1303.0469,686.0469 1303.7031,685.7969 Q1304.0938,685.6406 1304.5156,685.2031 Q1304.7813,684.9375 1304.9219,684.8594 Q1305.0781,684.7813 1305.2813,684.7813 Q1305.6094,684.7813 1305.8594,685.0469 Q1306.125,685.2969 1306.125,685.6406 Q1306.125,685.9844 1305.7813,686.3906 Q1305.2813,686.9688 1304.4844,687.2969 Q1303.4063,687.75 1302.1094,687.75 Q1300.5938,687.75 1299.3906,687.125 Q1298.4063,686.625 1297.7188,685.5625 Q1297.0313,684.4844 1297.0313,683.2031 L1297.0313,682.0469 Q1297.0313,680.7188 1297.6406,679.5781 Q1298.2656,678.4219 1299.3594,677.8125 Q1300.4531,677.1875 1301.6875,677.1875 Q1302.4219,677.1875 1303.0625,677.3594 Q1303.7188,677.5156 1304.2656,677.875 Z " fill="#000000"/><text fill="#000000" font-family="sans-serif" font-size="14" lengthAdjust="spacing" textLength="58.3789" x="1315.5" y="687.7969">Singleton</text><line style="stroke:#181818;stroke-width:0.5;" x1="1287.5" x2="1375.8789" y1="698" y2="698"/><line style="stroke:#181818;stroke-width:0.5;" x1="1287.5" x2="1375.8789" y1="706" y2="706"/></g><!--reverse link Usuario to Playlist--><g id="link_Usuario_Playlist"><path codeLine="81" d="M460.9237,531.9041 C480.6437,558.6941 497.01,580.95 518.12,609.65 " fill="none" id="Usuario-backto-Playlist" style="stroke:#181818;stroke-width:1.0;"/><polygon fill="#181818" points="453.81,522.24,454.1455,529.4433,460.9237,531.9041,460.5882,524.7008,453.81,522.24" style="stroke:#181818;stroke-width:1.0;"/><text fill="#000000" font-family="sans-serif" font-size="13" lengthAdjust="spacing" textLength="7.23" x="451.5256" y="544.3208">1</text><text fill="#000000" font-family="sans-serif" font-size="13" lengthAdjust="spacing" textLength="19.5127" x="493.1136" y="598.7903">0..*</text></g><!--reverse link Playlist to Musica--><g id="link_Playlist_Musica"><path codeLine="82" d="M645.8844,779.4532 C661.1744,798.9532 670.15,810.39 685.45,829.89 " fill="none" id="Playlist-backto-Musica" style="stroke:#181818;stroke-width:1.0;"/><polygon fill="#181818" points="638.48,770.01,639.0345,777.1998,645.8844,779.4532,645.33,772.2635,638.48,770.01" style="stroke:#181818;stroke-width:1.0;"/><text fill="#000000" font-family="sans-serif" font-size="13" lengthAdjust="spacing" textLength="7.23" x="636.5312" y="791.6689">1</text><text fill="#000000" font-family="sans-serif" font-size="13" lengthAdjust="spacing" textLength="19.5127" x="659.8945" y="818.7756">0..*</text></g><!--reverse link Artista to Album--><g id="link_Artista_Album"><path codeLine="83" d="M889.1501,515.6343 C890.4101,556.4643 891.95,606.37 893.21,647.24 " fill="none" id="Artista-backto-Album" style="stroke:#181818;stroke-width:1.0;"/><polygon fill="#181818" points="888.78,503.64,884.967,509.7605,889.1501,515.6343,892.9632,509.5138,888.78,503.64" style="stroke:#181818;stroke-width:1.0;"/><text fill="#000000" font-family="sans-serif" font-size="13" lengthAdjust="spacing" textLength="7.23" x="881.4473" y="525.8226">1</text><text fill="#000000" font-family="sans-serif" font-size="13" lengthAdjust="spacing" textLength="19.5127" x="872.5538" y="636.1026">0..*</text></g><!--reverse link Album to Musica--><g id="link_Album_Musica"><path codeLine="84" d="M859.7909,742.4693 C841.3009,769.8893 823.18,796.76 800.99,829.68 " fill="none" id="Album-backto-Musica" style="stroke:#181818;stroke-width:1.0;"/><polygon fill="#181818" points="866.5,732.52,859.829,735.2583,859.7909,742.4693,866.4619,739.731,866.5,732.52" style="stroke:#181818;stroke-width:1.0;"/><text fill="#000000" font-family="sans-serif" font-size="13" lengthAdjust="spacing" textLength="7.23" x="854.5206" y="754.6835">1</text><text fill="#000000" font-family="sans-serif" font-size="13" lengthAdjust="spacing" textLength="19.5127" x="785.947" y="818.8229">0..*</text></g><!--link SpotifyAPI to Singleton--><g id="link_SpotifyAPI_Singleton"><path codeLine="86" d="M1252.56,550.09 C1276.36,591.96 1294.0317,623.0476 1309.4717,650.2376 " fill="none" id="SpotifyAPI-to-Singleton" style="stroke:#181818;stroke-width:1.0;"/><polygon fill="none" points="1318.36,665.89,1314.6892,647.2748,1304.2542,653.2004,1318.36,665.89" style="stroke:#181818;stroke-width:1.0;"/></g><!--link Sistema to Singleton--><g id="link_Sistema_Singleton"><path codeLine="87" d="M930.67,139.56 C936.7,142.42 942.66,145.24 948.5,148 C1160.24,248.11 1299.92,174.3 1425.5,372 C1467.92,438.78 1448.68,474.36 1425.5,550 C1411.5,595.68 1388.8459,626.451 1365.7559,652.321 " fill="none" id="Sistema-to-Singleton" style="stroke:#181818;stroke-width:1.0;"/><polygon fill="none" points="1353.77,665.75,1370.2322,656.3163,1361.2796,648.3257,1353.77,665.75" style="stroke:#181818;stroke-width:1.0;"/></g><!--link Musica to Reprodutivel--><g id="link_Musica_Reprodutivel"><path codeLine="89" d="M712.41,990.17 C703.34,1010.63 701.2241,1015.4041 693.3741,1033.1141 " fill="none" id="Musica-to-Reprodutivel" style="stroke:#181818;stroke-width:1.0;"/><polygon fill="none" points="686.08,1049.57,698.8594,1035.5455,687.8888,1030.6828,686.08,1049.57" style="stroke:#181818;stroke-width:1.0;"/></g><!--link Playlist to Reprodutivel--><g id="link_Playlist_Reprodutivel"><path codeLine="90" d="M594.48,770.13 C613.59,854.24 639.0899,966.4878 654.0799,1032.4278 " fill="none" id="Playlist-to-Reprodutivel" style="stroke:#181818;stroke-width:1.0;"/><polygon fill="none" points="658.07,1049.98,659.9306,1031.0978,648.2292,1033.7579,658.07,1049.98" style="stroke:#181818;stroke-width:1.0;"/></g><!--reverse link Usuario to UsuarioPremium--><g id="link_Usuario_UsuarioPremium"><path codeLine="92" d="M380.6292,539.0974 C365.8792,578.4974 353.29,612.12 340.16,647.17 " fill="none" id="Usuario-backto-UsuarioPremium" style="stroke:#181818;stroke-width:1.0;"/><polygon fill="none" points="386.94,522.24,375.01,536.9938,386.2483,541.2011,386.94,522.24" style="stroke:#181818;stroke-width:1.0;"/></g><!--reverse link Usuario to UsuarioGratuito--><g id="link_Usuario_UsuarioGratuito"><path codeLine="93" d="M314.1292,532.9854 C261.1792,572.3854 207.8,612.12 160.7,647.17 " fill="none" id="Usuario-backto-UsuarioGratuito" style="stroke:#181818;stroke-width:1.0;"/><polygon fill="none" points="328.57,522.24,310.5474,528.1718,317.711,537.799,328.57,522.24" style="stroke:#181818;stroke-width:1.0;"/></g><!--link GUI to SpotifyAPI--><g id="link_GUI_SpotifyAPI"><path codeLine="95" d="M905.25,312.12 C941.94,330.37 979.0282,348.8172 1020.1682,369.2872 " fill="none" id="GUI-to-SpotifyAPI" style="stroke:#181818;stroke-width:1.0;stroke-dasharray:7.0,7.0;"/><polygon fill="#181818" points="1025.54,371.96,1019.2642,364.3696,1021.0635,369.7326,1015.7004,371.5319,1025.54,371.96" style="stroke:#181818;stroke-width:1.0;"/></g><!--link GUI to Playlist--><g id="link_GUI_Playlist"><path codeLine="96" d="M769.33,312.06 C757.61,330.69 744.59,352.08 733.5,372 C689.29,451.42 646.281,539.534 615.701,604.324 " fill="none" id="GUI-to-Playlist" style="stroke:#181818;stroke-width:1.0;stroke-dasharray:7.0,7.0;"/><polygon fill="#181818" points="613.14,609.75,620.5988,603.3183,615.2742,605.2283,613.3642,599.9037,613.14,609.75" style="stroke:#181818;stroke-width:1.0;"/></g><!--link GUI to Musica--><g id="link_GUI_Musica"><path codeLine="97" d="M798.16,312.12 C788.6,424.79 766.1576,689.1715 754.7176,823.9115 " fill="none" id="GUI-to-Musica" style="stroke:#181818;stroke-width:1.0;stroke-dasharray:7.0,7.0;"/><polygon fill="#181818" points="754.21,829.89,758.9571,821.2607,754.633,824.9079,750.9857,820.5839,754.21,829.89" style="stroke:#181818;stroke-width:1.0;"/></g><!--link GUI to Usuario--><g id="link_GUI_Usuario"><path codeLine="98" d="M701.55,312.12 C647.19,339.64 585.3028,370.9794 529.0428,399.4694 " fill="none" id="GUI-to-Usuario" style="stroke:#181818;stroke-width:1.0;stroke-dasharray:7.0,7.0;"/><polygon fill="#181818" points="523.69,402.18,533.5263,401.6826,528.1507,399.9211,529.9121,394.5455,523.69,402.18" style="stroke:#181818;stroke-width:1.0;"/></g><!--link Sistema to SpotifyAPI--><g id="link_Sistema_SpotifyAPI"><path codeLine="100" d="M915.9,148.21 C942.12,166.35 969.15,186.8 992.5,208 C1046.89,257.38 1096.1376,316.2197 1135.2376,367.1797 " fill="none" id="Sistema-to-SpotifyAPI" style="stroke:#181818;stroke-width:1.0;stroke-dasharray:7.0,7.0;"/><polygon fill="#181818" points="1138.89,371.94,1136.5849,362.3647,1135.8463,367.9731,1130.2379,367.2345,1138.89,371.94" style="stroke:#181818;stroke-width:1.0;"/></g><!--link Sistema to GUI--><g id="link_Sistema_GUI"><path codeLine="101" d="M802.5,148.03 C802.5,167.89 802.5,183.17 802.5,201.72 " fill="none" id="Sistema-to-GUI" style="stroke:#181818;stroke-width:1.0;stroke-dasharray:7.0,7.0;"/><polygon fill="#181818" points="802.5,207.72,806.5,198.72,802.5,202.72,798.5,198.72,802.5,207.72" style="stroke:#181818;stroke-width:1.0;"/></g><!--link Sistema to Playlist--><g id="link_Sistema_Playlist"><path codeLine="102" d="M674.32,142.28 C649.98,160.22 627.47,182.07 612.5,208 C540.06,333.46 548.2941,503.073 561.7641,603.723 " fill="none" id="Sistema-to-Playlist" style="stroke:#181818;stroke-width:1.0;stroke-dasharray:7.0,7.0;"/><polygon fill="#181818" points="562.56,609.67,565.3308,600.2189,561.8968,604.7142,557.4015,601.2801,562.56,609.67" style="stroke:#181818;stroke-width:1.0;"/></g><!--link Sistema to Usuario--><g id="link_Sistema_Usuario"><path codeLine="103" d="M674.27,126.56 C631.39,147.02 585.63,174.1 550.5,208 C494.14,262.4 456.3183,338.7153 433.6383,394.2553 " fill="none" id="Sistema-to-Usuario" style="stroke:#181818;stroke-width:1.0;stroke-dasharray:7.0,7.0;"/><polygon fill="#181818" points="431.37,399.81,438.4756,392.9901,433.2602,395.1811,431.0693,389.9657,431.37,399.81" style="stroke:#181818;stroke-width:1.0;"/></g><!--SRC=[ZLNDJjj04BxxAKQva40IwA6NYaPoAOAqIMCbHAgeAhHnbZ3IscljhbEWz6bww8FmObrxV_n3qi81hR-P-UP_SW0VwIsc-Fpd-JU7DP4GCo8bbP09J6FC2CgWX62QIum9_0n0_nrXgW3NvhrGMdS32bNEU0CYGg5Kf8cnLPuOv8AcL713p61JVXd9bkCQ1Cq4N-UFABgzu5TWuuWOUM2QrKMY-HN6eBFG74LOq_3hpNIv69-52tWFRqyQtbEUK0COjz- -Gr8-f4538SZ3HDEV6la82bzaMjSfWoDhZ96dH1XHrvR7aFKQMIHyI_Ue-Qn2KocNr8jeov32edIZieAfhDaMyByjNJ8kLs-xoBZ2suSm6bk2WQrdJO2fnlGma8Q2ARXrfzLkblE9hdVdJgbClZi-9XaEfI4PnZpf6EEAjjjhzA_cRqFLsBYaJicMRPNBs5UybcaFr9tWFoIStySqKxelEyVeVwrgzJHqezRrCvVPHn_sDV9YwIffE1CkbI3YYZ8IsPLYtRfJUeyh57CgSwR8ciiFHOxTNLrhXAfoml2HQCCokvZmlRErq5mq8Uq6MxJPtQEMT4SlIl_wPcWJuR1gRPOo9mBv27BpsBjNArmnv8h6Vhbqm7f_gRWbCGMRby8jPOs2Dgv21MSabwHnA6maUnUZ2icrT-JxMz_qMEX4_IZKfyueaLNHuLX1gRr5QJlZJEIEe29z5R1Qsk9iCKnGqMX70A-Zl11w9b3nbvoslX7tzgyXfwcEhtcX3VDyTlQv3z4iwiEdyFgw3sUJS56SspwSJywlvhClvVjo75tEeeBfG3UJaNAp4fegBa7_5nIgNvl0zQhpfWE7Wm5qJeR3muw_zO5Vm9Q2YInmrxCbBGzZOCxZRiEWTdO6WwUHdljqmwZI1yHjG0iEx9QLS7r8gnXVYdn-fqywXEOCx9IvPWP1SK-6mr7jFdh8LyS1DYdtQRa2dqgBfmvhcyQtvww3Zl0l]--></g></svg>