<svg xmlns="http://www.w3.org/2000/svg" xmlns:xlink="http://www.w3.org/1999/xlink" contentStyleType="text/css" height="619px" preserveAspectRatio="none" style="width:1382px;height:619px;background:#FFFFFF;" version="1.1" viewBox="0 0 1382 619" width="1382px" zoomAndPan="magnify"><defs/><g><ellipse cx="682.6912" cy="20" fill="#222222" rx="10" ry="10" style="stroke:#222222;stroke-width:1.0;"/><rect fill="#F1F1F1" height="35.9609" rx="12.5" ry="12.5" style="stroke:#181818;stroke-width:0.5;" width="96.6875" x="634.3474" y="50"/><text fill="#000000" font-family="sans-serif" font-size="12" lengthAdjust="spacing" textLength="76.6875" x="644.3474" y="72.9492">Iniciar sistema</text><rect fill="#F1F1F1" height="35.9609" rx="12.5" ry="12.5" style="stroke:#181818;stroke-width:0.5;" width="131.3809" x="617.0007" y="105.9609"/><text fill="#000000" font-family="sans-serif" font-size="12" lengthAdjust="spacing" textLength="111.3809" x="627.0007" y="128.9102">Exibir menu principal</text><rect fill="#F1F1F1" height="35.9609" rx="12.5" ry="12.5" style="stroke:#181818;stroke-width:0.5;" width="151.4082" x="606.9871" y="205.9219"/><text fill="#000000" font-family="sans-serif" font-size="12" lengthAdjust="spacing" textLength="131.4082" x="616.9871" y="228.8711">Solicitar a&#231;&#227;o do usu&#225;rio</text><polygon fill="#F1F1F1" points="632.8528,261.8828,732.5295,261.8828,744.5295,273.8828,732.5295,285.8828,632.8528,285.8828,620.8528,273.8828,632.8528,261.8828" style="stroke:#181818;stroke-width:0.5;"/><text fill="#000000" font-family="sans-serif" font-size="11" lengthAdjust="spacing" textLength="99.6768" x="632.8528" y="278.4375">Escolha do usu&#225;rio?</text><rect fill="#F1F1F1" height="35.9609" rx="12.5" ry="12.5" style="stroke:#181818;stroke-width:0.5;" width="152.7266" x="52.6807" y="325.1445"/><text fill="#000000" font-family="sans-serif" font-size="12" lengthAdjust="spacing" textLength="132.7266" x="62.6807" y="348.0938">Solicitar nome da playlist</text><rect fill="#F1F1F1" height="35.9609" rx="12.5" ry="12.5" style="stroke:#181818;stroke-width:0.5;" width="115.3672" x="71.3604" y="381.1055"/><text fill="#000000" font-family="sans-serif" font-size="12" lengthAdjust="spacing" textLength="95.3672" x="81.3604" y="404.0547">Criar nova playlist</text><rect fill="#F1F1F1" height="35.9609" rx="12.5" ry="12.5" style="stroke:#181818;stroke-width:0.5;" width="236.0879" x="11" y="452.0664"/><text fill="#000000" font-family="sans-serif" font-size="12" lengthAdjust="spacing" textLength="216.0879" x="21" y="475.0156">Adicionar m&#250;sicas (at&#233; limite do usu&#225;rio)</text><rect fill="#F1F1F1" height="35.9609" rx="12.5" ry="12.5" style="stroke:#181818;stroke-width:0.5;" width="182.082" x="257.0879" y="325.1445"/><text fill="#000000" font-family="sans-serif" font-size="12" lengthAdjust="spacing" textLength="162.082" x="267.0879" y="348.0938">Solicitar t&#237;tulo, artista e g&#234;nero</text><rect fill="#F1F1F1" height="35.9609" rx="12.5" ry="12.5" style="stroke:#181818;stroke-width:0.5;" width="176.7559" x="259.751" y="381.1055"/><text fill="#000000" font-family="sans-serif" font-size="12" lengthAdjust="spacing" textLength="156.7559" x="269.751" y="404.0547">Adicionar m&#250;sica ao cat&#225;logo</text><rect fill="#F1F1F1" height="35.9609" rx="12.5" ry="12.5" style="stroke:#181818;stroke-width:0.5;" width="162.7344" x="504.2656" y="325.1445"/><text fill="#000000" font-family="sans-serif" font-size="12" lengthAdjust="spacing" textLength="142.7344" x="514.2656" y="348.0938">Exibir cat&#225;logo de m&#250;sicas</text><rect fill="#F1F1F1" height="35.9609" rx="12.5" ry="12.5" style="stroke:#181818;stroke-width:0.5;" width="156.7227" x="783.6885" y="325.1445"/><text fill="#000000" font-family="sans-serif" font-size="12" lengthAdjust="spacing" textLength="136.7227" x="793.6885" y="348.0938">Solicitar m&#250;sica e usu&#225;rio</text><polygon fill="#F1F1F1" points="805.1807,381.1055,918.9189,381.1055,930.9189,393.1055,918.9189,405.1055,805.1807,405.1055,793.1807,393.1055,805.1807,381.1055" style="stroke:#181818;stroke-width:0.5;"/><text fill="#000000" font-family="sans-serif" font-size="11" lengthAdjust="spacing" textLength="113.7383" x="805.1807" y="397.6602">Usu&#225;rio pode avan&#231;ar?</text><text fill="#000000" font-family="sans-serif" font-size="11" lengthAdjust="spacing" textLength="18.9438" x="774.2368" y="390.3447">Sim</text><text fill="#000000" font-family="sans-serif" font-size="11" lengthAdjust="spacing" textLength="20.1792" x="930.9189" y="390.3447">N&#227;o</text><rect fill="#F1F1F1" height="35.9609" rx="12.5" ry="12.5" style="stroke:#181818;stroke-width:0.5;" width="144.043" x="697" y="415.1055"/><text fill="#000000" font-family="sans-serif" font-size="12" lengthAdjust="spacing" textLength="124.043" x="707" y="438.0547">Permitir avan&#231;ar tempo</text><rect fill="#F1F1F1" height="35.9609" rx="12.5" ry="12.5" style="stroke:#181818;stroke-width:0.5;" width="188.0703" x="861.043" y="415.1055"/><text fill="#000000" font-family="sans-serif" font-size="12" lengthAdjust="spacing" textLength="168.0703" x="871.043" y="438.0547">Reproduzir m&#250;sica sem avan&#231;o</text><polygon fill="#F1F1F1" points="862.0498,457.0664,874.0498,469.0664,862.0498,481.0664,850.0498,469.0664,862.0498,457.0664" style="stroke:#181818;stroke-width:0.5;"/><rect fill="#F1F1F1" height="35.9609" rx="12.5" ry="12.5" style="stroke:#181818;stroke-width:0.5;" width="222.0898" x="1059.1133" y="325.1445"/><text fill="#000000" font-family="sans-serif" font-size="12" lengthAdjust="spacing" textLength="202.0898" x="1069.1133" y="348.0938">Gerar lista de m&#250;sicas recomendadas</text><rect fill="#F1F1F1" height="35.9609" rx="12.5" ry="12.5" style="stroke:#181818;stroke-width:0.5;" width="108.043" x="1116.1367" y="381.1055"/><text fill="#000000" font-family="sans-serif" font-size="12" lengthAdjust="spacing" textLength="88.043" x="1126.1367" y="404.0547">Exibir sugest&#245;es</text><ellipse cx="1302.2031" cy="336.1445" fill="none" rx="11" ry="11" style="stroke:#222222;stroke-width:1.0;"/><ellipse cx="1302.2031" cy="336.1445" fill="#222222" rx="6" ry="6" style="stroke:#222222;stroke-width:1.0;"/><polygon fill="#F1F1F1" points="682.6912,498.0273,682.6912,498.0273,694.6912,510.0273,682.6912,522.0273,682.6912,522.0273,670.6912,510.0273,682.6912,498.0273" style="stroke:#181818;stroke-width:0.5;"/><polygon fill="#F1F1F1" points="682.6912,161.9219,694.6912,173.9219,682.6912,185.9219,670.6912,173.9219,682.6912,161.9219" style="stroke:#181818;stroke-width:0.5;"/><polygon fill="#F1F1F1" points="618.7913,542.0273,746.5911,542.0273,758.5911,554.0273,746.5911,566.0273,618.7913,566.0273,606.7913,554.0273,618.7913,542.0273" style="stroke:#181818;stroke-width:0.5;"/><text fill="#000000" font-family="sans-serif" font-size="11" lengthAdjust="spacing" textLength="127.7998" x="618.7913" y="558.582">Usu&#225;rio deseja continuar?</text><ellipse cx="682.6912" cy="597.0273" fill="none" rx="11" ry="11" style="stroke:#222222;stroke-width:1.0;"/><ellipse cx="682.6912" cy="597.0273" fill="#222222" rx="6" ry="6" style="stroke:#222222;stroke-width:1.0;"/><line style="stroke:#181818;stroke-width:1.0;" x1="682.6912" x2="682.6912" y1="30" y2="50"/><polygon fill="#181818" points="678.6912,40,682.6912,50,686.6912,40,682.6912,44" style="stroke:#181818;stroke-width:1.0;"/><line style="stroke:#181818;stroke-width:1.0;" x1="682.6912" x2="682.6912" y1="85.9609" y2="105.9609"/><polygon fill="#181818" points="678.6912,95.9609,682.6912,105.9609,686.6912,95.9609,682.6912,99.9609" style="stroke:#181818;stroke-width:1.0;"/><line style="stroke:#181818;stroke-width:1.0;" x1="129.0439" x2="129.0439" y1="361.1055" y2="381.1055"/><polygon fill="#181818" points="125.0439,371.1055,129.0439,381.1055,133.0439,371.1055,129.0439,375.1055" style="stroke:#181818;stroke-width:1.0;"/><line style="stroke:#181818;stroke-width:1.0;" x1="129.0439" x2="129.0439" y1="417.0664" y2="452.0664"/><polygon fill="#181818" points="125.0439,442.0664,129.0439,452.0664,133.0439,442.0664,129.0439,446.0664" style="stroke:#181818;stroke-width:1.0;"/><line style="stroke:#181818;stroke-width:1.0;" x1="348.1289" x2="348.1289" y1="361.1055" y2="381.1055"/><polygon fill="#181818" points="344.1289,371.1055,348.1289,381.1055,352.1289,371.1055,348.1289,375.1055" style="stroke:#181818;stroke-width:1.0;"/><line style="stroke:#181818;stroke-width:1.0;" x1="793.1807" x2="769.0215" y1="393.1055" y2="393.1055"/><line style="stroke:#181818;stroke-width:1.0;" x1="769.0215" x2="769.0215" y1="393.1055" y2="415.1055"/><polygon fill="#181818" points="765.0215,405.1055,769.0215,415.1055,773.0215,405.1055,769.0215,409.1055" style="stroke:#181818;stroke-width:1.0;"/><line style="stroke:#181818;stroke-width:1.0;" x1="930.9189" x2="955.0781" y1="393.1055" y2="393.1055"/><line style="stroke:#181818;stroke-width:1.0;" x1="955.0781" x2="955.0781" y1="393.1055" y2="415.1055"/><polygon fill="#181818" points="951.0781,405.1055,955.0781,415.1055,959.0781,405.1055,955.0781,409.1055" style="stroke:#181818;stroke-width:1.0;"/><line style="stroke:#181818;stroke-width:1.0;" x1="769.0215" x2="769.0215" y1="451.0664" y2="469.0664"/><line style="stroke:#181818;stroke-width:1.0;" x1="769.0215" x2="850.0498" y1="469.0664" y2="469.0664"/><polygon fill="#181818" points="840.0498,465.0664,850.0498,469.0664,840.0498,473.0664,844.0498,469.0664" style="stroke:#181818;stroke-width:1.0;"/><line style="stroke:#181818;stroke-width:1.0;" x1="955.0781" x2="955.0781" y1="451.0664" y2="469.0664"/><line style="stroke:#181818;stroke-width:1.0;" x1="955.0781" x2="874.0498" y1="469.0664" y2="469.0664"/><polygon fill="#181818" points="884.0498,465.0664,874.0498,469.0664,884.0498,473.0664,880.0498,469.0664" style="stroke:#181818;stroke-width:1.0;"/><line style="stroke:#181818;stroke-width:1.0;" x1="862.0498" x2="862.0498" y1="361.1055" y2="381.1055"/><polygon fill="#181818" points="858.0498,371.1055,862.0498,381.1055,866.0498,371.1055,862.0498,375.1055" style="stroke:#181818;stroke-width:1.0;"/><line style="stroke:#181818;stroke-width:1.0;" x1="1170.1582" x2="1170.1582" y1="361.1055" y2="381.1055"/><polygon fill="#181818" points="1166.1582,371.1055,1170.1582,381.1055,1174.1582,371.1055,1170.1582,375.1055" style="stroke:#181818;stroke-width:1.0;"/><line style="stroke:#181818;stroke-width:1.0;" x1="620.8528" x2="129.0439" y1="273.8828" y2="273.8828"/><line style="stroke:#181818;stroke-width:1.0;" x1="129.0439" x2="129.0439" y1="273.8828" y2="325.1445"/><polygon fill="#181818" points="125.0439,315.1445,129.0439,325.1445,133.0439,315.1445,129.0439,319.1445" style="stroke:#181818;stroke-width:1.0;"/><text fill="#000000" font-family="sans-serif" font-size="11" lengthAdjust="spacing" textLength="61.73" x="129.0439" y="304.0684">Criar Playlist</text><line style="stroke:#181818;stroke-width:1.0;" x1="744.5295" x2="1302.2031" y1="273.8828" y2="273.8828"/><line style="stroke:#181818;stroke-width:1.0;" x1="1302.2031" x2="1302.2031" y1="273.8828" y2="325.1445"/><polygon fill="#181818" points="1298.2031,315.1445,1302.2031,325.1445,1306.2031,315.1445,1302.2031,319.1445" style="stroke:#181818;stroke-width:1.0;"/><text fill="#000000" font-family="sans-serif" font-size="11" lengthAdjust="spacing" textLength="42.1792" x="1302.2031" y="304.0684">Encerrar</text><line style="stroke:#181818;stroke-width:1.0;" x1="348.1289" x2="348.1289" y1="273.8828" y2="325.1445"/><polygon fill="#181818" points="344.1289,315.1445,348.1289,325.1445,352.1289,315.1445,348.1289,319.1445" style="stroke:#181818;stroke-width:1.0;"/><text fill="#000000" font-family="sans-serif" font-size="11" lengthAdjust="spacing" textLength="146.1367" x="348.1289" y="299.0684">Adicionar M&#250;sica ao Cat&#225;logo</text><line style="stroke:#181818;stroke-width:1.0;" x1="585.6328" x2="585.6328" y1="273.8828" y2="325.1445"/><polygon fill="#181818" points="581.6328,315.1445,585.6328,325.1445,589.6328,315.1445,585.6328,319.1445" style="stroke:#181818;stroke-width:1.0;"/><text fill="#000000" font-family="sans-serif" font-size="11" lengthAdjust="spacing" textLength="70.2969" x="585.6328" y="299.0684">Listar M&#250;sicas</text><line style="stroke:#181818;stroke-width:1.0;" x1="862.0498" x2="862.0498" y1="273.8828" y2="325.1445"/><polygon fill="#181818" points="858.0498,315.1445,862.0498,325.1445,866.0498,315.1445,862.0498,319.1445" style="stroke:#181818;stroke-width:1.0;"/><text fill="#000000" font-family="sans-serif" font-size="11" lengthAdjust="spacing" textLength="66.0161" x="862.0498" y="299.0684">Tocar M&#250;sica</text><line style="stroke:#181818;stroke-width:1.0;" x1="1170.1582" x2="1170.1582" y1="273.8828" y2="325.1445"/><polygon fill="#181818" points="1166.1582,315.1445,1170.1582,325.1445,1174.1582,315.1445,1170.1582,319.1445" style="stroke:#181818;stroke-width:1.0;"/><text fill="#000000" font-family="sans-serif" font-size="11" lengthAdjust="spacing" textLength="99.6553" x="1170.1582" y="299.0684">Criar recomenda&#231;&#227;o</text><line style="stroke:#181818;stroke-width:1.0;" x1="129.0439" x2="129.0439" y1="488.0273" y2="510.0273"/><line style="stroke:#181818;stroke-width:1.0;" x1="129.0439" x2="670.6912" y1="510.0273" y2="510.0273"/><polygon fill="#181818" points="660.6912,506.0273,670.6912,510.0273,660.6912,514.0273,664.6912,510.0273" style="stroke:#181818;stroke-width:1.0;"/><line style="stroke:#181818;stroke-width:1.0;" x1="1170.1582" x2="1170.1582" y1="417.0664" y2="510.0273"/><line style="stroke:#181818;stroke-width:1.0;" x1="1170.1582" x2="694.6912" y1="510.0273" y2="510.0273"/><polygon fill="#181818" points="704.6912,506.0273,694.6912,510.0273,704.6912,514.0273,700.6912,510.0273" style="stroke:#181818;stroke-width:1.0;"/><line style="stroke:#181818;stroke-width:1.0;" x1="348.1289" x2="348.1289" y1="417.0664" y2="510.0273"/><polygon fill="#181818" points="344.1289,500.0273,348.1289,510.0273,352.1289,500.0273,348.1289,504.0273" style="stroke:#181818;stroke-width:1.0;"/><line style="stroke:#181818;stroke-width:1.0;" x1="585.6328" x2="585.6328" y1="361.1055" y2="510.0273"/><polygon fill="#181818" points="581.6328,500.0273,585.6328,510.0273,589.6328,500.0273,585.6328,504.0273" style="stroke:#181818;stroke-width:1.0;"/><line style="stroke:#181818;stroke-width:1.0;" x1="862.0498" x2="862.0498" y1="481.0664" y2="510.0273"/><polygon fill="#181818" points="858.0498,500.0273,862.0498,510.0273,866.0498,500.0273,862.0498,504.0273" style="stroke:#181818;stroke-width:1.0;"/><line style="stroke:#181818;stroke-width:1.0;" x1="682.6912" x2="682.6912" y1="241.8828" y2="261.8828"/><polygon fill="#181818" points="678.6912,251.8828,682.6912,261.8828,686.6912,251.8828,682.6912,255.8828" style="stroke:#181818;stroke-width:1.0;"/><line style="stroke:#181818;stroke-width:1.0;" x1="682.6912" x2="682.6912" y1="185.9219" y2="205.9219"/><polygon fill="#181818" points="678.6912,195.9219,682.6912,205.9219,686.6912,195.9219,682.6912,199.9219" style="stroke:#181818;stroke-width:1.0;"/><line style="stroke:#181818;stroke-width:1.0;" x1="758.5911" x2="1356.3823" y1="554.0273" y2="554.0273"/><polygon fill="#181818" points="1352.3823,408.9746,1356.3823,398.9746,1360.3823,408.9746,1356.3823,404.9746" style="stroke:#181818;stroke-width:1.0;"/><line style="stroke:#181818;stroke-width:1.0;" x1="1356.3823" x2="1356.3823" y1="173.9219" y2="554.0273"/><line style="stroke:#181818;stroke-width:1.0;" x1="1356.3823" x2="694.6912" y1="173.9219" y2="173.9219"/><polygon fill="#181818" points="704.6912,169.9219,694.6912,173.9219,704.6912,177.9219,700.6912,173.9219" style="stroke:#181818;stroke-width:1.0;"/><line style="stroke:#181818;stroke-width:1.0;" x1="682.6912" x2="682.6912" y1="522.0273" y2="542.0273"/><polygon fill="#181818" points="678.6912,532.0273,682.6912,542.0273,686.6912,532.0273,682.6912,536.0273" style="stroke:#181818;stroke-width:1.0;"/><line style="stroke:#181818;stroke-width:1.0;" x1="682.6912" x2="682.6912" y1="141.9219" y2="161.9219"/><polygon fill="#181818" points="678.6912,151.9219,682.6912,161.9219,686.6912,151.9219,682.6912,155.9219" style="stroke:#181818;stroke-width:1.0;"/><line style="stroke:#181818;stroke-width:1.0;" x1="682.6912" x2="682.6912" y1="566.0273" y2="586.0273"/><polygon fill="#181818" points="678.6912,576.0273,682.6912,586.0273,686.6912,576.0273,682.6912,580.0273" style="stroke:#181818;stroke-width:1.0;"/><!--SRC=[TL9BRjim4Dth5BEKWPp0MWI5OHG5sYA8smDCo8az1SKHICfkSfiWYo05kkocMrwie-XhrE6IC-_3nnSJXbIiFtasZ04YnqGrLiLw-vFlE41DleKci3VSeAkAG0rXAW3MEt6AKJXWVidF0bQWZMr-2YoLBiGJ9tE0SXkDk0CknzShdGCOZ0Jb9dJ2DmuVd8htapDwBpM1HMY6bMfSwP5UZXTc7woYnUkypdyZgnIKcF8hEAuvqTBDgbgucN5VUXoWm4QHJqxsSi5TohzJw-GAD4SrW42mpxyy1NdVIyTfHiwb-kUEOPAEazpm6HC6B4tlMkA_YPdX5yoE-dJsKztXUoY_3tVGYFBZ4Nr-mN2zWdGW3-MEwv5IIMyeQ91gQjm3BKupyP7h_7pLNYmmjzG4iUqZpquYrGF33FMMx_yhI22ZFV2sBzlqjeyKTEZUab-4Cg_RCQ4vnjZkAQRyXywostf3GSb6wfYaATxSz4qUgW-d0pjQX6KfqWy48pwnRxkyYWxw3m00]--></g></svg>